%TF.GenerationSoftware,KiCad,Pcbnew,8.0.6*%
%TF.CreationDate,2025-01-14T20:30:26-08:00*%
%TF.ProjectId,IO_SDR_1.1,494f5f53-4452-45f3-912e-312e6b696361,rev?*%
%TF.SameCoordinates,Original*%
%TF.FileFunction,Copper,L3,Inr*%
%TF.FilePolarity,Positive*%
%FSLAX46Y46*%
G04 Gerber Fmt 4.6, Leading zero omitted, Abs format (unit mm)*
G04 Created by KiCad (PCBNEW 8.0.6) date 2025-01-14 20:30:26*
%MOMM*%
%LPD*%
G01*
G04 APERTURE LIST*
G04 Aperture macros list*
%AMHorizOval*
0 Thick line with rounded ends*
0 $1 width*
0 $2 $3 position (X,Y) of the first rounded end (center of the circle)*
0 $4 $5 position (X,Y) of the second rounded end (center of the circle)*
0 Add line between two ends*
20,1,$1,$2,$3,$4,$5,0*
0 Add two circle primitives to create the rounded ends*
1,1,$1,$2,$3*
1,1,$1,$4,$5*%
%AMRotRect*
0 Rectangle, with rotation*
0 The origin of the aperture is its center*
0 $1 length*
0 $2 width*
0 $3 Rotation angle, in degrees counterclockwise*
0 Add horizontal line*
21,1,$1,$2,0,0,$3*%
G04 Aperture macros list end*
%TA.AperFunction,ComponentPad*%
%ADD10RotRect,1.700000X1.700000X45.000000*%
%TD*%
%TA.AperFunction,ComponentPad*%
%ADD11HorizOval,1.700000X0.000000X0.000000X0.000000X0.000000X0*%
%TD*%
%TA.AperFunction,ComponentPad*%
%ADD12C,2.050000*%
%TD*%
%TA.AperFunction,ComponentPad*%
%ADD13C,2.250000*%
%TD*%
%TA.AperFunction,ComponentPad*%
%ADD14C,5.000000*%
%TD*%
%TA.AperFunction,ComponentPad*%
%ADD15R,1.700000X1.700000*%
%TD*%
%TA.AperFunction,ComponentPad*%
%ADD16O,1.700000X1.700000*%
%TD*%
%TA.AperFunction,ComponentPad*%
%ADD17O,1.800000X0.900000*%
%TD*%
%TA.AperFunction,ComponentPad*%
%ADD18O,0.900000X1.800000*%
%TD*%
%TA.AperFunction,ViaPad*%
%ADD19C,0.406400*%
%TD*%
%TA.AperFunction,ViaPad*%
%ADD20C,0.457200*%
%TD*%
%TA.AperFunction,ViaPad*%
%ADD21C,0.400000*%
%TD*%
%TA.AperFunction,ViaPad*%
%ADD22C,0.500000*%
%TD*%
%TA.AperFunction,Conductor*%
%ADD23C,0.113030*%
%TD*%
%TA.AperFunction,Conductor*%
%ADD24C,0.200000*%
%TD*%
%TA.AperFunction,Conductor*%
%ADD25C,0.101600*%
%TD*%
G04 APERTURE END LIST*
D10*
%TO.N,+5VA*%
%TO.C,J3*%
X172720000Y-108966000D03*
D11*
%TO.N,GND*%
X174516051Y-110762051D03*
%TO.N,PTI*%
X176312102Y-112558102D03*
%TD*%
D12*
%TO.N,/Sheet2/UB1*%
%TO.C,J11*%
X101015800Y-78333600D03*
D13*
%TO.N,N/C*%
X103555800Y-75793600D03*
X98475800Y-75793600D03*
X103555800Y-80873600D03*
X98475800Y-80873600D03*
%TD*%
D14*
%TO.N,GND*%
%TO.C,H2*%
X159766000Y-53454396D03*
%TD*%
%TO.N,GND*%
%TO.C,H4*%
X123516000Y-138024396D03*
%TD*%
%TO.N,GND*%
%TO.C,H3*%
X159766000Y-138024396D03*
%TD*%
D15*
%TO.N,+5VD*%
%TO.C,J6*%
X159820000Y-123500000D03*
D16*
X162360000Y-123500000D03*
X159820000Y-120960000D03*
X162360000Y-120960000D03*
%TO.N,GND*%
X159820000Y-118420001D03*
X162360000Y-118420000D03*
X159820000Y-115880000D03*
X162360000Y-115880000D03*
%TO.N,PWR_Rx*%
X159820000Y-113340000D03*
%TO.N,PWR_Tx*%
X162360000Y-113340000D03*
%TO.N,PWR_Rx1*%
X159820000Y-110800000D03*
%TO.N,PWR_Tx1*%
X162360000Y-110800000D03*
%TD*%
D17*
%TO.N,GND*%
%TO.C,J1*%
X183725000Y-110540000D03*
X183725000Y-103940000D03*
%TD*%
D12*
%TO.N,/Sheet2/UB2*%
%TO.C,J9*%
X101015800Y-89966800D03*
D13*
%TO.N,N/C*%
X103555800Y-87426800D03*
X98475800Y-87426800D03*
X103555800Y-92506800D03*
X98475800Y-92506800D03*
%TD*%
D12*
%TO.N,/Sheet2/UB4*%
%TO.C,J12*%
X101020000Y-101590000D03*
D13*
%TO.N,N/C*%
X103560000Y-99050000D03*
X98480000Y-99050000D03*
X103560000Y-104130000D03*
X98480000Y-104130000D03*
%TD*%
D12*
%TO.N,/Sheet2/UB3*%
%TO.C,J10*%
X101020000Y-113240000D03*
D13*
%TO.N,N/C*%
X103560000Y-110700000D03*
X98480000Y-110700000D03*
X103560000Y-115780000D03*
X98480000Y-115780000D03*
%TD*%
D15*
%TO.N,IO_L7P*%
%TO.C,J4*%
X118460000Y-63930000D03*
D16*
%TO.N,IO_L9N*%
X118460000Y-66470000D03*
%TO.N,PS_MI00*%
X121000000Y-63930000D03*
%TO.N,IO_L7N*%
X121000000Y-66470000D03*
%TO.N,GND*%
X123540000Y-63930000D03*
%TO.N,PS_MI011*%
X123540000Y-66470000D03*
%TO.N,IO_L12N*%
X126080000Y-63930000D03*
%TO.N,IO_L24N*%
X126080000Y-66470000D03*
%TO.N,SCL*%
X128620000Y-63930000D03*
%TO.N,IO_L10P*%
X128620000Y-66470000D03*
%TO.N,+5VD*%
X131160000Y-63930000D03*
%TO.N,SDA*%
X131160000Y-66470000D03*
%TO.N,IO_L15P_T2*%
X133700000Y-63930000D03*
%TO.N,IO_L15N_T2*%
X133700000Y-66470000D03*
%TO.N,IO_L4P_TO_35*%
X136240000Y-63930000D03*
%TO.N,IO_L4N_TO_35*%
X136240000Y-66470000D03*
%TO.N,GND*%
X138780000Y-63930000D03*
%TO.N,+5VA*%
X138780000Y-66470000D03*
%TO.N,PS_MI049*%
X141320000Y-63930000D03*
%TO.N,PS_MI048*%
X141320000Y-66470000D03*
%TO.N,PS_MIO07_500_USB_RESET_B*%
X143860000Y-63930000D03*
%TO.N,PS_MI046*%
X143860000Y-66470000D03*
%TO.N,PS_MI09*%
X146400000Y-63930000D03*
%TO.N,PS_MI052*%
X146400000Y-66470000D03*
%TO.N,unconnected-(J4-Pin_25-Pad25)*%
X148940000Y-63930000D03*
%TO.N,unconnected-(J4-Pin_26-Pad26)*%
X148940000Y-66470000D03*
%TO.N,unconnected-(J4-Pin_27-Pad27)*%
X151480000Y-63930000D03*
%TO.N,unconnected-(J4-Pin_28-Pad28)*%
X151480000Y-66470000D03*
%TO.N,TMS*%
X154020000Y-63930000D03*
%TO.N,+1V8*%
X154020000Y-66470000D03*
%TO.N,TDO*%
X156560000Y-63930000D03*
%TO.N,TCK*%
X156560000Y-66470000D03*
%TO.N,GND*%
X159100000Y-63930000D03*
%TO.N,TDI*%
X159100000Y-66470000D03*
%TO.N,UART_RX*%
X161640000Y-63930000D03*
%TO.N,EXT_CLK_EN*%
X161640000Y-66470000D03*
%TO.N,GND*%
X164180000Y-63930000D03*
%TO.N,UART_TX*%
X164180000Y-66470000D03*
%TO.N,SD_BOOT*%
X166720000Y-63930000D03*
%TO.N,JTAG_BOOT*%
X166720000Y-66470000D03*
%TD*%
D18*
%TO.N,GND*%
%TO.C,J2*%
X151720629Y-52971830D03*
X145120631Y-52971830D03*
%TD*%
D15*
%TO.N,+3V3*%
%TO.C,J5*%
X125860000Y-127080000D03*
D16*
X125860000Y-129620000D03*
%TO.N,GND*%
X128400000Y-127080000D03*
X128400000Y-129620000D03*
%TO.N,CAM0*%
X130939999Y-127080000D03*
%TO.N,CAM4*%
X130940000Y-129620000D03*
%TO.N,CAM1*%
X133480000Y-127080000D03*
%TO.N,CAM5*%
X133480000Y-129620000D03*
%TO.N,CAM2*%
X136020000Y-127080000D03*
%TO.N,CAM6*%
X136020000Y-129620000D03*
%TO.N,CAM3*%
X138560000Y-127080000D03*
%TO.N,CAM7*%
X138560000Y-129620000D03*
%TD*%
D14*
%TO.N,GND*%
%TO.C,H1*%
X123516000Y-53454396D03*
%TD*%
D19*
%TO.N,GND*%
X183110000Y-96010000D03*
X183100000Y-97140000D03*
X180790000Y-96970000D03*
X180150000Y-96540000D03*
X181450000Y-96480000D03*
X180810000Y-96540000D03*
X186130000Y-96400000D03*
X183150000Y-96590000D03*
D20*
%TO.N,+1V0*%
X135853064Y-94431664D03*
X140653054Y-92831664D03*
X135853064Y-96031654D03*
X135053064Y-92831664D03*
X135053064Y-96831654D03*
X136653064Y-96831654D03*
X135853064Y-90431674D03*
X140659124Y-89625604D03*
X166954194Y-90183004D03*
X138253054Y-96031654D03*
X135053064Y-89631674D03*
X135053064Y-91231664D03*
X140653054Y-91231664D03*
X139853054Y-90431674D03*
X135853064Y-92031664D03*
X140653054Y-95231664D03*
X140157194Y-79388004D03*
X151409394Y-75755804D03*
X140207994Y-80759604D03*
X140207994Y-82258204D03*
X140653054Y-96831654D03*
X152450794Y-82258204D03*
X135053064Y-95231664D03*
%TO.N,Net-(Q1-B)*%
X172542194Y-91986404D03*
X167792394Y-95110604D03*
%TO.N,+5VA*%
X161391594Y-82055004D03*
X113285994Y-70006014D03*
X179750000Y-100450000D03*
X166954194Y-91142214D03*
X166825014Y-78125014D03*
X127680000Y-120940500D03*
X108236014Y-69946024D03*
X178500474Y-99494034D03*
X180630000Y-100490000D03*
X143916394Y-76644804D03*
X181739994Y-80910024D03*
X175844194Y-97955404D03*
X178780000Y-100480000D03*
X182143394Y-91122804D03*
X148361394Y-81978804D03*
X183330014Y-76479972D03*
X181620000Y-100480000D03*
X178570024Y-85997444D03*
X128760000Y-123550000D03*
X109669984Y-110710014D03*
X179599994Y-99540004D03*
X169130014Y-72439984D03*
X181650000Y-99670000D03*
X182168794Y-91986404D03*
%TO.N,+1V8*%
X177027634Y-84009994D03*
X131853074Y-86431674D03*
X149791724Y-101534164D03*
X140653054Y-99231654D03*
X176259994Y-76970024D03*
X138253054Y-95231664D03*
X125070000Y-112890000D03*
X132653074Y-100831644D03*
X133453064Y-89631674D03*
X136653064Y-88031674D03*
X139053054Y-89631674D03*
X139853054Y-96031654D03*
X133648553Y-107810687D03*
X131053074Y-97631654D03*
X175309984Y-77880004D03*
X139053054Y-92831664D03*
X139853054Y-88831674D03*
X141453054Y-100831644D03*
X131053074Y-88831674D03*
X142349974Y-104960014D03*
X133648553Y-108796997D03*
X129453074Y-85631684D03*
X136653064Y-91231664D03*
X129220000Y-72560000D03*
X134253064Y-96031654D03*
X139053054Y-91231664D03*
X131853074Y-95231664D03*
X141453054Y-94431664D03*
X140653054Y-86431674D03*
X124897009Y-94683224D03*
X138253054Y-90431674D03*
X174670004Y-83329984D03*
X178346809Y-83826809D03*
X145340014Y-103360014D03*
X139853054Y-94431664D03*
X141453054Y-88831674D03*
X133653558Y-107374824D03*
X136653064Y-97631654D03*
X135053064Y-101631644D03*
X139853054Y-96831654D03*
X133453064Y-98431654D03*
X138253054Y-94431664D03*
X132653074Y-92031664D03*
X138253054Y-85631684D03*
X177437944Y-77002084D03*
X134253064Y-87231674D03*
X135853064Y-99231654D03*
X138253054Y-92831664D03*
X129453074Y-94431664D03*
X130253074Y-100031654D03*
X136653064Y-93631664D03*
X145010014Y-106849974D03*
X137422784Y-114840814D03*
X139853054Y-97631654D03*
X135469984Y-103399994D03*
X141453054Y-89631674D03*
X141453054Y-91231664D03*
X138253054Y-92031664D03*
X136653064Y-95231664D03*
D21*
X183029975Y-101900025D03*
D20*
X126180000Y-99230000D03*
X127450976Y-103207993D03*
X130253074Y-91231664D03*
%TO.N,Net-(C10-Pad1)*%
X164254984Y-77705004D03*
X172810014Y-76070004D03*
%TO.N,+1V5*%
X143053044Y-96031654D03*
X145453044Y-88031674D03*
X143853044Y-101631644D03*
X156140804Y-89542214D03*
X150977574Y-87971384D03*
X150393394Y-90056004D03*
X163340794Y-98342194D03*
X146456394Y-100012804D03*
X144653044Y-99231654D03*
X156140804Y-97542194D03*
X156140804Y-98342194D03*
X163340794Y-99942194D03*
X143853044Y-92831664D03*
X156140804Y-96742194D03*
X146456394Y-98844404D03*
X150291794Y-91580004D03*
X143053044Y-87231674D03*
X142253054Y-98431654D03*
X152704794Y-81242204D03*
X162540794Y-91942204D03*
X153779974Y-83850024D03*
X163340794Y-89542214D03*
X156940804Y-99942194D03*
X163340794Y-87942214D03*
X156140804Y-94342204D03*
X162640004Y-75010004D03*
X145453044Y-96831654D03*
X150875994Y-97320404D03*
X142253054Y-89631674D03*
X166782684Y-95492094D03*
X162540794Y-97542194D03*
X156140804Y-87942214D03*
X162540794Y-99142194D03*
X158540804Y-95142204D03*
X155828994Y-76314604D03*
X153695394Y-78727604D03*
X149402794Y-95631664D03*
X156940804Y-91942204D03*
X144653044Y-90431674D03*
X163340794Y-95942204D03*
X162540794Y-94342204D03*
%TO.N,Net-(U5-NR)*%
X165720004Y-83160004D03*
X165403374Y-80063394D03*
%TO.N,/Sheet1/TPP*%
X165784984Y-79210004D03*
X151129994Y-78016404D03*
X151510994Y-80150004D03*
%TO.N,+1V2*%
X114427004Y-81750000D03*
X119620544Y-105570414D03*
X118313194Y-81493274D03*
X115424444Y-81750000D03*
X112897004Y-90113204D03*
X113696994Y-90913204D03*
X147624794Y-83121804D03*
X119296984Y-97313194D03*
X145846794Y-84391804D03*
X114540534Y-105575404D03*
X121696984Y-91713204D03*
X115556534Y-105575404D03*
X147573994Y-84391804D03*
X120096984Y-97313194D03*
X118496984Y-88513204D03*
X113696994Y-90113204D03*
X118604554Y-105575404D03*
X119296984Y-87713214D03*
X114496994Y-95713194D03*
%TO.N,VDDA1P1_RX_VCO*%
X112897004Y-93313194D03*
X120896984Y-87713214D03*
%TO.N,+12L*%
X160350194Y-84722004D03*
X122631174Y-90113204D03*
X112897004Y-91713204D03*
X120096984Y-88513204D03*
X159892994Y-85407804D03*
X119296984Y-88513204D03*
X112897004Y-90913204D03*
X159435794Y-84722004D03*
X110540794Y-97193404D03*
X113696994Y-94913194D03*
%TO.N,/Sheet2/TX2A_N*%
X117150504Y-84620404D03*
X117696994Y-87713214D03*
%TO.N,/Sheet2/RX2A_N*%
X112097004Y-87713214D03*
D19*
X110890000Y-86870000D03*
D20*
%TO.N,/Sheet2/TX1A_N*%
X116808404Y-102527404D03*
X118496984Y-97313194D03*
%TO.N,/Sheet2/RX1A_N*%
X112897004Y-97313194D03*
X112799104Y-102532384D03*
%TO.N,/Sheet2/TX2A_P*%
X118496984Y-87713214D03*
X116580274Y-84620404D03*
%TO.N,/Sheet2/RX2A_P*%
X112897004Y-87713214D03*
D19*
X110300000Y-86590000D03*
D20*
%TO.N,TCK*%
X163347394Y-84671204D03*
X152679394Y-105550004D03*
X139053054Y-97631654D03*
%TO.N,/Sheet3/H6*%
X140653054Y-96031654D03*
X147904194Y-98260204D03*
%TO.N,/Sheet3/P6*%
X141453054Y-90431674D03*
X147345394Y-94424804D03*
X148005794Y-90538604D03*
%TO.N,FPGA-REST*%
X140653054Y-100031654D03*
X141096994Y-102603604D03*
%TO.N,+3.3V*%
X120510000Y-106650000D03*
X120510000Y-107160000D03*
X120190000Y-100890000D03*
D19*
%TO.N,Net-(C84-Pad2)*%
X116690000Y-106450000D03*
X116900000Y-108650000D03*
D20*
%TO.N,USB_OTG_N*%
X148495410Y-57939400D03*
X182329984Y-81758994D03*
%TO.N,USB_OTG_P*%
X182340000Y-82690000D03*
X147814934Y-57328942D03*
D22*
%TO.N,USB_ID*%
X147036000Y-57629984D03*
X180980000Y-79430000D03*
D20*
%TO.N,+15V*%
X154035594Y-90041414D03*
X154025594Y-87942214D03*
X165582594Y-95373794D03*
X164744394Y-92655994D03*
X154025594Y-88961614D03*
X163340794Y-94342204D03*
X156940804Y-90342214D03*
X164744394Y-93592804D03*
%TO.N,TMS*%
X141453054Y-95231664D03*
X150639974Y-105630014D03*
%TO.N,EXT_CLK_EN*%
X111328194Y-114313004D03*
X136660000Y-70910000D03*
%TO.N,UART_RX*%
X139853054Y-98431654D03*
%TO.N,UART_TX*%
X139053054Y-99231654D03*
%TO.N,SD_BOOT*%
X124992484Y-116810000D03*
%TO.N,IO_L15P_T2*%
X130253074Y-97631654D03*
%TO.N,IO_L4N_TO_35*%
X129460118Y-99238698D03*
%TO.N,IO_L4P_TO_35*%
X130253074Y-99231654D03*
%TO.N,PS_MI048*%
X135853064Y-100831644D03*
%TO.N,PS_MI049*%
X135853064Y-100031654D03*
%TO.N,PS_MI046*%
X132653074Y-99231654D03*
%TO.N,PS_MIO07_500_USB_RESET_B*%
X177969974Y-76490014D03*
%TO.N,PS_MI052*%
X138253054Y-100031654D03*
%TO.N,PS_MI09*%
X142253054Y-100831644D03*
%TO.N,IO_L9N*%
X129453074Y-92831664D03*
%TO.N,IO_L7P*%
X130253074Y-92031664D03*
%TO.N,IO_L7N*%
X129453074Y-92031664D03*
%TO.N,PS_MI00*%
X176225194Y-89598804D03*
X165049194Y-98006204D03*
X141453054Y-98431654D03*
D19*
%TO.N,PS_MI011*%
X120710000Y-73350000D03*
X123222618Y-86287330D03*
D20*
X141453054Y-100031654D03*
X125598813Y-97007378D03*
X132653074Y-97631654D03*
%TO.N,IO_L24N*%
X132653074Y-90431674D03*
%TO.N,IO_L12N*%
X130253074Y-88031674D03*
D21*
%TO.N,IO_L10P*%
X128770000Y-70210000D03*
D20*
X133453064Y-87231674D03*
%TO.N,SCL*%
X131853074Y-88031674D03*
X132333994Y-82969404D03*
%TO.N,SDA*%
X130555994Y-82969404D03*
X131853074Y-85631684D03*
%TO.N,CD*%
X134253064Y-100831644D03*
X147741517Y-108826216D03*
D22*
X148844000Y-122936000D03*
D20*
%TO.N,+3V3*%
X129240024Y-111679984D03*
D19*
X122170000Y-119090000D03*
D22*
X147066000Y-122174000D03*
D20*
X131238553Y-107881083D03*
X137720000Y-119470000D03*
D19*
X123850000Y-111250000D03*
D20*
X135660000Y-119760000D03*
D19*
X126940000Y-119510000D03*
D20*
X130124194Y-119951804D03*
X133723153Y-119392604D03*
%TO.N,Net-(Q1-C)*%
X172694594Y-92900804D03*
X179273194Y-89624204D03*
%TO.N,USR_LED*%
X145132540Y-108738750D03*
D21*
X119900000Y-82190000D03*
X123270000Y-104670000D03*
D20*
X139850000Y-100020000D03*
X112523984Y-75435984D03*
%TO.N,DONE*%
X136372594Y-84061604D03*
X136653064Y-89631674D03*
X107515974Y-76486014D03*
%TO.N,TX_VCO_1P1V_SUPPLY*%
X111886994Y-92850004D03*
X120896984Y-88513204D03*
X113696994Y-93313194D03*
%TO.N,TDO*%
X141453054Y-97631654D03*
X155143194Y-104762604D03*
%TO.N,TDI*%
X148629974Y-103490014D03*
X141453054Y-96831654D03*
%TO.N,/Sheet3/DDR-RESET*%
X143053044Y-100831644D03*
X162540794Y-87142214D03*
%TO.N,/Sheet3/DDR-CK_P*%
X144653044Y-92831664D03*
X158540804Y-92742204D03*
%TO.N,/Sheet3/DDR-CK_N*%
X144653044Y-92031664D03*
X158540804Y-91942204D03*
%TO.N,USR_BTN*%
X143916394Y-104965804D03*
X146130229Y-108602039D03*
D19*
X130088615Y-75088885D03*
D20*
%TO.N,PS_MIO06_500_QSPI0_SCLK*%
X143865594Y-108750404D03*
X135105541Y-116180456D03*
%TO.N,PS_MIO01_500_QSPI0_SS_B*%
X139590000Y-109340000D03*
X126160014Y-112850014D03*
%TO.N,JTAG_BOOT*%
X137382804Y-113590784D03*
%TO.N,/Sheet2/TX1A_P*%
X117378634Y-102527404D03*
X117696994Y-97313194D03*
%TO.N,/Sheet2/RX1A_P*%
X112097004Y-97313194D03*
X113369334Y-102532384D03*
%TO.N,IO_L08_34_CTRL_OUT0*%
X114496994Y-90113204D03*
X134253064Y-86431674D03*
%TO.N,IO_L08_34_CTRL_OUT1*%
X134253064Y-85631684D03*
X114496994Y-90913204D03*
%TO.N,IO_L11_34_TXNRX*%
X134253064Y-88031674D03*
X114496994Y-94113194D03*
%TO.N,IO_L24_35_SPI_DI*%
X129453074Y-100831644D03*
X114496994Y-94913194D03*
%TO.N,PS_MIO36_501_USB0_CLK*%
X136653064Y-101631644D03*
X174066194Y-77965604D03*
%TO.N,PS_MIO31_501_USB0_NXT*%
X170738794Y-83502804D03*
X132653074Y-98431654D03*
%TO.N,PS_MIO32_501_USB0_D0*%
X134253064Y-101631644D03*
X173837594Y-79540404D03*
%TO.N,CTRL_IN0*%
X131853074Y-98431654D03*
X115296994Y-89313204D03*
%TO.N,CTRL_IN3*%
X130253074Y-98431654D03*
X115296994Y-90113204D03*
%TO.N,IO_L10_34_EN_AGC*%
X133453064Y-86431674D03*
X115296994Y-93313194D03*
%TO.N,IO_L23_35_SPI_CLK*%
X115296994Y-94913194D03*
X130253074Y-100831644D03*
%TO.N,IO_02_34_AD9361_RST*%
X115296994Y-95713194D03*
X131053074Y-90431674D03*
%TO.N,CTRL_IN1*%
X131053074Y-99231654D03*
X116096994Y-89313204D03*
%TO.N,CTRL_IN2*%
X131053074Y-98431654D03*
X116096994Y-90113204D03*
%TO.N,IO_L11_34_ENABLE*%
X116096994Y-93313194D03*
X133453064Y-88031674D03*
%TO.N,IO_02_34_AD9361_CLKOUT*%
X116096994Y-94913194D03*
X131853074Y-91231664D03*
%TO.N,IO_L23_35_SPI_ENB*%
X129450050Y-101630960D03*
X116096994Y-95713194D03*
%TO.N,IO_L24_35_SPI_D0*%
X129453074Y-100031654D03*
X116096994Y-96513194D03*
%TO.N,IO_L19_34_TX_D9*%
X132653074Y-89631674D03*
X117696994Y-90113204D03*
%TO.N,IO_L20_34_TX_D11*%
X117696994Y-90913204D03*
X131853074Y-88831674D03*
%TO.N,IO_L06_34_RX_D10*%
X117696994Y-94913194D03*
X134253064Y-90431674D03*
%TO.N,IO_L05_34_RX_D8*%
X135853064Y-87231674D03*
X117696994Y-95713194D03*
%TO.N,IO_L18_34_TX_D7*%
X132653074Y-87231674D03*
X118496984Y-90113204D03*
%TO.N,IO_L19_34_TX_D8*%
X118496984Y-90913204D03*
X131853074Y-89631674D03*
%TO.N,IO_L20_34_TX_D10*%
X131053074Y-89631674D03*
X118496984Y-91713204D03*
%TO.N,IO_L07_34_RX_FRAME*%
X132653074Y-85631684D03*
X118496984Y-93313194D03*
%TO.N,IO_L06_34_RX_D11*%
X118496984Y-94113194D03*
X134253064Y-89631674D03*
%TO.N,IO_L05_34_RX_D9*%
X135053064Y-86431674D03*
X118496984Y-94913194D03*
%TO.N,IO_L04_34_RX_D6*%
X118496984Y-95713194D03*
X136653064Y-88831674D03*
%TO.N,IO_L17_34_TX_D5*%
X119296984Y-90113204D03*
X131053074Y-85631684D03*
%TO.N,IO_L18_34_TX_D6*%
X119296984Y-90913204D03*
X132653074Y-86431674D03*
%TO.N,IO_L09_34_TX_FRAME*%
X119296984Y-93313194D03*
X132653074Y-88831674D03*
%TO.N,IO_L04_34_RX_D7*%
X119296984Y-94913194D03*
X133453064Y-88831674D03*
%TO.N,IO_L03_34_RX_D4*%
X119296984Y-95713194D03*
X135853064Y-88831674D03*
X124790194Y-96812404D03*
%TO.N,IO_L16_34_TX_D3*%
X129453074Y-87231674D03*
X120096984Y-90113204D03*
%TO.N,IO_L17_34_TX_D4*%
X129453074Y-86431674D03*
X120096984Y-90913204D03*
%TO.N,IO_L01_34_FB_CLK*%
X133453064Y-90431674D03*
X120096984Y-91713204D03*
%TO.N,IO_L03_34_RX_D5*%
X138253054Y-88831674D03*
X120096984Y-94913194D03*
%TO.N,IO_L02_34_RX_D2*%
X135053064Y-88031674D03*
X120096984Y-95713194D03*
X124790194Y-96101204D03*
%TO.N,IO_L15_34_TX_D1*%
X120896984Y-90113204D03*
X130253074Y-85631684D03*
%TO.N,IO_L16_34_TX_D2*%
X129453074Y-88031674D03*
X120896984Y-90913204D03*
%TO.N,IO_L12_MRCC_34_DATA_CLK*%
X131053074Y-88031674D03*
X120896984Y-93313194D03*
%TO.N,SDMMC_D3*%
X133453064Y-100831644D03*
X133375394Y-105194404D03*
%TO.N,IO_L02_34_RX_D3*%
X135853064Y-88031674D03*
X120896984Y-94913194D03*
%TO.N,PS_MIO05_500_QSPI0_IO3*%
X140614394Y-108556715D03*
X135479984Y-112780014D03*
%TO.N,IO_L01_34_RX_D0*%
X135053064Y-87231674D03*
X120896984Y-95713194D03*
%TO.N,SDMMC_D2*%
X131190994Y-105118204D03*
X135053064Y-97631654D03*
%TO.N,IO_L15_34_TX_D0*%
X129453074Y-88831674D03*
X121696984Y-90913204D03*
%TO.N,IO_L01_34_RX_D1*%
X121696984Y-94913194D03*
X134253064Y-88831674D03*
%TO.N,PS_MIO33_501_USB0_D1*%
X133453064Y-99231654D03*
X171576994Y-83502804D03*
%TO.N,PS_MIO34_501_USB0_D2*%
X135853064Y-101631644D03*
X173880014Y-80900014D03*
%TO.N,PS_MIO35_501_USB0_D3*%
X173989994Y-82232804D03*
X135853064Y-97631654D03*
X165709594Y-99403204D03*
%TO.N,PS_MIO28_501_USB0_D4*%
X130047994Y-103594204D03*
X173761394Y-83248804D03*
D19*
X174810000Y-99010000D03*
D20*
X132653074Y-100031654D03*
%TO.N,PS_MIO37_501_USB0_D5*%
X174320194Y-86271404D03*
X138253054Y-101631644D03*
%TO.N,PS_MIO38_501_USB0_D6*%
X135053064Y-98431654D03*
X171627794Y-87185804D03*
%TO.N,PS_MIO39_501_USB0_D7*%
X131053074Y-100031654D03*
D19*
X177480000Y-98460000D03*
D20*
X177495194Y-85001404D03*
%TO.N,PS_MIO30_501_USB0_STP*%
X133453064Y-100031654D03*
X176830024Y-76480004D03*
%TO.N,PS_MIO29_501_USB0_DIR*%
X174751994Y-76492404D03*
X135053064Y-100031654D03*
%TO.N,/Sheet3/PS-DDR-BA1*%
X143053044Y-89631674D03*
X156940804Y-89542214D03*
%TO.N,/Sheet3/PS-DDR-CAS*%
X142253054Y-90431674D03*
X160940794Y-91942204D03*
%TO.N,/Sheet3/PS-DDR-RAS*%
X143053044Y-90431674D03*
X160940794Y-92742204D03*
%TO.N,/Sheet3/PS-DDR-ODT*%
X142253054Y-91231664D03*
X163340794Y-91942204D03*
%TO.N,/Sheet3/PS-DDR-CKE*%
X143853044Y-91231664D03*
X156140804Y-91942204D03*
%TO.N,/Sheet3/PS-DDR-A0*%
X144653044Y-91231664D03*
X160940794Y-89542214D03*
%TO.N,/Sheet3/PS-DDR-CS*%
X162540794Y-91142214D03*
X145453044Y-91231664D03*
%TO.N,/Sheet3/PS-DDR-WE*%
X142253054Y-92031664D03*
X160940794Y-91142214D03*
%TO.N,/Sheet3/PS-DDR-A4*%
X143053044Y-92031664D03*
X156940804Y-88742214D03*
%TO.N,/Sheet3/PS-DDR-A2*%
X160940794Y-88742214D03*
X143853044Y-92031664D03*
%TO.N,/Sheet3/PS-DDR-BA0*%
X142253054Y-92831664D03*
X162540794Y-90342214D03*
%TO.N,/Sheet3/PS-DDR-A6*%
X143053044Y-92831664D03*
X156940804Y-87942214D03*
%TO.N,/Sheet3/PS-DDR-A5*%
X162540794Y-88742214D03*
X145453044Y-92831664D03*
%TO.N,/Sheet3/PS-DDR-A7*%
X162540794Y-87942214D03*
X143053044Y-94431664D03*
%TO.N,/Sheet3/PS-DDR-A3*%
X143853044Y-94431664D03*
X162540794Y-89542214D03*
%TO.N,/Sheet3/PS-DDR-A1*%
X144653044Y-94431664D03*
X158540804Y-88742214D03*
%TO.N,/Sheet3/PS-DDR-A8*%
X156940804Y-87142214D03*
X145453044Y-94431664D03*
%TO.N,/Sheet3/PS-DDR-BA2*%
X142253054Y-95231664D03*
X160940794Y-90342214D03*
%TO.N,/Sheet3/PS-DDR-A9*%
X160940794Y-87942214D03*
X143053044Y-95231664D03*
%TO.N,/Sheet3/DDR-DQ12*%
X143853044Y-95231664D03*
X158540804Y-99942194D03*
%TO.N,/Sheet3/DDR-DQ15*%
X145453044Y-95231664D03*
X160940794Y-99942194D03*
%TO.N,/Sheet3/DDR-DQ11*%
X143853044Y-96031654D03*
X162540794Y-98342194D03*
%TO.N,/Sheet3/DDR-DQ13*%
X162540794Y-99942194D03*
X144653044Y-96031654D03*
%TO.N,/Sheet3/DDR-DQ14*%
X156940804Y-99142194D03*
X145453044Y-96031654D03*
%TO.N,/Sheet3/PS-DDR-A11*%
X158540804Y-87942214D03*
X143053044Y-96831654D03*
%TO.N,/Sheet3/DDR-DQ10*%
X143853044Y-96831654D03*
X156940804Y-98342194D03*
%TO.N,/Sheet3/DDR-LDQS_N*%
X160940794Y-95142204D03*
X144653044Y-100831644D03*
%TO.N,/Sheet3/PS-DDR-A10*%
X142253054Y-97631654D03*
X158540804Y-91142214D03*
%TO.N,/Sheet3/PS-DDR-A14*%
X158540804Y-87142214D03*
X143053044Y-97631654D03*
%TO.N,/Sheet3/DDR-LDQS_P*%
X160940794Y-95942204D03*
X144653044Y-100031654D03*
%TO.N,/Sheet3/DDR-UDM*%
X145453044Y-97631654D03*
X160940794Y-97542194D03*
%TO.N,SDMMC_D0*%
X135853064Y-98431654D03*
X135399974Y-104139994D03*
%TO.N,/Sheet3/PS-DDR-A12*%
X143053044Y-98431654D03*
X158540804Y-89542214D03*
%TO.N,/Sheet3/DDR-DQ9*%
X160940794Y-98342194D03*
X143853044Y-98431654D03*
%TO.N,/Sheet3/DDR-DQ8*%
X144653044Y-98431654D03*
X158540804Y-97542194D03*
%TO.N,/Sheet3/DDR-DQ7*%
X145453044Y-98431654D03*
X158540804Y-94342204D03*
%TO.N,SDMMC_CLK*%
X134253064Y-99231654D03*
X134959320Y-102690503D03*
%TO.N,/Sheet3/PS-DDR-A13*%
X160940794Y-87142214D03*
X143053044Y-99231654D03*
%TO.N,/Sheet3/DDR-DQ4*%
X160731194Y-93942204D03*
X143853044Y-99231654D03*
%TO.N,/Sheet3/DDR-DQ5*%
X156940804Y-94342204D03*
X145453044Y-99231654D03*
%TO.N,SDMMC_CMD*%
X131853074Y-100031654D03*
X133349994Y-104254604D03*
%TO.N,/Sheet3/DDR-DQ0*%
X160940794Y-96742194D03*
X143853044Y-100031654D03*
%TO.N,/Sheet3/DDR-UDQS_N*%
X158540804Y-99142194D03*
X144653044Y-97631654D03*
%TO.N,/Sheet3/DDR-DQ6*%
X145453044Y-100031654D03*
X162540794Y-95142204D03*
%TO.N,/Sheet3/DDR-DQ1*%
X158540804Y-95942204D03*
X143853044Y-100831644D03*
%TO.N,/Sheet3/DDR-UDQS_P*%
X158540804Y-98342194D03*
X144653044Y-96831654D03*
%TO.N,/Sheet3/DDR-DQ3*%
X156940804Y-95942204D03*
X143053044Y-101631644D03*
%TO.N,/Sheet3/DDR-DQ2*%
X144653044Y-101631644D03*
X162540794Y-95942204D03*
%TO.N,/Sheet3/DDR-LDM*%
X158580000Y-96720000D03*
X145453044Y-101631644D03*
%TO.N,GND*%
X119439994Y-114130000D03*
X109173368Y-109289336D03*
X132166554Y-117198804D03*
X111359994Y-113380014D03*
X132653074Y-88031674D03*
X174862307Y-90363067D03*
X112097004Y-88513204D03*
X100478905Y-103494996D03*
X130844894Y-117198804D03*
D19*
X113320000Y-108370000D03*
D20*
X128553764Y-106626864D03*
X119620544Y-102532414D03*
X137482824Y-117320824D03*
X120896984Y-91713204D03*
X104230867Y-89407674D03*
X135053064Y-94431664D03*
X156140804Y-99942194D03*
X111909099Y-109269464D03*
X100509936Y-109877799D03*
X129453074Y-98431654D03*
X132154874Y-113877144D03*
X126579984Y-105110024D03*
X105437005Y-108304054D03*
X102724608Y-78794265D03*
X113920000Y-78870000D03*
D22*
X181102000Y-105918000D03*
D20*
X102358045Y-109291571D03*
X130820004Y-115549984D03*
X154550004Y-135970635D03*
X136653064Y-92031664D03*
X176426104Y-79394714D03*
X143853044Y-88831674D03*
X106260000Y-78830000D03*
X108860000Y-77780000D03*
X112897004Y-92513204D03*
X139853054Y-95231664D03*
X109653573Y-78841151D03*
X177869134Y-79376014D03*
X114555994Y-76546004D03*
X107970000Y-107360000D03*
X105105726Y-90560986D03*
X131053074Y-101631644D03*
X163340794Y-88742214D03*
X102542220Y-90541113D03*
X169951394Y-80277004D03*
X111505994Y-93688204D03*
X112644369Y-109269464D03*
X130253074Y-87231674D03*
X125510000Y-114320000D03*
X162540794Y-96742194D03*
X106088576Y-83599862D03*
X111040000Y-109280000D03*
X156940804Y-95142204D03*
X145453044Y-92031664D03*
X102541735Y-89394425D03*
X163658294Y-79610664D03*
X114540534Y-102532384D03*
X139853054Y-101631644D03*
X121696984Y-88513204D03*
X121696984Y-95713194D03*
X112097004Y-89313204D03*
X152668728Y-108636847D03*
X171094394Y-75171604D03*
X103356977Y-90531177D03*
X106640000Y-109280000D03*
X140653054Y-97631654D03*
X114496994Y-87713214D03*
D22*
X141478000Y-137414000D03*
D20*
X144449794Y-84264804D03*
X143853044Y-97631654D03*
X126150000Y-98340000D03*
X101692328Y-109768502D03*
X120896984Y-89313204D03*
D19*
X113930000Y-108340000D03*
D20*
X121696984Y-87713214D03*
X102740000Y-77840000D03*
X177777644Y-80686244D03*
X100508713Y-106237351D03*
X105444873Y-78830512D03*
X107620000Y-80910000D03*
X149402794Y-100031654D03*
X154016884Y-97542194D03*
X133453064Y-94431664D03*
X106058767Y-82655935D03*
X163637514Y-80729984D03*
X107165881Y-108333862D03*
X100490063Y-110742237D03*
X149705154Y-80015434D03*
X117696994Y-96513194D03*
X105480000Y-77830000D03*
X122707394Y-98184004D03*
X179062174Y-81956904D03*
X101519872Y-104130051D03*
X120896984Y-96513194D03*
X177721004Y-81956904D03*
X110786104Y-90970414D03*
X120096984Y-96513194D03*
X148719994Y-105539994D03*
D19*
X109510000Y-107180000D03*
D20*
X162729564Y-80747314D03*
X174684864Y-91402204D03*
X117429984Y-101309984D03*
X139853054Y-91231664D03*
X106098849Y-88261713D03*
X147615960Y-59899971D03*
X139053054Y-87231674D03*
X129499864Y-113888824D03*
X112097004Y-94113194D03*
X167724604Y-92641414D03*
X107131679Y-88268175D03*
D22*
X178308000Y-105410000D03*
D20*
X176442264Y-80662574D03*
X127485494Y-108545024D03*
X155490004Y-83679994D03*
X106149013Y-90481497D03*
X113960000Y-84590000D03*
X145453044Y-100831644D03*
X100478905Y-107141534D03*
X116096994Y-94113194D03*
X162540794Y-92742204D03*
X149701244Y-78862884D03*
X131853074Y-90431674D03*
X108338738Y-109289336D03*
X156440014Y-78729994D03*
X102833754Y-108313990D03*
X112897004Y-94113194D03*
X115296994Y-87713214D03*
X163409984Y-77750004D03*
X156140804Y-95142204D03*
X101533248Y-105740725D03*
X104542758Y-108323926D03*
X150288954Y-94453044D03*
X180720994Y-76441604D03*
X103767896Y-78809169D03*
X113696994Y-94113194D03*
X182956194Y-77965604D03*
X176606194Y-95059804D03*
X131853074Y-99231654D03*
X179077764Y-80631384D03*
X101555328Y-106584187D03*
X104993594Y-109276088D03*
X116096994Y-87713214D03*
X115296994Y-94113194D03*
X117830594Y-85534804D03*
X100985645Y-107946356D03*
X136653064Y-100831644D03*
X106270000Y-77820000D03*
X106099616Y-84562876D03*
D19*
X113310000Y-109290000D03*
D20*
X128530344Y-108576214D03*
X101612839Y-111586803D03*
X182473594Y-84823604D03*
X133453064Y-85631684D03*
X107740000Y-82180000D03*
X130903364Y-113888824D03*
X104710000Y-77810000D03*
X134253064Y-100031654D03*
X100519872Y-111576867D03*
X169824394Y-97117204D03*
X156940804Y-92742204D03*
X156140804Y-90342214D03*
D19*
X109460000Y-107860000D03*
D20*
X100837826Y-109023297D03*
X110482120Y-78870000D03*
X117696994Y-89313204D03*
X138253054Y-96831654D03*
X144828003Y-104778003D03*
X120096984Y-94113194D03*
X104211480Y-90551049D03*
X108020000Y-77800000D03*
X137750000Y-108960000D03*
X168960794Y-79057804D03*
X130253074Y-96031654D03*
X107111807Y-83518733D03*
X174381050Y-71288540D03*
X140736400Y-123123069D03*
X137770000Y-123990000D03*
X107091935Y-84502404D03*
X135610000Y-123350000D03*
X135853064Y-96831654D03*
X107129570Y-87302678D03*
D22*
X181356000Y-110236000D03*
D20*
X136653064Y-96031654D03*
X111277394Y-98412604D03*
X150977574Y-88990784D03*
X171576994Y-84722004D03*
X113696994Y-96513194D03*
X156879994Y-84520024D03*
X121029974Y-100890014D03*
X129489394Y-106626864D03*
X115296994Y-97313194D03*
X111277005Y-78876624D03*
X143053044Y-91231664D03*
X127555694Y-106642454D03*
X121696984Y-90113204D03*
X107172429Y-89199744D03*
X124913306Y-92790452D03*
X143535394Y-78092604D03*
X109372394Y-97218804D03*
X106950000Y-81190000D03*
X117696994Y-91713204D03*
X161772594Y-101079604D03*
X102860000Y-107360000D03*
X144653044Y-86431674D03*
X106172274Y-108313990D03*
X105072121Y-89381177D03*
X127049984Y-117419984D03*
X118496984Y-96513194D03*
X100468969Y-104468731D03*
X138253054Y-91231664D03*
X144653044Y-95231664D03*
X141630394Y-84239404D03*
X121696984Y-93313194D03*
X101770594Y-108274246D03*
X169417994Y-94932804D03*
X175767994Y-94882004D03*
X119296984Y-94113194D03*
X114496994Y-97313194D03*
X137452804Y-116100804D03*
X114734758Y-78876624D03*
X129488174Y-117140274D03*
D19*
X113830000Y-109290000D03*
D20*
X163340794Y-87142214D03*
D22*
X183642000Y-106172000D03*
D20*
X176437844Y-81932724D03*
X108832732Y-78823632D03*
X112177876Y-78883248D03*
X135853064Y-89631674D03*
X127860000Y-123040000D03*
X147980394Y-96456804D03*
X135853064Y-95231664D03*
X108260000Y-80940000D03*
X113699994Y-110710014D03*
X110742867Y-108363671D03*
X104290000Y-109280000D03*
X105900127Y-89182456D03*
X163340794Y-96742194D03*
X142253054Y-85631684D03*
X104505237Y-107360256D03*
X113905242Y-77783376D03*
D19*
X112710000Y-108330000D03*
D20*
X116096994Y-97313194D03*
X129504994Y-107585964D03*
X111262247Y-77790000D03*
X156940804Y-97542194D03*
X143128994Y-84264804D03*
X108815269Y-108323926D03*
X156140804Y-88742214D03*
X103730000Y-107360015D03*
X138253054Y-98431654D03*
X101528832Y-104950255D03*
X163340794Y-90342214D03*
D22*
X183642000Y-108458000D03*
D20*
X107460000Y-109270000D03*
X164209974Y-74309984D03*
X135053064Y-88831674D03*
X139853054Y-89631674D03*
X106217538Y-107359023D03*
X134253064Y-92031664D03*
X107160000Y-77810000D03*
X129481624Y-108506004D03*
D19*
X112090000Y-108320000D03*
D22*
X151130000Y-122936000D03*
D20*
X163340794Y-95142204D03*
X129453074Y-89631674D03*
X139053054Y-90431674D03*
X135053064Y-96031654D03*
D19*
X108500000Y-107180000D03*
D20*
X163340794Y-97542194D03*
X135853064Y-86431674D03*
X150875994Y-99254054D03*
X103369741Y-89394425D03*
X186816994Y-92494404D03*
X119296984Y-91713204D03*
D22*
X145288000Y-134620000D03*
D20*
X115780004Y-100880014D03*
X106129424Y-87305232D03*
X156940804Y-96742194D03*
X163340794Y-99142194D03*
X106099616Y-86410986D03*
X136245594Y-104711804D03*
X107950831Y-108313990D03*
X148786384Y-78862884D03*
X103750000Y-77840000D03*
X107131679Y-82544998D03*
X107130000Y-107360000D03*
X109545994Y-76486014D03*
X176529994Y-96075804D03*
X119296984Y-96513194D03*
X106480000Y-81630000D03*
X121696984Y-96513194D03*
X179577994Y-88938404D03*
X110467362Y-77783376D03*
X109710000Y-77810000D03*
X162764214Y-79614114D03*
X106099616Y-85486931D03*
X156140804Y-99142194D03*
X141604994Y-83299604D03*
X127532274Y-107585964D03*
X142138394Y-102629004D03*
X176750014Y-73620024D03*
X112897004Y-89313204D03*
X118630000Y-118210000D03*
X156140804Y-87142214D03*
X124920000Y-93738594D03*
X151815794Y-76695604D03*
X107180000Y-78830256D03*
X112097004Y-96513194D03*
X128498594Y-107594394D03*
X136653064Y-90431674D03*
X104649987Y-78797392D03*
X114496994Y-89313204D03*
X106844538Y-89984693D03*
X108011350Y-78830256D03*
X129429704Y-115561364D03*
X136653064Y-94431664D03*
X141453054Y-92031664D03*
X170103794Y-78702204D03*
X114720000Y-77790000D03*
X166450004Y-73519994D03*
X100468969Y-105333169D03*
X115610690Y-77854533D03*
X176940004Y-72519994D03*
X101952771Y-107233344D03*
X132201664Y-115584734D03*
X117696994Y-94113194D03*
X131053074Y-92831664D03*
X184450024Y-80919984D03*
X163201394Y-80184044D03*
X142120004Y-107230014D03*
X186308994Y-100491214D03*
X112897004Y-96513194D03*
X139053054Y-100031654D03*
X140653054Y-94431664D03*
X141453054Y-88031674D03*
X113057364Y-77790000D03*
X160940794Y-99142194D03*
X115188994Y-114236804D03*
X109779068Y-108304054D03*
X133790000Y-123960000D03*
X105387324Y-107350191D03*
X119760994Y-84645804D03*
D19*
X111450000Y-108320000D03*
D20*
X110030000Y-109300000D03*
X112897004Y-88513204D03*
X120096984Y-93313194D03*
X113072122Y-78876624D03*
X143053044Y-100031654D03*
X179069994Y-79389984D03*
D22*
X181356000Y-104140000D03*
D20*
X107101871Y-85446331D03*
X113696994Y-91713204D03*
X112163118Y-77796624D03*
X149227124Y-79453074D03*
X135053064Y-92031664D03*
X103767745Y-108313990D03*
X156140804Y-95942204D03*
X148746104Y-79992014D03*
X101510000Y-103300000D03*
X101612839Y-110603132D03*
X142253054Y-94431664D03*
X139853054Y-92831664D03*
X107131679Y-86430002D03*
X128049984Y-111630004D03*
X121234194Y-86627004D03*
X162869974Y-83189974D03*
X105840000Y-109280000D03*
X111328194Y-95821804D03*
X158640014Y-77160014D03*
X135053064Y-90431674D03*
X121696984Y-89313204D03*
%TO.N,Net-(C14-Pad1)*%
X180063644Y-86884614D03*
X178435554Y-97353174D03*
X180392014Y-86370004D03*
X178377384Y-96710494D03*
X179750004Y-86370004D03*
X178989984Y-96798684D03*
%TO.N,Net-(U13-VDD33)*%
X181010804Y-80916674D03*
%TO.N,Net-(U14G-PS_DDR_VRP_502)*%
X142253054Y-96031654D03*
%TO.N,Net-(U14G-PS_DDR_VRN_502)*%
X142253054Y-96831654D03*
%TO.N,Net-(U18-ZQ0)*%
X156940804Y-91142214D03*
%TO.N,Net-(U12-RBIAS)*%
X114496994Y-96513194D03*
%TO.N,Net-(U14H-PS_CLK_500)*%
X140653054Y-98431654D03*
X139609974Y-104539994D03*
%TO.N,Net-(U14H-PS_MIO14_500)*%
X142253054Y-100031654D03*
%TO.N,Net-(U14H-PS_MIO7_500)*%
X139853054Y-99231654D03*
X143255994Y-104559404D03*
%TO.N,Net-(U14H-PS_MIO8_500)*%
X142253054Y-99231654D03*
%TO.N,Net-(U14I-PS_MIO_VREF_501)*%
X127888994Y-97066404D03*
X136653064Y-98431654D03*
%TO.N,Net-(U14I-PS_SRST_B_501)*%
X138250014Y-103399994D03*
X138253054Y-100831644D03*
D19*
%TO.N,SDA-1*%
X124850000Y-118250000D03*
X123272509Y-118110503D03*
%TO.N,SCLK-1*%
X125140000Y-119000000D03*
X123000222Y-118560222D03*
%TO.N,SD0-1*%
X123480000Y-123360000D03*
X125580000Y-123430000D03*
%TO.N,BNO_boot*%
X133480514Y-96010000D03*
X123420000Y-82040000D03*
%TO.N,EXTSYN*%
X129390174Y-97560778D03*
X122869526Y-85922799D03*
D21*
%TO.N,BNO_RESET*%
X131078126Y-96001436D03*
D19*
X127290000Y-82550000D03*
D22*
%TO.N,H-INT*%
X127930000Y-82470000D03*
D19*
X128888710Y-97915878D03*
D20*
%TO.N,+5VD*%
X172770794Y-73876204D03*
%TO.N,+5VP*%
X149788981Y-59732790D03*
X149306380Y-60443990D03*
X178511194Y-90437004D03*
X184496604Y-80004614D03*
X178561994Y-86779404D03*
D19*
%TO.N,H_TX*%
X128270000Y-79490000D03*
X134230000Y-94440000D03*
%TO.N,H_RX*%
X128110000Y-81330000D03*
X128660394Y-94828015D03*
%TO.N,CAM1*%
X131870000Y-101640000D03*
%TO.N,CAM2*%
X132680000Y-101620000D03*
%TO.N,CAM5*%
X131110000Y-100780000D03*
%TO.N,CAM7*%
X135090000Y-100830000D03*
%TO.N,CAM0*%
X130060000Y-101780000D03*
%TO.N,CAM3*%
X133460000Y-101610000D03*
%TO.N,CAM6*%
X131837035Y-100796687D03*
%TO.N,CAM4*%
X135082962Y-99252547D03*
D20*
%TO.N,Net-(U14C-INIT_B_0)*%
X138253054Y-89631674D03*
%TO.N,Net-(U14C-PROGRAM_B_0)*%
X141453054Y-92831664D03*
%TO.N,Net-(U14C-VP_0)*%
X139053054Y-94431664D03*
%TD*%
D23*
%TO.N,+5VA*%
X143916394Y-76644824D02*
X145274824Y-76644824D01*
X146518824Y-81978824D02*
X148361394Y-81978824D01*
D24*
X172720000Y-106540000D02*
X178780000Y-100480000D01*
X172720000Y-108966000D02*
X172720000Y-106540000D01*
D23*
X145872194Y-81332194D02*
X146518824Y-81978824D01*
X145274824Y-76644824D02*
X145872194Y-77242194D01*
X145872194Y-77242194D02*
X145872194Y-81332194D01*
%TO.N,+1V5*%
X157143304Y-75000314D02*
X162630284Y-75000314D01*
X155828994Y-76314624D02*
X157143304Y-75000314D01*
%TO.N,/Sheet1/TPP*%
X161823394Y-78016424D02*
X162331394Y-78524424D01*
X162331394Y-78524424D02*
X165044394Y-78524424D01*
X165729994Y-79210024D02*
X165784984Y-79210024D01*
X165044394Y-78524424D02*
X165729994Y-79210024D01*
X151129994Y-78016424D02*
X161823394Y-78016424D01*
%TO.N,IO_L15P_T2*%
X135451214Y-91870474D02*
X135691854Y-91629834D01*
X132670000Y-79812112D02*
X132670000Y-64960000D01*
X135214274Y-92433544D02*
X135451214Y-92196594D01*
X132163362Y-94995054D02*
X132297164Y-94995054D01*
X132670000Y-64960000D02*
X133700000Y-63930000D01*
X137503324Y-84645436D02*
X132670000Y-79812112D01*
X137051204Y-91396604D02*
X137051204Y-90916304D01*
X135451214Y-92196594D02*
X135451214Y-91870474D01*
X135691854Y-91629834D02*
X136817974Y-91629834D01*
X132239789Y-95644959D02*
X132239789Y-95071481D01*
X137503324Y-90464184D02*
X137503324Y-84645436D01*
X130253074Y-97631674D02*
X132239789Y-95644959D01*
X134858674Y-92433544D02*
X135214274Y-92433544D01*
X132239789Y-95071481D02*
X132163362Y-94995054D01*
X137051204Y-90916304D02*
X137503324Y-90464184D01*
X136817974Y-91629834D02*
X137051204Y-91396604D01*
X132297164Y-94995054D02*
X134858674Y-92433544D01*
%TO.N,IO_L4N_TO_35*%
X137729384Y-79549384D02*
X136778994Y-78598994D01*
X138107054Y-68337054D02*
X136240000Y-66470000D01*
X131217984Y-98029824D02*
X131673594Y-97574214D01*
X137299584Y-91211834D02*
X137729384Y-90782034D01*
X136778994Y-75908224D02*
X138107054Y-74580164D01*
X129935444Y-98833524D02*
X130414284Y-98833524D01*
X136778994Y-78598994D02*
X136778994Y-75908224D01*
X138107054Y-74580164D02*
X138107054Y-68337054D01*
X131673594Y-97574214D02*
X131673594Y-96758032D01*
X133613247Y-94044949D02*
X133613247Y-93982503D01*
X133839779Y-94591847D02*
X133839779Y-94271481D01*
X131673594Y-96758032D02*
X133839779Y-94591847D01*
X130414284Y-98833524D02*
X130654924Y-98592884D01*
X133613247Y-93982503D02*
X134161526Y-93434224D01*
X130654924Y-98592884D02*
X130654924Y-98266754D01*
X129537304Y-99231674D02*
X129935444Y-98833524D01*
X129453074Y-99231674D02*
X129537304Y-99231674D01*
X130891864Y-98029824D02*
X131217984Y-98029824D01*
X137299584Y-92024634D02*
X137299584Y-91211834D01*
X134161526Y-93434224D02*
X135889994Y-93434224D01*
X133839779Y-94271481D02*
X133613247Y-94044949D01*
X137729384Y-90782034D02*
X137729384Y-79549384D01*
X130654924Y-98266754D02*
X130891864Y-98029824D01*
X135889994Y-93434224D02*
X137299584Y-92024634D01*
%TO.N,IO_L4P_TO_35*%
X130253074Y-99231674D02*
X130337304Y-99231674D01*
X130337304Y-99231674D02*
X130735444Y-98833524D01*
X139445994Y-85534824D02*
X139445994Y-69030814D01*
X134666349Y-94271481D02*
X135173406Y-93764424D01*
X131454924Y-98592884D02*
X131454924Y-98266754D01*
X137771885Y-67356715D02*
X137771885Y-65461885D01*
X139445994Y-69030814D02*
X138107054Y-67691884D01*
X132024724Y-97696954D02*
X132024724Y-96954813D01*
X138651204Y-86329614D02*
X139445994Y-85534824D01*
X135957264Y-93764424D02*
X137591794Y-92129894D01*
X130735444Y-98833524D02*
X131214274Y-98833524D01*
X132024724Y-96954813D02*
X133330852Y-95648685D01*
X135173406Y-93764424D02*
X135957264Y-93764424D01*
X137591794Y-92129894D02*
X137591794Y-91329894D01*
X131454924Y-98266754D02*
X132024724Y-97696954D01*
X131214274Y-98833524D02*
X131454924Y-98592884D01*
X138651204Y-90596604D02*
X138651204Y-86329614D01*
X138089994Y-90831694D02*
X138416114Y-90831694D01*
X138416114Y-90831694D02*
X138651204Y-90596604D01*
X138107054Y-67691884D02*
X137771885Y-67356715D01*
X133661315Y-95648685D02*
X134666349Y-94643651D01*
X137771885Y-65461885D02*
X136240000Y-63930000D01*
X134666349Y-94643651D02*
X134666349Y-94271481D01*
X133330852Y-95648685D02*
X133661315Y-95648685D01*
X137591794Y-91329894D02*
X138089994Y-90831694D01*
%TO.N,PS_MIO07_500_USB_RESET_B*%
X144868115Y-62921885D02*
X143860000Y-63930000D01*
X169868255Y-62921885D02*
X144868115Y-62921885D01*
X177969974Y-71023604D02*
X169868255Y-62921885D01*
X177969974Y-76490034D02*
X177969974Y-71023604D01*
%TO.N,PS_MI09*%
X141053054Y-98594734D02*
X141053054Y-98268614D01*
X139688144Y-97229824D02*
X138654914Y-96196594D01*
X141854904Y-99070464D02*
X141615184Y-98830744D01*
X139451204Y-89792894D02*
X139451204Y-87917214D01*
X139928594Y-87439824D02*
X139928594Y-83807624D01*
X142253054Y-100831664D02*
X142253054Y-100747444D01*
X141053054Y-98268614D02*
X140817964Y-98033524D01*
X139451204Y-87917214D02*
X139928594Y-87439824D01*
X139454914Y-93421624D02*
X139454914Y-89796604D01*
X141854904Y-100349294D02*
X141854904Y-99070464D01*
X140491844Y-98033524D02*
X140251204Y-97792884D01*
X140251204Y-97792884D02*
X140251204Y-97466764D01*
X140817964Y-98033524D02*
X140491844Y-98033524D01*
X145391885Y-64938115D02*
X146400000Y-63930000D01*
X139928594Y-83807624D02*
X141439894Y-82296324D01*
X141439894Y-77114724D02*
X145391885Y-73162733D01*
X140014264Y-97229824D02*
X139688144Y-97229824D01*
X138654914Y-96196594D02*
X138654914Y-94221624D01*
X139454914Y-89796604D02*
X139451204Y-89792894D01*
X141615184Y-98830744D02*
X141289064Y-98830744D01*
X141289064Y-98830744D02*
X141053054Y-98594734D01*
X138654914Y-94221624D02*
X139454914Y-93421624D01*
X141439894Y-82296324D02*
X141439894Y-77114724D01*
X140251204Y-97466764D02*
X140014264Y-97229824D01*
X145391885Y-73162733D02*
X145391885Y-64938115D01*
X142253054Y-100747444D02*
X141854904Y-100349294D01*
%TO.N,PS_MI011*%
X141054904Y-99549294D02*
X141453054Y-99947444D01*
X134651214Y-95870474D02*
X134888154Y-95633534D01*
X133218324Y-97066424D02*
X133781384Y-97066424D01*
X141054904Y-99549294D02*
X141054904Y-99070464D01*
X134651214Y-96196594D02*
X134651214Y-95870474D01*
X134888154Y-95633534D02*
X136890004Y-95633534D01*
X139689524Y-98031204D02*
X140015644Y-98031204D01*
X136890004Y-95633534D02*
X137689994Y-96433534D01*
X141453054Y-100031674D02*
X141453054Y-99947444D01*
X133781384Y-97066424D02*
X134651214Y-96196594D01*
X138417974Y-96433534D02*
X139451204Y-97466764D01*
X139451204Y-97792884D02*
X139689524Y-98031204D01*
X140253974Y-98595654D02*
X140489994Y-98831674D01*
X140489994Y-98831674D02*
X140816114Y-98831674D01*
X137689994Y-96433534D02*
X138417974Y-96433534D01*
X139451204Y-97792884D02*
X139451204Y-97466764D01*
X140816114Y-98831674D02*
X141054904Y-99070464D01*
X132653074Y-97631674D02*
X133218324Y-97066424D01*
X140253974Y-98595654D02*
X140253974Y-98269534D01*
X140015644Y-98031204D02*
X140253974Y-98269534D01*
%TO.N,DONE*%
X135451214Y-88192904D02*
X135690004Y-88431694D01*
X135451214Y-84562634D02*
X135451214Y-88192904D01*
X107515974Y-76486014D02*
X111441988Y-72560000D01*
X127244224Y-82004224D02*
X132892794Y-82004224D01*
X117800000Y-72560000D02*
X127244224Y-82004224D01*
X135690004Y-88431694D02*
X136016124Y-88431694D01*
X136254914Y-88670484D02*
X136254914Y-89233544D01*
X111441988Y-72560000D02*
X117800000Y-72560000D01*
X132892794Y-82004224D02*
X135451214Y-84562634D01*
X136016124Y-88431694D02*
X136254914Y-88670484D01*
X136254914Y-89233544D02*
X136653064Y-89631694D01*
%TO.N,/Sheet3/DDR-RESET*%
X143053044Y-100907484D02*
X143454904Y-101309334D01*
X168554394Y-99504824D02*
X168554394Y-89725824D01*
X149783794Y-103340224D02*
X155748974Y-103340224D01*
X156724844Y-102364354D02*
X160132264Y-102364354D01*
X143454904Y-102319934D02*
X143454904Y-101309334D01*
X143454904Y-102319934D02*
X145440394Y-104305424D01*
X163677594Y-100368424D02*
X167690794Y-100368424D01*
X145440394Y-104305424D02*
X148818594Y-104305424D01*
X160132264Y-102364354D02*
X160400994Y-102095624D01*
X161950394Y-102095624D02*
X163677594Y-100368424D01*
X168554394Y-89725824D02*
X166372664Y-87544094D01*
X166372664Y-87544094D02*
X162942644Y-87544094D01*
X143053044Y-100907484D02*
X143053044Y-100831664D01*
X155748974Y-103340224D02*
X156724844Y-102364354D01*
X160400994Y-102095624D02*
X161950394Y-102095624D01*
X167690794Y-100368424D02*
X168554394Y-99504824D01*
X162942644Y-87544094D02*
X162540794Y-87142234D01*
X148818594Y-104305424D02*
X149783794Y-103340224D01*
%TO.N,IO_L08_34_CTRL_OUT0*%
X128803394Y-83452024D02*
X132636454Y-83452024D01*
X116295264Y-89711374D02*
X116560214Y-89446424D01*
X118694194Y-84671224D02*
X120268994Y-83096424D01*
X116560214Y-87795804D02*
X118694194Y-85661824D01*
X114496994Y-90113224D02*
X114497004Y-90113224D01*
X132636454Y-83452024D02*
X134651214Y-85466784D01*
X114497004Y-90113224D02*
X114898854Y-89711374D01*
X120268994Y-83096424D02*
X128447794Y-83096424D01*
X128447794Y-83096424D02*
X128803394Y-83452024D01*
X118694194Y-85661824D02*
X118694194Y-84671224D01*
X114898854Y-89711374D02*
X116295264Y-89711374D01*
X116560214Y-89446424D02*
X116560214Y-87795804D01*
X134651214Y-86033554D02*
X134651214Y-85466784D01*
X134253064Y-86431694D02*
X134651214Y-86033554D01*
%TO.N,IO_L08_34_CTRL_OUT1*%
X133648194Y-85026824D02*
X134253064Y-85631704D01*
X121234194Y-83883824D02*
X132505194Y-83883824D01*
X114573804Y-90913224D02*
X114975664Y-90511374D01*
X114975664Y-90511374D02*
X116410044Y-90511374D01*
X119735594Y-85382424D02*
X121234194Y-83883824D01*
X116814254Y-90107164D02*
X116814254Y-87951984D01*
X119383814Y-85382424D02*
X119735594Y-85382424D01*
X114496994Y-90913224D02*
X114573804Y-90913224D01*
X116814254Y-87951984D02*
X119383814Y-85382424D01*
X116410044Y-90511374D02*
X116814254Y-90107164D01*
X132505194Y-83883824D02*
X133648194Y-85026824D01*
%TO.N,IO_L24_35_SPI_DI*%
X116354934Y-95311364D02*
X116622824Y-95579254D01*
X114581224Y-94913214D02*
X114979364Y-95311364D01*
X117678194Y-98539624D02*
X117678194Y-97930024D01*
X117678194Y-98539624D02*
X119430794Y-100292224D01*
X122027644Y-100831664D02*
X129453074Y-100831664D01*
X114979364Y-95311364D02*
X116354934Y-95311364D01*
X114496994Y-94913214D02*
X114581224Y-94913214D01*
X116622824Y-96454834D02*
X117298844Y-97130854D01*
X119430794Y-100292224D02*
X121488194Y-100292224D01*
X117298844Y-97550674D02*
X117298844Y-97130854D01*
X116622824Y-96454834D02*
X116622824Y-95579254D01*
X121488194Y-100292224D02*
X122027644Y-100831664D01*
X117298844Y-97550674D02*
X117678194Y-97930024D01*
%TO.N,PS_MIO36_501_USB0_CLK*%
X174243994Y-78702224D02*
X174066194Y-78524424D01*
X136653064Y-103631194D02*
X136653064Y-101631664D01*
X161303714Y-104974964D02*
X161525074Y-104753604D01*
X136693134Y-107232524D02*
X136929894Y-107469284D01*
X168385614Y-104753604D02*
X174298149Y-98841069D01*
X138434464Y-106122544D02*
X138592294Y-106122544D01*
X136929894Y-107469284D02*
X137087724Y-107469284D01*
X138695694Y-107597534D02*
X138758284Y-107660134D01*
X137482314Y-108021704D02*
X137482314Y-107863874D01*
X137482314Y-108021704D02*
X137719074Y-108258464D01*
X136653064Y-103631194D02*
X136880594Y-103858724D01*
X137087724Y-107469284D02*
X138434464Y-106122544D01*
X140722844Y-109624694D02*
X153293594Y-109624694D01*
X136693134Y-107232524D02*
X136693134Y-107074684D01*
X136880594Y-105782434D02*
X136880594Y-103858724D01*
X175640994Y-81547024D02*
X175640994Y-79032424D01*
X175905664Y-85484024D02*
X175042064Y-84620424D01*
X174298149Y-98841069D02*
X174298149Y-89900269D01*
X138592294Y-106122544D02*
X138829054Y-106359304D01*
X138758284Y-107660134D02*
X140722844Y-109624694D01*
X137719074Y-108258464D02*
X137876914Y-108258464D01*
X138537844Y-107597534D02*
X138695684Y-107597534D01*
X173456594Y-84620424D02*
X173278794Y-84442624D01*
X136693134Y-107074684D02*
X137354064Y-106413754D01*
X137094584Y-105996434D02*
X137354064Y-106255914D01*
X153293594Y-109624694D02*
X157943324Y-104974964D01*
X175042064Y-84620424D02*
X173456594Y-84620424D01*
X157943324Y-104974964D02*
X161303714Y-104974964D01*
X173278794Y-81953424D02*
X173561164Y-81671054D01*
X161525074Y-104753604D02*
X168385614Y-104753604D01*
X138829054Y-106517134D02*
X138829054Y-106359304D01*
X175516964Y-81671054D02*
X175640994Y-81547024D01*
X175905664Y-88292754D02*
X175905664Y-85484024D01*
X174066194Y-78524424D02*
X174066194Y-77965624D01*
X137876914Y-108258464D02*
X138537844Y-107597534D01*
X174298149Y-89900269D02*
X175905664Y-88292754D01*
X137482314Y-107863874D02*
X138829054Y-106517134D01*
X138695684Y-107597534D02*
X138695694Y-107597544D01*
X173561164Y-81671054D02*
X175516964Y-81671054D01*
X175640994Y-79032424D02*
X175310794Y-78702224D01*
X136880594Y-105782434D02*
X137094584Y-105996434D01*
X175310794Y-78702224D02*
X174243994Y-78702224D01*
X173278794Y-84442624D02*
X173278794Y-81953424D01*
X137354064Y-106413754D02*
X137354064Y-106255914D01*
%TO.N,PS_MIO31_501_USB0_NXT*%
X141852354Y-101794034D02*
X141852354Y-101467914D01*
X163844724Y-100658494D02*
X167959524Y-100658494D01*
X140816114Y-100431674D02*
X141052124Y-100667684D01*
X167256944Y-86136954D02*
X167368554Y-86248564D01*
X142619344Y-104531094D02*
X143484214Y-105395964D01*
X141616574Y-101232134D02*
X141852354Y-101467914D01*
X169110224Y-86694994D02*
X169110224Y-86360164D01*
X168986194Y-95923424D02*
X169240194Y-95669424D01*
X138888144Y-98829814D02*
X139214264Y-98829814D01*
X167368554Y-86806594D02*
X168998624Y-86806594D01*
X169214794Y-83502824D02*
X170738794Y-83502824D01*
X168986194Y-93535824D02*
X169898944Y-94448574D01*
X133614274Y-98033524D02*
X133854924Y-97792884D01*
X140251204Y-100192874D02*
X140251204Y-99866754D01*
X168998624Y-86806594D02*
X169110224Y-86694994D01*
X168998624Y-86248564D02*
X169110224Y-86360164D01*
X138651204Y-98592884D02*
X138651204Y-98266754D01*
X167256944Y-85802134D02*
X167368554Y-85690524D01*
X167256944Y-87253034D02*
X167368554Y-87364634D01*
X168986194Y-84462844D02*
X168986194Y-83731424D01*
X162070154Y-102433064D02*
X163844724Y-100658494D01*
X143484214Y-105395964D02*
X144094564Y-105395964D01*
X134888154Y-96433534D02*
X136817974Y-96433534D01*
X140489994Y-100431674D02*
X140816114Y-100431674D01*
X168874584Y-84574444D02*
X168986194Y-84462844D01*
X167368554Y-85132484D02*
X168998624Y-85132484D01*
X167256944Y-87253034D02*
X167256944Y-86918204D01*
X167368554Y-85690524D02*
X168998624Y-85690524D01*
X168986194Y-93535824D02*
X168986194Y-87476244D01*
X144306264Y-105184264D02*
X146745954Y-105184264D01*
X167256944Y-85020874D02*
X167368554Y-85132484D01*
X167256944Y-86136954D02*
X167256944Y-85802134D01*
X142619344Y-104531094D02*
X142619344Y-102429804D01*
X133854924Y-97466764D02*
X134888154Y-96433534D01*
X167368554Y-86248564D02*
X168998624Y-86248564D01*
X160342514Y-102654424D02*
X160563874Y-102433064D01*
X141290454Y-101232134D02*
X141616574Y-101232134D01*
X167368554Y-84574444D02*
X168874584Y-84574444D01*
X142301454Y-102111924D02*
X142386754Y-102197224D01*
X133135444Y-98033524D02*
X133614274Y-98033524D01*
X133854924Y-97792884D02*
X133854924Y-97466764D01*
X141852354Y-101794034D02*
X142170244Y-102111924D01*
X142386754Y-102197224D02*
X142619344Y-102429804D01*
X144094564Y-105395964D02*
X144306264Y-105184264D01*
X168998624Y-85132484D02*
X169110224Y-85244094D01*
X169734104Y-95669424D02*
X169898944Y-95504584D01*
X142170244Y-102111924D02*
X142301454Y-102111924D01*
X168986194Y-99631824D02*
X168986194Y-95923424D01*
X167256944Y-84686054D02*
X167368554Y-84574444D01*
X139689074Y-99630744D02*
X140015194Y-99630744D01*
X156844994Y-102654424D02*
X160342514Y-102654424D01*
X160563874Y-102433064D02*
X162070154Y-102433064D01*
X139453054Y-99394734D02*
X139453054Y-99068614D01*
X168998624Y-85690524D02*
X169110224Y-85578914D01*
X132653074Y-98431674D02*
X132737294Y-98431674D01*
X149021794Y-104686424D02*
X150006684Y-103701534D01*
X139453054Y-99394734D02*
X139689074Y-99630744D01*
X141052124Y-100993804D02*
X141052124Y-100667684D01*
X136817974Y-96433534D02*
X138651204Y-98266754D01*
X138651204Y-98592884D02*
X138888144Y-98829814D01*
X140015194Y-99630744D02*
X140251204Y-99866754D01*
X167368554Y-87364634D02*
X168874584Y-87364634D01*
X167959524Y-100658494D02*
X168986194Y-99631824D01*
X169898944Y-95504584D02*
X169898944Y-94448574D01*
X141052124Y-100993804D02*
X141290454Y-101232134D01*
X169110224Y-85578914D02*
X169110224Y-85244094D01*
X150006684Y-103701534D02*
X155797884Y-103701534D01*
X132737294Y-98431674D02*
X133135444Y-98033524D01*
X140251204Y-100192874D02*
X140489994Y-100431674D01*
X167256944Y-85020874D02*
X167256944Y-84686054D01*
X168874584Y-87364634D02*
X168986194Y-87476244D01*
X139214264Y-98829814D02*
X139453054Y-99068614D01*
X147243794Y-104686424D02*
X149021794Y-104686424D01*
X146745954Y-105184264D02*
X147243794Y-104686424D01*
X167256944Y-86918204D02*
X167368554Y-86806594D01*
X155797884Y-103701534D02*
X156844994Y-102654424D01*
X169240194Y-95669424D02*
X169734104Y-95669424D01*
X168986194Y-83731424D02*
X169214794Y-83502824D01*
%TO.N,PS_MIO32_501_USB0_D0*%
X140842994Y-109334624D02*
X148435224Y-109334624D01*
X137244394Y-104364424D02*
X137244394Y-101504724D01*
X175615594Y-88144094D02*
X175615594Y-85814224D01*
X140080994Y-108572624D02*
X140080994Y-107201024D01*
X150220944Y-109223014D02*
X150220944Y-108503484D01*
X136253064Y-101468604D02*
X136488144Y-101233524D01*
X134253064Y-101631664D02*
X134651214Y-102029814D01*
X174853594Y-85052224D02*
X175615594Y-85814224D01*
X136017974Y-102029814D02*
X136253064Y-101794724D01*
X137244394Y-104364424D02*
X140080994Y-107201024D01*
X172973994Y-84696624D02*
X173329594Y-85052224D01*
X149551294Y-109334624D02*
X149662904Y-109223014D01*
X150778984Y-109223014D02*
X150778984Y-108503484D01*
X173216234Y-81380984D02*
X175054684Y-81380984D01*
X173837594Y-79540424D02*
X175054684Y-79540424D01*
X157823174Y-104684904D02*
X161183564Y-104684904D01*
X150109334Y-108391874D02*
X150220944Y-108503484D01*
X136488144Y-101233524D02*
X136973194Y-101233524D01*
X175158394Y-81277274D02*
X175158394Y-79644134D01*
X150890584Y-108391874D02*
X151225414Y-108391874D01*
X136973194Y-101233524D02*
X137244394Y-101504724D01*
X149774514Y-108391874D02*
X150109334Y-108391874D01*
X151448624Y-109334624D02*
X153173444Y-109334624D01*
X173989994Y-89769694D02*
X175615594Y-88144094D01*
X175054684Y-79540424D02*
X175158394Y-79644134D01*
X173329594Y-85052224D02*
X174853594Y-85052224D01*
X168142284Y-104463534D02*
X173989994Y-98615824D01*
X172973994Y-81623224D02*
X173216234Y-81380984D01*
X150220944Y-109223014D02*
X150332544Y-109334624D01*
X148546824Y-108503484D02*
X148658434Y-108391874D01*
X151337014Y-109223014D02*
X151448624Y-109334624D01*
X149104864Y-109223014D02*
X149104864Y-108503484D01*
X172973994Y-84696624D02*
X172973994Y-81623224D01*
X149216474Y-109334624D02*
X149551294Y-109334624D01*
X148993254Y-108391874D02*
X149104864Y-108503484D01*
X150667374Y-109334624D02*
X150778984Y-109223014D01*
X149104864Y-109223014D02*
X149216474Y-109334624D01*
X161183564Y-104684904D02*
X161404924Y-104463534D01*
X149662904Y-108503484D02*
X149774514Y-108391874D01*
X140080994Y-108572624D02*
X140842994Y-109334624D01*
X148546824Y-109223014D02*
X148546824Y-108503484D01*
X151225414Y-108391874D02*
X151337014Y-108503484D01*
X150778984Y-108503484D02*
X150890584Y-108391874D01*
X173989994Y-98615824D02*
X173989994Y-89769694D01*
X153173444Y-109334624D02*
X157823174Y-104684904D01*
X150332544Y-109334624D02*
X150667374Y-109334624D01*
X175054684Y-81380984D02*
X175158394Y-81277274D01*
X149662904Y-109223014D02*
X149662904Y-108503484D01*
X148435224Y-109334624D02*
X148546824Y-109223014D01*
X148658434Y-108391874D02*
X148993254Y-108391874D01*
X136253064Y-101794724D02*
X136253064Y-101468604D01*
X161404924Y-104463534D02*
X168142284Y-104463534D01*
X151337014Y-109223014D02*
X151337014Y-108503484D01*
X134651214Y-102029814D02*
X136017974Y-102029814D01*
%TO.N,IO_L10_34_EN_AGC*%
X118095134Y-87878144D02*
X118095134Y-87552024D01*
X118095134Y-87552024D02*
X121418404Y-84228754D01*
X133051214Y-86029844D02*
X133453064Y-86431694D01*
X132094724Y-84228754D02*
X133051214Y-85185244D01*
X121418404Y-84228754D02*
X132094724Y-84228754D01*
X117858194Y-88115084D02*
X118095134Y-87878144D01*
X117068594Y-91541614D02*
X117068594Y-88578564D01*
X117532074Y-88115084D02*
X117858194Y-88115084D01*
X133051214Y-86029844D02*
X133051214Y-85185244D01*
X117068594Y-88578564D02*
X117532074Y-88115084D01*
X115296994Y-93313214D02*
X117068594Y-91541614D01*
%TO.N,IO_L23_35_SPI_CLK*%
X117859254Y-96912414D02*
X118098844Y-97152004D01*
X118098844Y-98299874D02*
X118098844Y-97152004D01*
X129741184Y-99629814D02*
X129854934Y-99743554D01*
X130077284Y-100562744D02*
X130253074Y-100738534D01*
X130077284Y-100562744D02*
X130077284Y-100418934D01*
X116848884Y-95881514D02*
X117293544Y-96326174D01*
X117293544Y-96672824D02*
X117533134Y-96912414D01*
X117293544Y-96672824D02*
X117293544Y-96326174D01*
X116848884Y-95881514D02*
X116848884Y-95102044D01*
X130253074Y-100831664D02*
X130253074Y-100738534D01*
X115381224Y-94913214D02*
X115779364Y-94515074D01*
X115296994Y-94913214D02*
X115381224Y-94913214D01*
X126797174Y-99619504D02*
X126807484Y-99629814D01*
X126807484Y-99629814D02*
X129741184Y-99629814D01*
X118098844Y-98299874D02*
X119418474Y-99619504D01*
X129854934Y-100196584D02*
X130077284Y-100418934D01*
X129854934Y-100196584D02*
X129854934Y-99743554D01*
X117533134Y-96912414D02*
X117859254Y-96912414D01*
X115779364Y-94515074D02*
X116261904Y-94515074D01*
X119418474Y-99619504D02*
X126797174Y-99619504D01*
X116261904Y-94515074D02*
X116848884Y-95102044D01*
%TO.N,IO_L11_34_ENABLE*%
X130832274Y-88433544D02*
X131214274Y-88433544D01*
X118260134Y-93711364D02*
X121061894Y-93711364D01*
X131214274Y-88433544D02*
X131451214Y-88196604D01*
X132970694Y-87633554D02*
X133368844Y-88031694D01*
X121538994Y-92875424D02*
X123037594Y-92875424D01*
X133368844Y-88031694D02*
X133453064Y-88031694D01*
X117861994Y-93313214D02*
X118260134Y-93711364D01*
X128057134Y-91590694D02*
X130175984Y-89471844D01*
X123037594Y-92875424D02*
X124322324Y-91590694D01*
X121061894Y-93711364D02*
X121298834Y-93474424D01*
X131451214Y-88196604D02*
X131451214Y-87870484D01*
X131451214Y-87870484D02*
X131688154Y-87633554D01*
X130175984Y-89089834D02*
X130832274Y-88433544D01*
X121298834Y-93115584D02*
X121538994Y-92875424D01*
X116096994Y-93313214D02*
X117861994Y-93313214D01*
X131688154Y-87633554D02*
X132970694Y-87633554D01*
X121298834Y-93474424D02*
X121298834Y-93115584D01*
X124322324Y-91590694D02*
X128057134Y-91590694D01*
X130175984Y-89471844D02*
X130175984Y-89089834D01*
%TO.N,IO_L23_35_SPI_ENB*%
X116616474Y-98697104D02*
X116616474Y-97269634D01*
X119862594Y-101943224D02*
X129141524Y-101943224D01*
X115698844Y-96678124D02*
X115935784Y-96915064D01*
X129141524Y-101943224D02*
X129453074Y-101631664D01*
X116096994Y-95797444D02*
X116096994Y-95713214D01*
X115698844Y-96195584D02*
X116096994Y-95797444D01*
X115698844Y-96678124D02*
X115698844Y-96195584D01*
X116261904Y-96915064D02*
X116616474Y-97269634D01*
X116616474Y-98697104D02*
X119862594Y-101943224D01*
X115935784Y-96915064D02*
X116261904Y-96915064D01*
%TO.N,IO_L24_35_SPI_D0*%
X129453074Y-100115894D02*
X129851224Y-100514044D01*
X129851224Y-100996584D02*
X129851224Y-100514044D01*
X129614284Y-101233524D02*
X129851224Y-100996584D01*
X129130934Y-101390744D02*
X129288164Y-101233524D01*
X117195594Y-98666624D02*
X119919724Y-101390744D01*
X119919724Y-101390744D02*
X129130934Y-101390744D01*
X116842534Y-97576964D02*
X116842534Y-97175994D01*
X116096994Y-96513214D02*
X116179754Y-96513214D01*
X116179754Y-96513214D02*
X116842534Y-97175994D01*
X117195594Y-98666624D02*
X117195594Y-97930024D01*
X129453074Y-100115894D02*
X129453074Y-100031674D01*
X129288164Y-101233524D02*
X129614284Y-101233524D01*
X116842534Y-97576964D02*
X117195594Y-97930024D01*
%TO.N,IO_L05_34_RX_D8*%
X127997830Y-97740000D02*
X130957406Y-94780424D01*
X125439214Y-97650624D02*
X125528590Y-97740000D01*
X118095134Y-96674414D02*
X118332074Y-96911354D01*
X118895134Y-97148294D02*
X118895134Y-97474414D01*
X137277264Y-88092844D02*
X136766594Y-87582164D01*
X135819044Y-91066774D02*
X136254914Y-91066774D01*
X137277264Y-90370544D02*
X137277264Y-88092844D01*
X117696994Y-95803394D02*
X118095134Y-96201534D01*
X132105394Y-94780424D02*
X134654924Y-92230894D01*
X118095134Y-96201534D02*
X118095134Y-96674414D01*
X118895134Y-97474414D02*
X119503144Y-98082424D01*
X136766594Y-87582164D02*
X136203534Y-87582164D01*
X136203534Y-87582164D02*
X135853064Y-87231694D01*
X134888154Y-91633544D02*
X135252274Y-91633544D01*
X136491854Y-90829834D02*
X136817974Y-90829834D01*
X134654924Y-91866774D02*
X134888154Y-91633544D01*
X136817974Y-90829834D02*
X137277264Y-90370544D01*
X130957406Y-94780424D02*
X132105394Y-94780424D01*
X122554994Y-97650624D02*
X125439214Y-97650624D01*
X118332074Y-96911354D02*
X118658194Y-96911354D01*
X117696994Y-95713214D02*
X117696994Y-95803394D01*
X122123194Y-98082424D02*
X122554994Y-97650624D01*
X134654924Y-92230894D02*
X134654924Y-91866774D01*
X135252274Y-91633544D02*
X135819044Y-91066774D01*
X136254914Y-91066774D02*
X136491854Y-90829834D01*
X125528590Y-97740000D02*
X127997830Y-97740000D01*
X118658194Y-96911354D02*
X118895134Y-97148294D01*
X119503144Y-98082424D02*
X122123194Y-98082424D01*
%TO.N,IO_L18_34_TX_D7*%
X132581794Y-86833554D02*
X132648004Y-86899764D01*
X130091864Y-87629844D02*
X131217984Y-87629844D01*
X131688154Y-86833554D02*
X132581794Y-86833554D01*
X131453074Y-87068634D02*
X131688154Y-86833554D01*
X118896984Y-90756984D02*
X118496984Y-90356984D01*
X118896984Y-90756984D02*
X118896984Y-91876284D01*
X129854934Y-87866784D02*
X130091864Y-87629844D01*
X129617994Y-88429844D02*
X129854934Y-88192904D01*
X118496984Y-90356984D02*
X118496984Y-90113204D01*
X129291874Y-88429844D02*
X129617994Y-88429844D01*
X131453074Y-87394754D02*
X131453074Y-87068634D01*
X132648004Y-86899764D02*
X132648004Y-87226624D01*
X123469394Y-90995824D02*
X126725884Y-90995824D01*
X126725884Y-90995824D02*
X128752594Y-88969114D01*
X118896984Y-91876284D02*
X119358134Y-92337424D01*
X132648004Y-87226624D02*
X132653074Y-87231694D01*
X129854934Y-88192904D02*
X129854934Y-87866784D01*
X119358134Y-92337424D02*
X122127794Y-92337424D01*
X128752594Y-88969114D02*
X129291874Y-88429844D01*
X122127794Y-92337424D02*
X123469394Y-90995824D01*
X131217984Y-87629844D02*
X131453074Y-87394754D01*
%TO.N,IO_L07_34_RX_FRAME*%
X117860054Y-88913224D02*
X118096064Y-88677214D01*
X118898844Y-87874434D02*
X118898844Y-87260574D01*
X118096064Y-88677214D02*
X118096064Y-88351094D01*
X132627464Y-85606094D02*
X132653074Y-85631704D01*
X117322594Y-92138824D02*
X118496984Y-93313214D01*
X131825994Y-84518824D02*
X132627464Y-85320294D01*
X118898844Y-87260574D02*
X121640594Y-84518824D01*
X132627464Y-85606094D02*
X132627464Y-85320294D01*
X121640594Y-84518824D02*
X131825994Y-84518824D01*
X117298844Y-89148314D02*
X117533934Y-88913224D01*
X117298844Y-91878134D02*
X117322594Y-91901884D01*
X117298844Y-91878134D02*
X117298844Y-89148314D01*
X118332544Y-88114614D02*
X118658664Y-88114614D01*
X118658664Y-88114614D02*
X118898844Y-87874434D01*
X118096064Y-88351094D02*
X118332544Y-88114614D01*
X117533934Y-88913224D02*
X117860054Y-88913224D01*
X117322594Y-92138824D02*
X117322594Y-91901884D01*
%TO.N,IO_L05_34_RX_D9*%
X133219664Y-86833554D02*
X134651214Y-86833554D01*
X116712994Y-93561224D02*
X117708054Y-93561224D01*
X121304844Y-93937424D02*
X121527194Y-93715074D01*
X122807544Y-93715074D02*
X124641854Y-91880764D01*
X117708054Y-93561224D02*
X118098844Y-93952014D01*
X117195594Y-95161424D02*
X117347994Y-95313824D01*
X118098844Y-94448854D02*
X118165054Y-94515074D01*
X116560594Y-94285124D02*
X116560594Y-93713624D01*
X133054924Y-87396614D02*
X133290004Y-87631694D01*
X133054924Y-86998294D02*
X133219664Y-86833554D01*
X128240944Y-91880764D02*
X128752594Y-91369114D01*
X117195594Y-95161424D02*
X117195594Y-94920124D01*
X116560594Y-94285124D02*
X117195594Y-94920124D01*
X118098844Y-94448854D02*
X118098844Y-93952014D01*
X120835834Y-93937424D02*
X121304844Y-93937424D01*
X134651214Y-86833554D02*
X135053064Y-86431694D01*
X117347994Y-95313824D02*
X118430774Y-95313824D01*
X130888154Y-89233544D02*
X131214274Y-89233544D01*
X121527194Y-93715074D02*
X122807544Y-93715074D01*
X131451224Y-88996604D02*
X131451224Y-88670484D01*
X128752594Y-91369114D02*
X130888154Y-89233544D01*
X118165054Y-94515074D02*
X120258194Y-94515074D01*
X133719664Y-87631694D02*
X133851214Y-87763244D01*
X131214274Y-89233544D02*
X131451224Y-88996604D01*
X116560594Y-93713624D02*
X116712994Y-93561224D01*
X133851214Y-88310204D02*
X133851214Y-87763244D01*
X133727874Y-88433544D02*
X133851214Y-88310204D01*
X120258194Y-94515074D02*
X120835834Y-93937424D01*
X131688154Y-88433544D02*
X133727874Y-88433544D01*
X131451224Y-88670484D02*
X131688154Y-88433544D01*
X133054924Y-87396614D02*
X133054924Y-86998294D01*
X124641854Y-91880764D02*
X128240944Y-91880764D01*
X118430774Y-95313824D02*
X118496984Y-95247614D01*
X133290004Y-87631694D02*
X133719664Y-87631694D01*
X118496984Y-95247614D02*
X118496984Y-94913214D01*
%TO.N,IO_L04_34_RX_D6*%
X132193314Y-93365814D02*
X132626944Y-93799444D01*
X134888154Y-90833544D02*
X136014274Y-90833544D01*
X132626944Y-93799444D02*
X132766674Y-93799444D01*
X132976284Y-93589844D02*
X132976284Y-93450114D01*
X119133924Y-96913214D02*
X119460044Y-96913214D01*
X132053584Y-93365814D02*
X132193314Y-93365814D01*
X132826304Y-92741204D02*
X132966034Y-92741204D01*
X137051204Y-89229834D02*
X136653064Y-88831694D01*
X136815194Y-90032614D02*
X137051204Y-89796604D01*
X118895134Y-96111354D02*
X118895134Y-96674414D01*
X125334526Y-96585474D02*
X128709504Y-96585474D01*
X132966034Y-92741204D02*
X133325614Y-93100784D01*
X133807194Y-91914494D02*
X134888154Y-90833544D01*
X132766674Y-93799444D02*
X132976284Y-93589844D01*
X131843984Y-93715144D02*
X131843984Y-93575414D01*
X121986264Y-97711354D02*
X122657618Y-97040000D01*
X133807194Y-92758924D02*
X133807194Y-91914494D01*
X137051204Y-89796604D02*
X137051204Y-89229834D01*
X133703734Y-92862384D02*
X133807194Y-92758924D01*
X132237644Y-94328474D02*
X132277614Y-94288514D01*
X119696064Y-97475344D02*
X119932074Y-97711354D01*
X136251214Y-90270484D02*
X136489074Y-90032614D01*
X118895134Y-96674414D02*
X119133924Y-96913214D01*
X130966504Y-94328474D02*
X132237644Y-94328474D01*
X132616704Y-93090534D02*
X132616704Y-92950804D01*
X136489074Y-90032614D02*
X136815194Y-90032614D01*
X132616704Y-92950804D02*
X132826304Y-92741204D01*
X136014274Y-90833544D02*
X136251214Y-90596604D01*
X125176909Y-96743091D02*
X125334526Y-96585474D01*
X136251214Y-90596604D02*
X136251214Y-90270484D01*
X125176909Y-96972587D02*
X125176909Y-96743091D01*
X131843984Y-93575414D02*
X132053584Y-93365814D01*
X119696064Y-97149224D02*
X119696064Y-97475344D01*
X119460044Y-96913214D02*
X119696064Y-97149224D01*
X119932074Y-97711354D02*
X121986264Y-97711354D01*
X124950377Y-97199119D02*
X125176909Y-96972587D01*
X133325614Y-93100784D02*
X133465344Y-93100784D01*
X132277614Y-94288514D02*
X132277614Y-94148774D01*
X124630011Y-97199119D02*
X124950377Y-97199119D01*
X132976284Y-93450114D02*
X132616704Y-93090534D01*
X133465344Y-93100784D02*
X133703734Y-92862384D01*
X122657618Y-97040000D02*
X124470892Y-97040000D01*
X118496984Y-95713214D02*
X118895134Y-96111354D01*
X132277614Y-94148774D02*
X131843984Y-93715144D01*
X128709504Y-96585474D02*
X130966504Y-94328474D01*
X124470892Y-97040000D02*
X124630011Y-97199119D01*
%TO.N,IO_L17_34_TX_D5*%
X125742374Y-85399584D02*
X125914794Y-85399584D01*
X123888914Y-85528894D02*
X124018224Y-85399584D01*
X125052714Y-85399584D02*
X125182024Y-85528894D01*
X120733924Y-88113224D02*
X121060044Y-88113224D01*
X123328564Y-85561984D02*
X123457874Y-85691304D01*
X125182024Y-86012314D02*
X125182024Y-85528894D01*
X123759604Y-86141634D02*
X123888914Y-86012314D01*
X123587184Y-86141634D02*
X123759604Y-86141634D01*
X124449264Y-86141634D02*
X124621674Y-86141634D01*
X121298834Y-87874434D02*
X121298834Y-87548314D01*
X125483754Y-86141634D02*
X125613064Y-86012314D01*
X125311344Y-86141634D02*
X125483754Y-86141634D01*
X123457874Y-86012314D02*
X123457874Y-85691304D01*
X126604454Y-85561984D02*
X127988834Y-85561984D01*
X119351394Y-89830624D02*
X120495134Y-88686884D01*
X121767594Y-85890424D02*
X122096034Y-85561984D01*
X124319954Y-86012314D02*
X124449264Y-86141634D01*
X123888914Y-86012314D02*
X123888914Y-85528894D01*
X125182024Y-86012314D02*
X125311344Y-86141634D01*
X125914794Y-85399584D02*
X126044104Y-85528894D01*
X125613064Y-85528894D02*
X125742374Y-85399584D01*
X126173414Y-86141634D02*
X126345834Y-86141634D01*
X119296984Y-90113224D02*
X119351394Y-90058824D01*
X126044104Y-86012314D02*
X126044104Y-85528894D01*
X124190644Y-85399584D02*
X124319954Y-85528894D01*
X121298834Y-87548314D02*
X121767594Y-87079554D01*
X126044104Y-86012314D02*
X126173414Y-86141634D01*
X124018224Y-85399584D02*
X124190644Y-85399584D01*
X126345834Y-86141634D02*
X126475144Y-86012314D01*
X122096034Y-85561984D02*
X123328564Y-85561984D01*
X120495134Y-88352024D02*
X120733924Y-88113224D01*
X124621674Y-86141634D02*
X124750994Y-86012314D01*
X128317264Y-85233554D02*
X130654924Y-85233554D01*
X124880304Y-85399584D02*
X125052714Y-85399584D01*
X121767594Y-87079554D02*
X121767594Y-85890424D01*
X119351394Y-90058824D02*
X119351394Y-89830624D01*
X123457874Y-86012314D02*
X123587184Y-86141634D01*
X130654924Y-85233554D02*
X131053074Y-85631704D01*
X120495134Y-88686884D02*
X120495134Y-88352024D01*
X127988834Y-85561984D02*
X128317264Y-85233554D01*
X125613064Y-86012314D02*
X125613064Y-85528894D01*
X124319954Y-86012314D02*
X124319954Y-85528894D01*
X126475144Y-85691304D02*
X126604454Y-85561984D01*
X121060044Y-88113224D02*
X121298834Y-87874434D01*
X126475144Y-86012314D02*
X126475144Y-85691304D01*
X124750994Y-85528894D02*
X124880304Y-85399584D01*
X124750994Y-86012314D02*
X124750994Y-85528894D01*
%TO.N,IO_L18_34_TX_D6*%
X120116594Y-86855624D02*
X122212218Y-84760000D01*
X122212218Y-84760000D02*
X131584570Y-84760000D01*
X132251214Y-85426644D02*
X132251214Y-86029844D01*
X118898844Y-90432324D02*
X118898844Y-89546574D01*
X119695134Y-87988284D02*
X120116594Y-87566824D01*
X120116594Y-87566824D02*
X120116594Y-86855624D01*
X132251214Y-86029844D02*
X132653074Y-86431694D01*
X131584570Y-84760000D02*
X132251214Y-85426644D01*
X119695134Y-88750284D02*
X119695134Y-87988284D01*
X119296984Y-90913224D02*
X119296984Y-90830464D01*
X119296984Y-90830464D02*
X118898844Y-90432324D01*
X118898844Y-89546574D02*
X119695134Y-88750284D01*
%TO.N,IO_L04_34_RX_D7*%
X118999494Y-94952724D02*
X119257474Y-94952724D01*
X130414284Y-90833544D02*
X130651224Y-90596604D01*
X128310784Y-92291224D02*
X129768464Y-90833544D01*
X122642494Y-94515074D02*
X122948664Y-94208894D01*
X126922734Y-93553714D02*
X127095154Y-93553714D01*
X126362384Y-93424404D02*
X126362384Y-92300134D01*
X127655504Y-93359284D02*
X127655504Y-92300134D01*
X125802034Y-92291224D02*
X125931344Y-92420534D01*
X128086534Y-93359284D02*
X128086534Y-92420534D01*
X127224464Y-92300134D02*
X127353774Y-92170824D01*
X129768464Y-90833544D02*
X130414284Y-90833544D01*
X126233074Y-93553714D02*
X126362384Y-93424404D01*
X124700324Y-93397044D02*
X124700324Y-93214164D01*
X131452144Y-89795674D02*
X131452144Y-89640000D01*
X124866344Y-92291224D02*
X125802034Y-92291224D01*
X119257474Y-94952724D02*
X119296984Y-94913214D01*
X120497594Y-94653424D02*
X120635944Y-94515074D01*
X126491694Y-92170824D02*
X126664114Y-92170824D01*
X128086534Y-92420534D02*
X128215854Y-92291224D01*
X127655504Y-93359284D02*
X127784814Y-93488594D01*
X130890014Y-90031684D02*
X131216134Y-90031684D01*
X124578414Y-93518954D02*
X124700324Y-93397044D01*
X130651224Y-90270484D02*
X130890014Y-90031684D01*
X123316054Y-93841514D02*
X123498934Y-93841514D01*
X123691354Y-93241484D02*
X123813274Y-93119564D01*
X123691354Y-93424354D02*
X124114704Y-93847704D01*
X131216134Y-90031684D02*
X131452144Y-89795674D01*
X123498934Y-93841514D02*
X123809914Y-94152494D01*
X124702284Y-92455284D02*
X124866344Y-92291224D01*
X127957224Y-93488594D02*
X128086534Y-93359284D01*
X131452144Y-89640000D02*
X131452144Y-89469554D01*
X126060664Y-93553714D02*
X126233074Y-93553714D01*
X127353774Y-92170824D02*
X127526184Y-92170824D01*
X125931344Y-93424404D02*
X126060664Y-93553714D01*
X131688154Y-89233544D02*
X132968454Y-89233544D01*
X122948664Y-94208894D02*
X123316054Y-93841514D01*
X124395534Y-93518954D02*
X124578414Y-93518954D01*
X133370314Y-88831694D02*
X133453064Y-88831694D01*
X131452144Y-89469554D02*
X131688154Y-89233544D01*
X124413294Y-92927134D02*
X124700324Y-93214164D01*
X126793424Y-93424404D02*
X126793424Y-92300134D01*
X127224464Y-93424404D02*
X127224464Y-92300134D01*
X118897394Y-95054834D02*
X118999494Y-94952724D01*
X118963604Y-95311364D02*
X120345194Y-95311364D01*
X120635944Y-94515074D02*
X122642494Y-94515074D01*
X123809914Y-94152494D02*
X123992784Y-94152494D01*
X124413294Y-92744264D02*
X124702284Y-92455284D01*
X124413294Y-92927134D02*
X124413294Y-92744264D01*
X127095154Y-93553714D02*
X127224464Y-93424404D01*
X127526184Y-92170824D02*
X127655504Y-92300134D01*
X118897394Y-95245144D02*
X118897394Y-95054834D01*
X125931344Y-93424404D02*
X125931344Y-92420534D01*
X120345194Y-95311364D02*
X120497594Y-95158964D01*
X123813274Y-93119564D02*
X123996144Y-93119564D01*
X128215854Y-92291224D02*
X128308494Y-92291224D01*
X123996144Y-93119564D02*
X124395534Y-93518954D01*
X130651224Y-90596604D02*
X130651224Y-90270484D01*
X118897394Y-95245144D02*
X118963604Y-95311364D01*
X120497594Y-95158964D02*
X120497594Y-94653424D01*
X127784814Y-93488594D02*
X127957224Y-93488594D01*
X132968454Y-89233544D02*
X133370314Y-88831694D01*
X128308494Y-92291224D02*
X128310784Y-92291224D01*
X124114704Y-94030574D02*
X124114704Y-93847704D01*
X126793424Y-93424404D02*
X126922734Y-93553714D01*
X131452144Y-89795674D02*
X131452144Y-89469554D01*
X126664114Y-92170824D02*
X126793424Y-92300134D01*
X126362384Y-92300134D02*
X126491694Y-92170824D01*
X123992784Y-94152494D02*
X124114704Y-94030574D01*
X123691354Y-93424354D02*
X123691354Y-93241484D01*
%TO.N,IO_L03_34_RX_D4*%
X124790194Y-96812424D02*
X125681734Y-95920884D01*
X132702594Y-92545224D02*
X134651214Y-90596604D01*
X135853064Y-88914454D02*
X135853064Y-88831694D01*
X134651214Y-90596604D02*
X134651214Y-90270484D01*
X135451214Y-89316304D02*
X135853064Y-88914454D01*
X132291169Y-92545224D02*
X132702594Y-92545224D01*
X134888154Y-90033544D02*
X135214274Y-90033544D01*
X125681734Y-95920884D02*
X128915509Y-95920884D01*
X135214274Y-90033544D02*
X135451214Y-89796604D01*
X135451214Y-89796604D02*
X135451214Y-89316304D01*
X134651214Y-90270484D02*
X134888154Y-90033544D01*
X128915509Y-95920884D02*
X132291169Y-92545224D01*
%TO.N,IO_L16_34_TX_D3*%
X122395974Y-88217334D02*
X122395974Y-88034464D01*
X127164774Y-87230374D02*
X127337194Y-87230374D01*
X123933584Y-87231694D02*
X124750964Y-87231694D01*
X122580524Y-88584754D02*
X122580524Y-88401874D01*
X126604424Y-88056184D02*
X126733744Y-88185494D01*
X125311314Y-88056184D02*
X125311314Y-87359684D01*
X122250194Y-88915084D02*
X122580524Y-88584754D01*
X124880274Y-88056184D02*
X125009584Y-88185494D01*
X127466504Y-87907744D02*
X127466504Y-87359684D01*
X123574874Y-88603774D02*
X123696784Y-88481854D01*
X127897544Y-87361004D02*
X128026854Y-87231694D01*
X125440624Y-87230374D02*
X125613044Y-87230374D01*
X122517894Y-87912544D02*
X122700764Y-87912544D01*
X121532064Y-88915084D02*
X122250194Y-88915084D01*
X127466504Y-87907744D02*
X127595814Y-88037054D01*
X125613044Y-87230374D02*
X125742354Y-87359684D01*
X125311314Y-87359684D02*
X125440624Y-87230374D01*
X122700764Y-87912544D02*
X123391994Y-88603774D01*
X121058194Y-89715084D02*
X121295134Y-89478134D01*
X125182004Y-88185494D02*
X125311314Y-88056184D01*
X120096984Y-90113224D02*
X120495134Y-89715084D01*
X121295134Y-89478134D02*
X121295134Y-89152014D01*
X127768234Y-88037054D02*
X127897544Y-87907744D01*
X122395974Y-88034464D02*
X122517894Y-87912544D01*
X121295134Y-89152014D02*
X121532064Y-88915084D01*
X124750964Y-87231694D02*
X124880274Y-87361004D01*
X126173394Y-87359684D02*
X126302704Y-87230374D01*
X128026854Y-87231694D02*
X129453074Y-87231694D01*
X126044074Y-88185494D02*
X126173394Y-88056184D01*
X123372974Y-87975174D02*
X123372974Y-87792304D01*
X127595814Y-88037054D02*
X127768234Y-88037054D01*
X122395974Y-88217334D02*
X122580524Y-88401874D01*
X123391994Y-88603774D02*
X123574874Y-88603774D01*
X124880274Y-88056184D02*
X124880274Y-87361004D01*
X126604424Y-88056184D02*
X126604424Y-87359684D01*
X126475114Y-87230374D02*
X126604424Y-87359684D01*
X125871664Y-88185494D02*
X126044074Y-88185494D01*
X126173394Y-88056184D02*
X126173394Y-87359684D01*
X127337194Y-87230374D02*
X127466504Y-87359684D01*
X125742354Y-88056184D02*
X125871664Y-88185494D01*
X126906154Y-88185494D02*
X127035464Y-88056184D01*
X123696784Y-88481854D02*
X123696784Y-88298984D01*
X125742354Y-88056184D02*
X125742354Y-87359684D01*
X127035464Y-87359684D02*
X127164774Y-87230374D01*
X125009584Y-88185494D02*
X125182004Y-88185494D01*
X120495134Y-89715084D02*
X121058194Y-89715084D01*
X127035464Y-88056184D02*
X127035464Y-87359684D01*
X127897544Y-87907744D02*
X127897544Y-87361004D01*
X126733744Y-88185494D02*
X126906154Y-88185494D01*
X123372974Y-87792304D02*
X123933584Y-87231694D01*
X123372974Y-87975174D02*
X123696784Y-88298984D01*
X126302704Y-87230374D02*
X126475114Y-87230374D01*
%TO.N,IO_L17_34_TX_D4*%
X123283044Y-86737174D02*
X123588524Y-86431694D01*
X124778674Y-86812314D02*
X124778674Y-86561004D01*
X126632144Y-86941624D02*
X126804554Y-86941624D01*
X126071794Y-86812314D02*
X126071794Y-86561004D01*
X127063174Y-85852054D02*
X127235594Y-85852054D01*
X123283044Y-86920044D02*
X123283044Y-86737174D01*
X126933864Y-85981364D02*
X127063174Y-85852054D01*
X128226984Y-86302384D02*
X128226984Y-85981364D01*
X128097664Y-85852054D02*
X128226984Y-85981364D01*
X128356294Y-86431694D02*
X129453074Y-86431694D01*
X125511444Y-86431694D02*
X125640754Y-86561004D01*
X121535774Y-88111374D02*
X121908844Y-88111374D01*
X121908844Y-88111374D02*
X122490594Y-87529624D01*
X125080404Y-86941624D02*
X125209714Y-86812314D01*
X128226984Y-86302384D02*
X128356294Y-86431694D01*
X123467594Y-87287464D02*
X123467594Y-87104594D01*
X126071794Y-86561004D02*
X126201104Y-86431694D01*
X127364904Y-86812314D02*
X127364904Y-85981364D01*
X123588524Y-86431694D02*
X124649364Y-86431694D01*
X119698844Y-89948314D02*
X120732074Y-88915084D01*
X123162804Y-87409384D02*
X123345674Y-87409384D01*
X123345674Y-87409384D02*
X123467594Y-87287464D01*
X121296984Y-88676284D02*
X121296984Y-88350164D01*
X119698844Y-90515074D02*
X119698844Y-89948314D01*
X125640754Y-86812314D02*
X125770064Y-86941624D01*
X122271014Y-86700464D02*
X122453894Y-86700464D01*
X125209714Y-86812314D02*
X125209714Y-86561004D01*
X126373514Y-86431694D02*
X126502824Y-86561004D01*
X126502824Y-86812314D02*
X126632144Y-86941624D01*
X125640754Y-86812314D02*
X125640754Y-86561004D01*
X126933864Y-86812314D02*
X126933864Y-85981364D01*
X121058194Y-88915084D02*
X121296984Y-88676284D01*
X125209714Y-86561004D02*
X125339024Y-86431694D01*
X126502824Y-86812314D02*
X126502824Y-86561004D01*
X123283044Y-86920044D02*
X123467594Y-87104594D01*
X127235594Y-85852054D02*
X127364904Y-85981364D01*
X124778674Y-86812314D02*
X124907984Y-86941624D01*
X122490594Y-87529624D02*
X122490594Y-87346754D01*
X127666634Y-86941624D02*
X127795944Y-86812314D01*
X124649364Y-86431694D02*
X124778674Y-86561004D01*
X125770064Y-86941624D02*
X125942474Y-86941624D01*
X127795944Y-86812314D02*
X127795944Y-85981364D01*
X119698844Y-90515074D02*
X120096984Y-90913224D01*
X125942474Y-86941624D02*
X126071794Y-86812314D01*
X124907984Y-86941624D02*
X125080404Y-86941624D01*
X127494214Y-86941624D02*
X127666634Y-86941624D01*
X126201104Y-86431694D02*
X126373514Y-86431694D01*
X125339024Y-86431694D02*
X125511444Y-86431694D01*
X127795944Y-85981364D02*
X127925254Y-85852054D01*
X126804554Y-86941624D02*
X126933864Y-86812314D01*
X122149104Y-87005254D02*
X122490594Y-87346754D01*
X122149104Y-86822384D02*
X122271014Y-86700464D01*
X122149104Y-87005254D02*
X122149104Y-86822384D01*
X121296984Y-88350164D02*
X121535774Y-88111374D01*
X127925254Y-85852054D02*
X128097664Y-85852054D01*
X120732074Y-88915084D02*
X121058194Y-88915084D01*
X127364904Y-86812314D02*
X127494214Y-86941624D01*
X122453894Y-86700464D02*
X123162804Y-87409384D01*
%TO.N,IO_L02_34_RX_D2*%
X135451214Y-88514064D02*
X135053064Y-88115924D01*
X134651214Y-89796604D02*
X134651214Y-89364404D01*
X134088154Y-90033544D02*
X134414274Y-90033544D01*
X124858776Y-96101224D02*
X125253746Y-95706254D01*
X134785784Y-89229834D02*
X135217984Y-89229834D01*
X135217984Y-89229834D02*
X135451214Y-88996604D01*
X125253746Y-95706254D02*
X128826607Y-95706254D01*
X134651214Y-89364404D02*
X134785784Y-89229834D01*
X134414274Y-90033544D02*
X134651214Y-89796604D01*
X133851214Y-90270484D02*
X134088154Y-90033544D01*
X133471374Y-90976444D02*
X133851214Y-90596604D01*
X128826607Y-95706254D02*
X132156194Y-92376667D01*
X124790194Y-96101224D02*
X124858776Y-96101224D01*
X132156194Y-92376667D02*
X132156194Y-91965504D01*
X133851214Y-90596604D02*
X133851214Y-90270484D01*
X135053064Y-88115924D02*
X135053064Y-88031694D01*
X132156194Y-91965504D02*
X133145254Y-90976444D01*
X135451214Y-88996604D02*
X135451214Y-88514064D01*
X133145254Y-90976444D02*
X133471374Y-90976444D01*
%TO.N,IO_L15_34_TX_D1*%
X125624684Y-89449054D02*
X125753994Y-89578364D01*
X131355814Y-86029844D02*
X131451214Y-86125244D01*
X130258144Y-85963634D02*
X130324354Y-86029844D01*
X130253074Y-85631704D02*
X130258144Y-85636764D01*
X120987164Y-90113224D02*
X121385304Y-89715084D01*
X126788484Y-89578364D02*
X126917804Y-89449054D01*
X127047114Y-88582824D02*
X127761994Y-88582824D01*
X129614284Y-87633554D02*
X129851224Y-87396614D01*
X121385304Y-89715084D02*
X122250194Y-89715084D01*
X126486764Y-89449054D02*
X126616074Y-89578364D01*
X124633294Y-88582824D02*
X124762614Y-88712134D01*
X124104394Y-88582824D02*
X124113734Y-88582824D01*
X125753994Y-89578364D02*
X125926414Y-89578364D01*
X130258144Y-85963634D02*
X130258144Y-85636764D01*
X124113734Y-88582824D02*
X124633294Y-88582824D01*
X125193644Y-89449054D02*
X125193644Y-88604634D01*
X127761994Y-88582824D02*
X128711264Y-87633554D01*
X122562324Y-89402954D02*
X123284264Y-89402954D01*
X128752594Y-87633554D02*
X129614284Y-87633554D01*
X125926414Y-89578364D02*
X126055724Y-89449054D01*
X125193644Y-88604634D02*
X125322964Y-88475324D01*
X126357454Y-88475324D02*
X126486764Y-88604634D01*
X125495374Y-88475324D02*
X125624684Y-88604634D01*
X125064334Y-89578364D02*
X125193644Y-89449054D01*
X126917804Y-88712134D02*
X127047114Y-88582824D01*
X126616074Y-89578364D02*
X126788484Y-89578364D01*
X124891924Y-89578364D02*
X125064334Y-89578364D01*
X131451214Y-86596614D02*
X131451214Y-86125244D01*
X126917804Y-89449054D02*
X126917804Y-88712134D01*
X129851224Y-87396614D02*
X129851224Y-87070494D01*
X130088164Y-86833554D02*
X131214274Y-86833554D01*
X126185034Y-88475324D02*
X126357454Y-88475324D01*
X130324354Y-86029844D02*
X131355814Y-86029844D01*
X125624684Y-89449054D02*
X125624684Y-88604634D01*
X122250194Y-89715084D02*
X122562324Y-89402954D01*
X120896984Y-90113224D02*
X120987164Y-90113224D01*
X124762614Y-89449054D02*
X124762614Y-88712134D01*
X126486764Y-89449054D02*
X126486764Y-88604634D01*
X123284264Y-89402954D02*
X124104394Y-88582824D01*
X125322964Y-88475324D02*
X125495374Y-88475324D01*
X129851224Y-87070494D02*
X130088164Y-86833554D01*
X131214274Y-86833554D02*
X131451214Y-86596614D01*
X126055724Y-88604634D02*
X126185034Y-88475324D01*
X128711264Y-87633554D02*
X128752594Y-87633554D01*
X124762614Y-89449054D02*
X124891924Y-89578364D01*
X126055724Y-89449054D02*
X126055724Y-88604634D01*
%TO.N,IO_L16_34_TX_D2*%
X123382434Y-90561714D02*
X123382434Y-89805214D01*
X126711864Y-90521954D02*
X129148524Y-88085294D01*
X123684164Y-89675904D02*
X123813474Y-89805214D01*
X120732074Y-92111364D02*
X121861894Y-92111364D01*
X122326394Y-90691024D02*
X123253124Y-90691024D01*
X125666944Y-90705754D02*
X125839354Y-90705754D01*
X122095124Y-90922294D02*
X122326394Y-90691024D01*
X125537624Y-90576444D02*
X125537624Y-89994654D01*
X124373824Y-89772214D02*
X124546244Y-89772214D01*
X125968664Y-89994654D02*
X126097974Y-89865344D01*
X123511754Y-89675904D02*
X123684164Y-89675904D01*
X123813474Y-90576444D02*
X123813474Y-89805214D01*
X124977274Y-90705754D02*
X125106594Y-90576444D01*
X125968664Y-90576444D02*
X125968664Y-89994654D01*
X124115204Y-90705754D02*
X124244514Y-90576444D01*
X126399704Y-90392644D02*
X126529014Y-90521954D01*
X120903384Y-90913224D02*
X120903384Y-90577584D01*
X126270394Y-89865344D02*
X126399704Y-89994654D01*
X122095124Y-91878134D02*
X122095124Y-90922294D01*
X125106594Y-89994654D02*
X125235904Y-89865344D01*
X125408314Y-89865344D02*
X125537624Y-89994654D01*
X124675554Y-90576444D02*
X124675554Y-89901524D01*
X126399704Y-90392644D02*
X126399704Y-89994654D01*
X129399474Y-88085294D02*
X129453074Y-88031694D01*
X123253124Y-90691024D02*
X123382434Y-90561714D01*
X125839354Y-90705754D02*
X125968664Y-90576444D01*
X124244514Y-89901524D02*
X124373824Y-89772214D01*
X120497594Y-91876894D02*
X120497594Y-90577584D01*
X120497594Y-91876894D02*
X120732074Y-92111364D01*
X125106594Y-90576444D02*
X125106594Y-89994654D01*
X120837174Y-90511374D02*
X120903384Y-90577584D01*
X123942784Y-90705754D02*
X124115204Y-90705754D01*
X123813474Y-90576444D02*
X123942784Y-90705754D01*
X124546244Y-89772214D02*
X124675554Y-89901524D01*
X126097974Y-89865344D02*
X126270394Y-89865344D01*
X124675554Y-90576444D02*
X124804864Y-90705754D01*
X126529014Y-90521954D02*
X126711864Y-90521954D01*
X123382434Y-89805214D02*
X123511754Y-89675904D01*
X125537624Y-90576444D02*
X125666944Y-90705754D01*
X125235904Y-89865344D02*
X125408314Y-89865344D01*
X129148524Y-88085294D02*
X129399474Y-88085294D01*
X120497594Y-90577584D02*
X120563804Y-90511374D01*
X121861894Y-92111364D02*
X122095124Y-91878134D01*
X120563804Y-90511374D02*
X120837174Y-90511374D01*
X124804864Y-90705754D02*
X124977274Y-90705754D01*
X124244514Y-90576444D02*
X124244514Y-89901524D01*
%TO.N,IO_L12_MRCC_34_DATA_CLK*%
X129054934Y-89792894D02*
X129054934Y-89466774D01*
X130640344Y-88207484D02*
X130784144Y-88207484D01*
X129054934Y-89466774D02*
X129288164Y-89233544D01*
X124002794Y-91300624D02*
X127547204Y-91300624D01*
X120896984Y-92831634D02*
X121164004Y-92564614D01*
X130959944Y-88031694D02*
X131053074Y-88031694D01*
X121164004Y-92564614D02*
X122738804Y-92564614D01*
X120896984Y-93313214D02*
X120896984Y-92831634D01*
X127547204Y-91300624D02*
X129054934Y-89792894D01*
X129288164Y-89233544D02*
X129614284Y-89233544D01*
X122738804Y-92564614D02*
X124002794Y-91300624D01*
X130784144Y-88207484D02*
X130959944Y-88031694D01*
X129614284Y-89233544D02*
X130640344Y-88207484D01*
%TO.N,IO_L01_34_RX_D0*%
X133051214Y-90270484D02*
X133288154Y-90033544D01*
X121919994Y-96914024D02*
X122072394Y-96761624D01*
X134654924Y-87714064D02*
X135053064Y-87315924D01*
X135053064Y-87315924D02*
X135053064Y-87231694D01*
X124180594Y-96657914D02*
X124180594Y-95694824D01*
X124180594Y-95694824D02*
X124383794Y-95491624D01*
X131945894Y-91701924D02*
X133051214Y-90596604D01*
X129402494Y-93585054D02*
X129499704Y-93682264D01*
X128600194Y-95491624D02*
X129054934Y-95036884D01*
X130338094Y-92983604D02*
X131619774Y-91701924D01*
X129402494Y-93445324D02*
X129612104Y-93235724D01*
X119698844Y-96678124D02*
X119934734Y-96914024D01*
X129054934Y-94266764D02*
X129499704Y-93821994D01*
X131619774Y-91701924D02*
X131945894Y-91701924D01*
X129402494Y-93585054D02*
X129402494Y-93445324D01*
X130652184Y-93577144D02*
X130652184Y-93437414D01*
X120902054Y-95381284D02*
X120968264Y-95315064D01*
X121960664Y-96111354D02*
X122095124Y-95976894D01*
X124076884Y-96761624D02*
X124180594Y-96657914D01*
X119928664Y-96111354D02*
X121960664Y-96111354D01*
X129751834Y-93235724D02*
X130302844Y-93786744D01*
X130442574Y-93786744D02*
X130652184Y-93577144D01*
X133851214Y-89470484D02*
X134088154Y-89233544D01*
X124383794Y-95491624D02*
X128600194Y-95491624D01*
X122072394Y-96761624D02*
X124076884Y-96761624D01*
X119698844Y-96678124D02*
X119698844Y-96341174D01*
X129499704Y-93821994D02*
X129499704Y-93682264D01*
X122095124Y-95976894D02*
X122095124Y-95488954D01*
X130338094Y-93123334D02*
X130652184Y-93437414D01*
X133288154Y-90033544D02*
X133614274Y-90033544D01*
X129612104Y-93235724D02*
X129751834Y-93235724D01*
X121921244Y-95315064D02*
X122095124Y-95488954D01*
X119698844Y-96341174D02*
X119928664Y-96111354D01*
X120968264Y-95315064D02*
X121921244Y-95315064D01*
X120902054Y-95708144D02*
X120902054Y-95381284D01*
X130338094Y-93123334D02*
X130338094Y-92983604D01*
X129054934Y-95036884D02*
X129054934Y-94266764D01*
X120896984Y-95713214D02*
X120902054Y-95708144D01*
X133051214Y-90596604D02*
X133051214Y-90270484D01*
X134654924Y-88992894D02*
X134654924Y-87714064D01*
X134088154Y-89233544D02*
X134414274Y-89233544D01*
X130302844Y-93786744D02*
X130442574Y-93786744D01*
X119934734Y-96914024D02*
X121919994Y-96914024D01*
X133614274Y-90033544D02*
X133851214Y-89796604D01*
X133851214Y-89796604D02*
X133851214Y-89470484D01*
X134414274Y-89233544D02*
X134654924Y-88992894D01*
%TO.N,IO_L01_34_RX_D1*%
X130428994Y-92494424D02*
X130653074Y-92270344D01*
X125873954Y-93843784D02*
X126046364Y-93843784D01*
X131451684Y-90270014D02*
X131688154Y-90033544D01*
X132660314Y-90029834D02*
X132817984Y-90029834D01*
X122802234Y-94913214D02*
X122931544Y-95042524D01*
X133288154Y-89233544D02*
X133768454Y-89233544D01*
X132817984Y-90029834D02*
X133053074Y-89794744D01*
X129291874Y-91629834D02*
X129692394Y-91629834D01*
X126606714Y-93973094D02*
X126736024Y-93843784D01*
X123793624Y-94783904D02*
X123922934Y-94913214D01*
X133053074Y-89468624D02*
X133288154Y-89233544D01*
X127899824Y-94681054D02*
X127899824Y-93907974D01*
X127037754Y-95072244D02*
X127167064Y-95201554D01*
X123664314Y-94442104D02*
X123793624Y-94571414D01*
X128029144Y-94810364D02*
X128201554Y-94810364D01*
X124510794Y-94809504D02*
X124510794Y-94311134D01*
X123491894Y-94442104D02*
X123664314Y-94442104D01*
X128904994Y-93180224D02*
X129006594Y-93281824D01*
X129851224Y-92348454D02*
X129851224Y-91788664D01*
X127468794Y-95072244D02*
X127468794Y-93907974D01*
X132656604Y-90033544D02*
X132660314Y-90029834D01*
X127770514Y-93778664D02*
X127899824Y-93907974D01*
X126175674Y-95072244D02*
X126304984Y-95201554D01*
X128500704Y-93180224D02*
X128904994Y-93180224D01*
X129054934Y-91866774D02*
X129291874Y-91629834D01*
X125744634Y-94078114D02*
X125744634Y-93973094D01*
X127598104Y-93778664D02*
X127770514Y-93778664D01*
X128752594Y-94043824D02*
X129006594Y-93789824D01*
X123922934Y-94913214D02*
X124407084Y-94913214D01*
X134170304Y-88831694D02*
X134253064Y-88831694D01*
X124614504Y-94207424D02*
X125615324Y-94207424D01*
X128588994Y-94207424D02*
X128752304Y-94044114D01*
X128752304Y-94044114D02*
X128752594Y-94043824D01*
X129692394Y-91629834D02*
X129851224Y-91788664D01*
X127899824Y-94681054D02*
X128029144Y-94810364D01*
X129054934Y-92631414D02*
X129054934Y-91866774D01*
X129851224Y-92348454D02*
X129997194Y-92494424D01*
X128500704Y-92697624D02*
X128988714Y-92697624D01*
X130653074Y-92270344D02*
X130653074Y-91068624D01*
X128396994Y-93076514D02*
X128500704Y-93180224D01*
X122931544Y-95785844D02*
X123060854Y-95915154D01*
X122282664Y-94913214D02*
X122802234Y-94913214D01*
X128396994Y-92801334D02*
X128500704Y-92697624D01*
X131215204Y-90832614D02*
X131451684Y-90596134D01*
X128330864Y-94336734D02*
X128460174Y-94207424D01*
X123362584Y-95785844D02*
X123362584Y-94571414D01*
X127037754Y-95072244D02*
X127037754Y-93973094D01*
X126477404Y-95201554D02*
X126606714Y-95072244D01*
X129006594Y-93789824D02*
X129006594Y-93281824D01*
X123233274Y-95915154D02*
X123362584Y-95785844D01*
X122931544Y-95785844D02*
X122931544Y-95042524D01*
X133768454Y-89233544D02*
X134170304Y-88831694D01*
X123793624Y-94783904D02*
X123793624Y-94571414D01*
X126304984Y-95201554D02*
X126477404Y-95201554D01*
X124407084Y-94913214D02*
X124407284Y-94913024D01*
X128460174Y-94207424D02*
X128588994Y-94207424D01*
X128988714Y-92697624D02*
X129054934Y-92631414D01*
X131451684Y-90596134D02*
X131451684Y-90270014D01*
X125744634Y-93973094D02*
X125873954Y-93843784D01*
X126046364Y-93843784D02*
X126175674Y-93973094D01*
X126175674Y-95072244D02*
X126175674Y-93973094D01*
X126908444Y-93843784D02*
X127037754Y-93973094D01*
X127339474Y-95201554D02*
X127468794Y-95072244D01*
X126606714Y-95072244D02*
X126606714Y-93973094D01*
X121696984Y-94913214D02*
X122250194Y-94913214D01*
X130653074Y-91068624D02*
X130889084Y-90832614D01*
X128330864Y-94681054D02*
X128330864Y-94336734D01*
X127468794Y-93907974D02*
X127598104Y-93778664D01*
X130889084Y-90832614D02*
X131215204Y-90832614D01*
X122250194Y-94913214D02*
X122282664Y-94913214D01*
X129997194Y-92494424D02*
X130428994Y-92494424D01*
X123362584Y-94571414D02*
X123491894Y-94442104D01*
X128396994Y-93076514D02*
X128396994Y-92801334D01*
X124510794Y-94311134D02*
X124614504Y-94207424D01*
X133053074Y-89794744D02*
X133053074Y-89468624D01*
X125615324Y-94207424D02*
X125744634Y-94078114D01*
X127167064Y-95201554D02*
X127339474Y-95201554D01*
X126736024Y-93843784D02*
X126908444Y-93843784D01*
X123060854Y-95915154D02*
X123233274Y-95915154D01*
X128201554Y-94810364D02*
X128330864Y-94681054D01*
X131688154Y-90033544D02*
X132656604Y-90033544D01*
X124407284Y-94913024D02*
X124510794Y-94809504D01*
%TO.N,PS_MIO33_501_USB0_D1*%
X169494194Y-93459624D02*
X170284464Y-94249894D01*
X169605804Y-88879224D02*
X170720814Y-88879224D01*
X142071204Y-105686034D02*
X144263164Y-105686034D01*
X133537294Y-99231674D02*
X133935444Y-98833524D01*
X168253654Y-100948564D02*
X169341794Y-99860424D01*
X140253634Y-100995314D02*
X140489354Y-101231034D01*
X169480434Y-87763154D02*
X170720814Y-87763154D01*
X170103794Y-96152024D02*
X170284464Y-95971354D01*
X136869904Y-97233534D02*
X137718794Y-98082424D01*
X160684024Y-102723134D02*
X162295674Y-102723134D01*
X140614394Y-103060824D02*
X140614394Y-102375024D01*
X140489354Y-101231034D02*
X140815474Y-101231034D01*
X171576994Y-83909224D02*
X171576994Y-83502824D01*
X169494194Y-84391824D02*
X169773594Y-84112424D01*
X170720814Y-87205114D02*
X170832424Y-87316724D01*
X169494194Y-84861354D02*
X169605804Y-84972964D01*
X169480434Y-88321194D02*
X170720814Y-88321194D01*
X169494194Y-84861354D02*
X169494194Y-84391824D01*
X138889074Y-99630744D02*
X139215194Y-99630744D01*
X171373794Y-84112424D02*
X171576994Y-83909224D01*
X141173194Y-104788024D02*
X141173194Y-103619624D01*
X139453524Y-100195194D02*
X139689304Y-100430974D01*
X140614394Y-102375024D02*
X141051194Y-101938224D01*
X169773594Y-84112424D02*
X171373794Y-84112424D01*
X169511904Y-86647074D02*
X170720814Y-86647074D01*
X169368834Y-88209584D02*
X169368834Y-87874764D01*
X170720814Y-88879224D02*
X170832424Y-88767624D01*
X169511904Y-86089034D02*
X170720814Y-86089034D01*
X170832424Y-88767624D02*
X170832424Y-88432794D01*
X140614394Y-103060824D02*
X141173194Y-103619624D01*
X170832424Y-86535474D02*
X170832424Y-86200644D01*
X133935444Y-98833524D02*
X134414274Y-98833524D01*
X162295674Y-102723134D02*
X164070244Y-100948564D01*
X170720814Y-86089034D02*
X170832424Y-86200644D01*
X169494194Y-88990834D02*
X169605804Y-88879224D01*
X169400294Y-87093504D02*
X169511904Y-87205114D01*
X134651214Y-98596584D02*
X134651214Y-97470464D01*
X155918034Y-103991604D02*
X156965144Y-102944494D01*
X169400294Y-85977434D02*
X169400294Y-85642604D01*
X137718794Y-98460474D02*
X137718794Y-98082424D01*
X169400294Y-86758684D02*
X169511904Y-86647074D01*
X169494194Y-93459624D02*
X169494194Y-88990834D01*
X138653064Y-99394734D02*
X138889074Y-99630744D01*
X137718794Y-98460474D02*
X138088144Y-98829814D01*
X164070244Y-100948564D02*
X168253654Y-100948564D01*
X139215194Y-99630744D02*
X139453524Y-99869074D01*
X140253634Y-100995314D02*
X140253634Y-100669194D01*
X138653064Y-99394734D02*
X138653064Y-99068614D01*
X134651214Y-97470464D02*
X134888154Y-97233534D01*
X169400294Y-85977434D02*
X169511904Y-86089034D01*
X141173194Y-104788024D02*
X142071204Y-105686034D01*
X170720814Y-84972964D02*
X170832424Y-85084574D01*
X134888154Y-97233534D02*
X136869904Y-97233534D01*
X169341794Y-96406024D02*
X169595794Y-96152024D01*
X149214324Y-104976494D02*
X150199214Y-103991604D01*
X144474864Y-105474334D02*
X146866104Y-105474334D01*
X170720814Y-85531004D02*
X170832424Y-85419394D01*
X140015424Y-100430974D02*
X140253634Y-100669194D01*
X170720814Y-87763154D02*
X170832424Y-87651544D01*
X170832424Y-85419394D02*
X170832424Y-85084574D01*
X170720814Y-86647074D02*
X170832424Y-86535474D01*
X170284464Y-95971354D02*
X170284464Y-94249894D01*
X160462664Y-102944494D02*
X160684024Y-102723134D01*
X147363944Y-104976494D02*
X149214324Y-104976494D01*
X146866104Y-105474334D02*
X147363944Y-104976494D01*
X169368834Y-87874764D02*
X169480434Y-87763154D01*
X156965144Y-102944494D02*
X160462664Y-102944494D01*
X169605804Y-84972964D02*
X170720814Y-84972964D01*
X169511904Y-87205114D02*
X170720814Y-87205114D01*
X169511904Y-85531004D02*
X170720814Y-85531004D01*
X133453064Y-99231674D02*
X133537294Y-99231674D01*
X139453524Y-100195194D02*
X139453524Y-99869074D01*
X169595794Y-96152024D02*
X170103794Y-96152024D01*
X150199214Y-103991604D02*
X155918034Y-103991604D01*
X141051194Y-101938224D02*
X141051194Y-101466754D01*
X139689304Y-100430974D02*
X140015424Y-100430974D01*
X138088144Y-98829814D02*
X138414264Y-98829814D01*
X170832424Y-87651544D02*
X170832424Y-87316724D01*
X169368834Y-88209584D02*
X169480434Y-88321194D01*
X170720814Y-88321194D02*
X170832424Y-88432794D01*
X169400294Y-85642604D02*
X169511904Y-85531004D01*
X138414264Y-98829814D02*
X138653064Y-99068614D01*
X169341794Y-99860424D02*
X169341794Y-96406024D01*
X144263164Y-105686034D02*
X144474864Y-105474334D01*
X140815474Y-101231034D02*
X141051194Y-101466754D01*
X134414274Y-98833524D02*
X134651214Y-98596584D01*
X169400294Y-87093504D02*
X169400294Y-86758684D01*
%TO.N,PS_MIO34_501_USB0_D2*%
X148574514Y-107990204D02*
X148686124Y-108101814D01*
X146608794Y-107328024D02*
X147346834Y-107328024D01*
X149132554Y-107990204D02*
X149132554Y-107382864D01*
X165832774Y-102950864D02*
X165944384Y-103062474D01*
X168622964Y-103064844D02*
X168622964Y-102562834D01*
X148128084Y-107271254D02*
X148462904Y-107271254D01*
X153708464Y-107328024D02*
X154769834Y-107328024D01*
X135853064Y-101547444D02*
X136251204Y-101149294D01*
X137329604Y-101122234D02*
X137667994Y-101460624D01*
X167506884Y-103167474D02*
X167506884Y-102510504D01*
X151253094Y-108101814D02*
X151364704Y-107990204D01*
X137667994Y-104178424D02*
X141731994Y-108242424D01*
X149132554Y-107382864D02*
X149244154Y-107271254D01*
X148686124Y-108101814D02*
X149020944Y-108101814D01*
X167618494Y-102398904D02*
X167953314Y-102398904D01*
X173050194Y-85458624D02*
X174777394Y-85458624D01*
X169263104Y-102451224D02*
X173659794Y-98054534D01*
X168734574Y-102451224D02*
X169263104Y-102451224D01*
X152927214Y-107271254D02*
X153038814Y-107382864D01*
X136488144Y-100433524D02*
X136817974Y-100433524D01*
X149690594Y-107990204D02*
X149690594Y-107382864D01*
X147458434Y-107965734D02*
X147570044Y-108077344D01*
X136251204Y-100670464D02*
X136488144Y-100433524D01*
X166948844Y-103167474D02*
X166948844Y-102510504D01*
X167060454Y-103279084D02*
X167395274Y-103279084D01*
X153150424Y-108500994D02*
X153485244Y-108500994D01*
X172858984Y-80900034D02*
X173880014Y-80900034D01*
X147458434Y-107965734D02*
X147458434Y-107439634D01*
X172679864Y-81079154D02*
X172858984Y-80900034D01*
X168622964Y-102562834D02*
X168734574Y-102451224D01*
X149690594Y-107990204D02*
X149802194Y-108101814D01*
X162896424Y-104173474D02*
X164618674Y-102451224D01*
X161063414Y-104394834D02*
X161284774Y-104173474D01*
X145694394Y-108242424D02*
X146608794Y-107328024D01*
X141731994Y-108242424D02*
X145694394Y-108242424D01*
X153485244Y-108500994D02*
X153596854Y-108389394D01*
X150918274Y-108101814D02*
X151253094Y-108101814D01*
X137667994Y-104178424D02*
X137667994Y-101460624D01*
X168511354Y-103176454D02*
X168622964Y-103064844D01*
X147904864Y-108077344D02*
X148016474Y-107965734D01*
X167506884Y-102510504D02*
X167618494Y-102398904D01*
X168064924Y-103064844D02*
X168064924Y-102510504D01*
X151922744Y-107827664D02*
X151922744Y-107382864D01*
X174777394Y-85458624D02*
X175285394Y-85966624D01*
X150248624Y-107382864D02*
X150360234Y-107271254D01*
X153038814Y-108389394D02*
X153038814Y-107382864D01*
X166279204Y-103062474D02*
X166390814Y-102950864D01*
X151364704Y-107990204D02*
X151364704Y-107382864D01*
X148574514Y-107990204D02*
X148574514Y-107382864D01*
X166502414Y-102398904D02*
X166837244Y-102398904D01*
X150137024Y-108101814D02*
X150248624Y-107990204D01*
X173659794Y-98054534D02*
X173659794Y-89689674D01*
X150806664Y-107990204D02*
X150806664Y-107382864D01*
X153596854Y-108389394D02*
X153596854Y-107439634D01*
X152369174Y-107939274D02*
X152480784Y-107827664D01*
X164618674Y-102451224D02*
X165721164Y-102451224D01*
X153038814Y-108389394D02*
X153150424Y-108500994D01*
X149020944Y-108101814D02*
X149132554Y-107990204D01*
X147570044Y-108077344D02*
X147904864Y-108077344D01*
X149244154Y-107271254D02*
X149578984Y-107271254D01*
X148462904Y-107271254D02*
X148574514Y-107382864D01*
X151364704Y-107382864D02*
X151476314Y-107271254D01*
X175285394Y-88064074D02*
X175285394Y-85966624D01*
X152480784Y-107382864D02*
X152592384Y-107271254D01*
X152034344Y-107939274D02*
X152369174Y-107939274D01*
X165832774Y-102950864D02*
X165832774Y-102562834D01*
X136817974Y-100433524D02*
X137329604Y-100945144D01*
X167395274Y-103279084D02*
X167506884Y-103167474D01*
X161284774Y-104173474D02*
X162896424Y-104173474D01*
X166390814Y-102950864D02*
X166390814Y-102510504D01*
X153596854Y-107439634D02*
X153708464Y-107328024D01*
X154769834Y-107328024D02*
X157703024Y-104394834D01*
X148016474Y-107965734D02*
X148016474Y-107382864D01*
X152592384Y-107271254D02*
X152927214Y-107271254D01*
X147346834Y-107328024D02*
X147458434Y-107439634D01*
X149802194Y-108101814D02*
X150137024Y-108101814D01*
X172679864Y-85088284D02*
X173050194Y-85458624D01*
X148016474Y-107382864D02*
X148128084Y-107271254D01*
X150248624Y-107990204D02*
X150248624Y-107382864D01*
X137329604Y-101122234D02*
X137329604Y-100945144D01*
X149578984Y-107271254D02*
X149690594Y-107382864D01*
X151476314Y-107271254D02*
X151811134Y-107271254D01*
X136251204Y-101149294D02*
X136251204Y-100670464D01*
X150806664Y-107990204D02*
X150918274Y-108101814D01*
X172679864Y-85088284D02*
X172679864Y-81079154D01*
X165944384Y-103062474D02*
X166279204Y-103062474D01*
X151922744Y-107827664D02*
X152034344Y-107939274D01*
X168064924Y-103064844D02*
X168176534Y-103176454D01*
X168176534Y-103176454D02*
X168511354Y-103176454D01*
X150695054Y-107271254D02*
X150806664Y-107382864D01*
X135853064Y-101631664D02*
X135853064Y-101547444D01*
X152480784Y-107827664D02*
X152480784Y-107382864D01*
X173659794Y-89689674D02*
X175285394Y-88064074D01*
X166390814Y-102510504D02*
X166502414Y-102398904D01*
X167953314Y-102398904D02*
X168064924Y-102510504D01*
X165721164Y-102451224D02*
X165832774Y-102562834D01*
X151811134Y-107271254D02*
X151922744Y-107382864D01*
X150360234Y-107271254D02*
X150695054Y-107271254D01*
X166837244Y-102398904D02*
X166948844Y-102510504D01*
X157703024Y-104394834D02*
X161063414Y-104394834D01*
X166948844Y-103167474D02*
X167060454Y-103279084D01*
%TO.N,PS_MIO28_501_USB0_D4*%
X175488594Y-91707024D02*
X175488594Y-89395624D01*
X175488594Y-89395624D02*
X176428394Y-88455824D01*
X175132994Y-84112424D02*
X174624994Y-84112424D01*
X174810000Y-92385618D02*
X175488594Y-91707024D01*
X174624994Y-84112424D02*
X173761394Y-83248824D01*
X176428394Y-85407824D02*
X175132994Y-84112424D01*
X176428394Y-88455824D02*
X176428394Y-85407824D01*
X174810000Y-99010000D02*
X174810000Y-92385618D01*
%TO.N,PS_MIO37_501_USB0_D5*%
X172146464Y-90195354D02*
X172146464Y-89860534D01*
X157582874Y-104104764D02*
X160943264Y-104104764D01*
X172258074Y-89748924D02*
X173258114Y-89748924D01*
X145287994Y-107836024D02*
X145313394Y-107836024D01*
X169195274Y-102108834D02*
X172915194Y-98388914D01*
X172679864Y-87963204D02*
X172791474Y-88074814D01*
X172258074Y-90306964D02*
X173258114Y-90306964D01*
X172146464Y-91311434D02*
X172258074Y-91423034D01*
X143525344Y-107952354D02*
X143860174Y-107952354D01*
X142855704Y-106998124D02*
X142967314Y-106886524D01*
X173258114Y-95329304D02*
X173369724Y-95217694D01*
X160943264Y-104104764D02*
X161164624Y-103883404D01*
X173258114Y-89748924D02*
X173369724Y-89637314D01*
X162776274Y-103883404D02*
X164550844Y-102108834D01*
X143860174Y-107952354D02*
X143971784Y-107840744D01*
X173258114Y-91423034D02*
X173369724Y-91534644D01*
X172258074Y-88632844D02*
X174194794Y-88632844D01*
X154706454Y-106981184D02*
X157582874Y-104104764D01*
X173369724Y-90753394D02*
X173369724Y-90418574D01*
X173258114Y-94213224D02*
X173369724Y-94101624D01*
X172972344Y-92427504D02*
X173083954Y-92539114D01*
X172601624Y-97673064D02*
X172713234Y-97561454D01*
X173258114Y-91981074D02*
X173369724Y-91869474D01*
X173083954Y-91981074D02*
X173258114Y-91981074D01*
X172972344Y-92427504D02*
X172972344Y-92092684D01*
X172146464Y-96891814D02*
X172146464Y-96556984D01*
X174320194Y-86847124D02*
X174320194Y-86271424D01*
X174306404Y-88521244D02*
X174306404Y-88186414D01*
X172679864Y-87963204D02*
X172679864Y-87628384D01*
X172258074Y-97003414D02*
X173258114Y-97003414D01*
X138253054Y-102452084D02*
X138253054Y-101631664D01*
X143302134Y-106886524D02*
X143413744Y-106998124D01*
X173369724Y-89637314D02*
X173369724Y-89302494D01*
X173258114Y-93655194D02*
X173369724Y-93766794D01*
X172258074Y-90865004D02*
X173258114Y-90865004D01*
X174194794Y-88632844D02*
X174306404Y-88521244D01*
X172601624Y-98007884D02*
X172601624Y-97673064D01*
X173258114Y-97003414D02*
X173369724Y-97115024D01*
X173369724Y-96333774D02*
X173369724Y-95998954D01*
X172713234Y-98119494D02*
X172803584Y-98119494D01*
X172791474Y-88074814D02*
X174194794Y-88074814D01*
X172146464Y-89079284D02*
X172258074Y-89190884D01*
X174995324Y-87405164D02*
X174995324Y-87070344D01*
X173083954Y-92539114D02*
X173258114Y-92539114D01*
X173369724Y-97449854D02*
X173369724Y-97115024D01*
X144529814Y-107724414D02*
X144641424Y-107836024D01*
X172915194Y-98388914D02*
X172915194Y-98231104D01*
X161164624Y-103883404D02*
X162776274Y-103883404D01*
X142855704Y-107724414D02*
X142855704Y-106998124D01*
X172146464Y-89860534D02*
X172258074Y-89748924D01*
X146168234Y-106981184D02*
X154706454Y-106981184D01*
X144529814Y-107724414D02*
X144529814Y-106998124D01*
X172258074Y-95329304D02*
X173258114Y-95329304D01*
X143413744Y-107840744D02*
X143413744Y-106998124D01*
X172146464Y-89079284D02*
X172146464Y-88744454D01*
X144418214Y-106886524D02*
X144529814Y-106998124D01*
X141735814Y-107836024D02*
X142744094Y-107836024D01*
X173258114Y-94771264D02*
X173369724Y-94882874D01*
X138760194Y-104860404D02*
X138760194Y-102959224D01*
X173258114Y-97561454D02*
X173369724Y-97449854D01*
X172679864Y-87628384D02*
X172791474Y-87516774D01*
X142967314Y-106886524D02*
X143302134Y-106886524D01*
X173369724Y-91869474D02*
X173369724Y-91534644D01*
X142744094Y-107836024D02*
X142855704Y-107724414D01*
X173369724Y-95217694D02*
X173369724Y-94882874D01*
X173258114Y-92539114D02*
X173369724Y-92650724D01*
X174883714Y-86958734D02*
X174995324Y-87070344D01*
X172146464Y-95440914D02*
X172258074Y-95329304D01*
X143413744Y-107840744D02*
X143525344Y-107952354D01*
X138760194Y-104860404D02*
X141735814Y-107836024D01*
X173258114Y-90865004D02*
X173369724Y-90753394D01*
X172258074Y-91423034D02*
X173258114Y-91423034D01*
X172146464Y-95775734D02*
X172146464Y-95440914D01*
X172972344Y-92092684D02*
X173083954Y-91981074D01*
X173258114Y-93097154D02*
X173369724Y-92985544D01*
X172146464Y-95775734D02*
X172258074Y-95887344D01*
X172146464Y-88744454D02*
X172258074Y-88632844D01*
X172258074Y-95887344D02*
X173258114Y-95887344D01*
X174431804Y-86958734D02*
X174883714Y-86958734D01*
X172146464Y-90195354D02*
X172258074Y-90306964D01*
X172146464Y-91311434D02*
X172146464Y-90976604D01*
X138253054Y-102452084D02*
X138760194Y-102959224D01*
X173218194Y-93655194D02*
X173258114Y-93655194D01*
X144641424Y-107836024D02*
X145287994Y-107836024D01*
X173369724Y-92985544D02*
X173369724Y-92650724D01*
X173106584Y-93543584D02*
X173218194Y-93655194D01*
X143971784Y-107840744D02*
X143971784Y-106998124D01*
X174883714Y-87516774D02*
X174995324Y-87405164D01*
X144083384Y-106886524D02*
X144418214Y-106886524D01*
X143971784Y-106998124D02*
X144083384Y-106886524D01*
X173106584Y-93208764D02*
X173218194Y-93097154D01*
X172713234Y-97561454D02*
X173258114Y-97561454D01*
X172146464Y-94659664D02*
X172146464Y-94324834D01*
X172146464Y-90976604D02*
X172258074Y-90865004D01*
X174194794Y-88074814D02*
X174306404Y-88186414D01*
X172146464Y-94659664D02*
X172258074Y-94771264D01*
X172258074Y-89190884D02*
X173258114Y-89190884D01*
X174320194Y-86847124D02*
X174431804Y-86958734D01*
X172146464Y-96556984D02*
X172258074Y-96445384D01*
X172258074Y-94213224D02*
X173258114Y-94213224D01*
X173258114Y-90306964D02*
X173369724Y-90418574D01*
X172146464Y-94324834D02*
X172258074Y-94213224D01*
X145313394Y-107836024D02*
X146168234Y-106981184D01*
X172258074Y-94771264D02*
X173258114Y-94771264D01*
X173258114Y-89190884D02*
X173369724Y-89302494D01*
X173258114Y-95887344D02*
X173369724Y-95998954D01*
X173106584Y-93543584D02*
X173106584Y-93208764D01*
X173258114Y-96445384D02*
X173369724Y-96333774D01*
X172791474Y-87516774D02*
X174883714Y-87516774D01*
X172803584Y-98119494D02*
X172915194Y-98231104D01*
X172258074Y-96445384D02*
X173258114Y-96445384D01*
X172601624Y-98007884D02*
X172713234Y-98119494D01*
X173218194Y-93097154D02*
X173258114Y-93097154D01*
X173369724Y-94101624D02*
X173369724Y-93766794D01*
X164550844Y-102108834D02*
X169195274Y-102108834D01*
X172146464Y-96891814D02*
X172258074Y-97003414D01*
%TO.N,PS_MIO38_501_USB0_D6*%
X154130254Y-104393284D02*
X154241864Y-104281674D01*
X148264214Y-105764404D02*
X148610794Y-106110984D01*
X151898104Y-104393284D02*
X152009714Y-104281674D01*
X140741674Y-104831994D02*
X141885784Y-105976094D01*
X171210724Y-93339624D02*
X171210724Y-93004794D01*
X138088144Y-99629814D02*
X138414264Y-99629814D01*
X138414264Y-99629814D02*
X138651204Y-99866754D01*
X171018194Y-99055254D02*
X171018194Y-98377954D01*
X170906584Y-97708304D02*
X171018194Y-97596704D01*
X168834824Y-101238624D02*
X171018194Y-99055254D01*
X170906584Y-94009264D02*
X171018194Y-94120874D01*
X171210724Y-91107474D02*
X171210724Y-90772644D01*
X135059004Y-98425734D02*
X135059004Y-98100614D01*
X152567744Y-105069074D02*
X152902574Y-105069074D01*
X169784264Y-91665504D02*
X169895874Y-91777114D01*
X151786494Y-105284974D02*
X151898104Y-105173374D01*
X170906584Y-90103004D02*
X171018194Y-89991394D01*
X152344534Y-104281674D02*
X152456144Y-104393284D01*
X171210724Y-92223544D02*
X171210724Y-91888724D01*
X141885784Y-105976094D02*
X144383314Y-105976094D01*
X151340064Y-105173374D02*
X151340064Y-104393284D01*
X169784264Y-90549434D02*
X169784264Y-90214604D01*
X153125784Y-104281674D02*
X153460614Y-104281674D01*
X137453064Y-98994734D02*
X137453064Y-98299284D01*
X170454054Y-93897664D02*
X170454054Y-93562834D01*
X135059004Y-98100614D02*
X135126094Y-98033524D01*
X153014184Y-104393284D02*
X153125784Y-104281674D01*
X151898104Y-105173374D02*
X151898104Y-104393284D01*
X162415824Y-103013194D02*
X164190394Y-101238624D01*
X169863664Y-97819914D02*
X169975274Y-97708304D01*
X156038174Y-104281674D02*
X157085294Y-103234564D01*
X171099114Y-91219074D02*
X171210724Y-91107474D01*
X169895874Y-90103004D02*
X170906584Y-90103004D01*
X152456144Y-104957464D02*
X152567744Y-105069074D01*
X149504394Y-106110984D02*
X149758394Y-105856984D01*
X140014264Y-101229814D02*
X140251204Y-101466754D01*
X169975274Y-97708304D02*
X170906584Y-97708304D01*
X171099114Y-91777114D02*
X171210724Y-91888724D01*
X171018194Y-97596704D02*
X171018194Y-94120874D01*
X137187304Y-98033524D02*
X137453064Y-98299284D01*
X149758394Y-104940424D02*
X150417144Y-104281674D01*
X171099114Y-92335154D02*
X171210724Y-92223544D01*
X171018194Y-89344824D02*
X171221394Y-89141624D01*
X151340064Y-105173374D02*
X151451674Y-105284974D01*
X152009714Y-104281674D02*
X152344534Y-104281674D01*
X152456144Y-104957464D02*
X152456144Y-104393284D01*
X164190394Y-101238624D02*
X168834824Y-101238624D01*
X171221394Y-89141624D02*
X171221394Y-87592224D01*
X138651204Y-100192884D02*
X138888144Y-100429814D01*
X153572214Y-105173374D02*
X153683824Y-105284974D01*
X153014184Y-104957464D02*
X153014184Y-104393284D01*
X138888144Y-100429814D02*
X139214264Y-100429814D01*
X169784264Y-90549434D02*
X169895874Y-90661034D01*
X135053064Y-98431674D02*
X135059004Y-98425734D01*
X170454054Y-93562834D02*
X170565664Y-93451224D01*
X153683824Y-105284974D02*
X154018644Y-105284974D01*
X169784264Y-91665504D02*
X169784264Y-91330684D01*
X169784264Y-90214604D02*
X169895874Y-90103004D01*
X169863664Y-98154734D02*
X169975274Y-98266344D01*
X171099114Y-90661034D02*
X171210724Y-90772644D01*
X169895874Y-92335154D02*
X171099114Y-92335154D01*
X154241864Y-104281674D02*
X156038174Y-104281674D01*
X151451674Y-105284974D02*
X151786494Y-105284974D01*
X137453064Y-98994734D02*
X138088144Y-99629814D01*
X171018194Y-89991394D02*
X171018194Y-89344824D01*
X154130254Y-105173374D02*
X154130254Y-104393284D01*
X140251204Y-103336444D02*
X140251204Y-101466754D01*
X170906584Y-98266344D02*
X171018194Y-98377954D01*
X169863664Y-98154734D02*
X169863664Y-97819914D01*
X138651204Y-100192884D02*
X138651204Y-99866754D01*
X153460614Y-104281674D02*
X153572214Y-104393284D01*
X170565664Y-94009264D02*
X170906584Y-94009264D01*
X140741674Y-104831994D02*
X140741674Y-103826914D01*
X144383314Y-105976094D02*
X144595014Y-105764404D01*
X169784264Y-92781584D02*
X169895874Y-92893194D01*
X150417144Y-104281674D02*
X151228454Y-104281674D01*
X169784264Y-92446764D02*
X169895874Y-92335154D01*
X139451204Y-100992874D02*
X139451204Y-100666754D01*
X148610794Y-106110984D02*
X149504394Y-106110984D01*
X170454054Y-93897664D02*
X170565664Y-94009264D01*
X139451204Y-100992874D02*
X139688144Y-101229814D01*
X171099114Y-93451224D02*
X171210724Y-93339624D01*
X139214264Y-100429814D02*
X139451204Y-100666754D01*
X169784264Y-92781584D02*
X169784264Y-92446764D01*
X169895874Y-91777114D02*
X171099114Y-91777114D01*
X171221394Y-87592224D02*
X171627794Y-87185824D01*
X169784264Y-91330684D02*
X169895874Y-91219074D01*
X169895874Y-91219074D02*
X171099114Y-91219074D01*
X160582814Y-103234564D02*
X160804174Y-103013194D01*
X152902574Y-105069074D02*
X153014184Y-104957464D01*
X151228454Y-104281674D02*
X151340064Y-104393284D01*
X144595014Y-105764404D02*
X148264214Y-105764404D01*
X170565664Y-93451224D02*
X171099114Y-93451224D01*
X169975274Y-98266344D02*
X170906584Y-98266344D01*
X169895874Y-90661034D02*
X171099114Y-90661034D01*
X140251204Y-103336444D02*
X140741674Y-103826914D01*
X169895874Y-92893194D02*
X171099114Y-92893194D01*
X153572214Y-105173374D02*
X153572214Y-104393284D01*
X157085294Y-103234564D02*
X160582814Y-103234564D01*
X154018644Y-105284974D02*
X154130254Y-105173374D01*
X149758394Y-105856984D02*
X149758394Y-104940424D01*
X171099114Y-92893194D02*
X171210724Y-93004794D01*
X139688144Y-101229814D02*
X140014264Y-101229814D01*
X160804174Y-103013194D02*
X162415824Y-103013194D01*
X135126094Y-98033524D02*
X137187304Y-98033524D01*
%TO.N,PS_MIO39_501_USB0_D7*%
X177480000Y-85016618D02*
X177495194Y-85001424D01*
X177480000Y-98460000D02*
X177480000Y-85016618D01*
%TO.N,PS_MIO30_501_USB0_STP*%
X145671404Y-106369044D02*
X145993474Y-106691114D01*
X176707794Y-74409624D02*
X176830024Y-74531844D01*
X134888154Y-100429814D02*
X136017974Y-100429814D01*
X134653064Y-100194734D02*
X134888154Y-100429814D01*
X138417974Y-101233524D02*
X138654914Y-101470464D01*
X175102984Y-75501824D02*
X175345264Y-75744104D01*
X136251204Y-100196584D02*
X136251204Y-99876584D01*
X140140934Y-105101964D02*
X141595204Y-106556234D01*
X173354994Y-77279824D02*
X174949904Y-77279824D01*
X171856394Y-99037494D02*
X171856394Y-88151024D01*
X140140934Y-105101964D02*
X140140934Y-104289164D01*
X133935444Y-99633524D02*
X134417984Y-99633524D01*
X174119104Y-75501824D02*
X175102984Y-75501824D01*
X137497924Y-100639594D02*
X137497924Y-100223754D01*
X144810804Y-106369044D02*
X145671404Y-106369044D01*
X136488144Y-99633524D02*
X136907694Y-99633524D01*
X174949904Y-77279824D02*
X175345264Y-76884464D01*
X136251204Y-99876584D02*
X136254914Y-99872874D01*
X144623614Y-106556234D02*
X144810804Y-106369044D01*
X137497924Y-100639594D02*
X138088144Y-101229814D01*
X134653064Y-100194734D02*
X134653064Y-99868614D01*
X172389794Y-78245024D02*
X173354994Y-77279824D01*
X138411854Y-101233524D02*
X138417974Y-101233524D01*
X133453064Y-100031674D02*
X133537294Y-100031674D01*
X138088144Y-101229814D02*
X138408154Y-101229814D01*
X172389794Y-87617624D02*
X172389794Y-78245024D01*
X133537294Y-100031674D02*
X133935444Y-99633524D01*
X164430694Y-101818764D02*
X169075124Y-101818764D01*
X138408154Y-101229814D02*
X138411854Y-101233524D01*
X169075124Y-101818764D02*
X171856394Y-99037494D01*
X145993474Y-106691114D02*
X154586304Y-106691114D01*
X138654914Y-101990334D02*
X138861794Y-102197224D01*
X162656124Y-103593334D02*
X164430694Y-101818764D01*
X136254914Y-99866754D02*
X136488144Y-99633524D01*
X157462724Y-103814694D02*
X160823114Y-103814694D01*
X175345264Y-76884464D02*
X175345264Y-75744104D01*
X141595204Y-106556234D02*
X144623614Y-106556234D01*
X138861794Y-102197224D02*
X139255494Y-102590924D01*
X174015394Y-75398114D02*
X174015394Y-74513334D01*
X176830024Y-76480024D02*
X176830024Y-74531844D01*
X138654914Y-101990334D02*
X138654914Y-101470464D01*
X174015394Y-74513334D02*
X174119104Y-74409624D01*
X134417984Y-99633524D02*
X134653064Y-99868614D01*
X160823114Y-103814694D02*
X161044474Y-103593334D01*
X161044474Y-103593334D02*
X162656124Y-103593334D01*
X154586304Y-106691114D02*
X157462724Y-103814694D01*
X136017974Y-100429814D02*
X136251204Y-100196584D01*
X171856394Y-88151024D02*
X172389794Y-87617624D01*
X136907694Y-99633524D02*
X137497924Y-100223754D01*
X139255494Y-103403724D02*
X139255494Y-102590924D01*
X139255494Y-103403724D02*
X140140934Y-104289164D01*
X174119104Y-74409624D02*
X176707794Y-74409624D01*
X174015394Y-75398114D02*
X174119104Y-75501824D01*
X136254914Y-99872874D02*
X136254914Y-99866754D01*
%TO.N,PS_MIO29_501_USB0_DIR*%
X138414264Y-100429814D02*
X138654914Y-100670464D01*
X137291854Y-99633524D02*
X138088144Y-100429814D01*
X136017974Y-99629814D02*
X136253064Y-99394734D01*
X138088144Y-100429814D02*
X138414264Y-100429814D01*
X138654914Y-101007304D02*
X138881124Y-101233524D01*
X139572994Y-102197224D02*
X139712694Y-102336924D01*
X139454914Y-102079134D02*
X139454914Y-101470464D01*
X168954974Y-101528694D02*
X171566324Y-98917344D01*
X164310544Y-101528694D02*
X168954974Y-101528694D01*
X136253064Y-99394734D02*
X136253064Y-99068604D01*
X139712694Y-103275074D02*
X139712694Y-102336924D01*
X140431004Y-104931544D02*
X141765634Y-106266164D01*
X160702964Y-103524624D02*
X160924324Y-103303264D01*
X160924324Y-103303264D02*
X162535974Y-103303264D01*
X135053064Y-100031674D02*
X135137294Y-100031674D01*
X139217974Y-101233524D02*
X139454914Y-101470464D01*
X136253064Y-99068604D02*
X136488144Y-98833524D01*
X137291854Y-99633524D02*
X137291854Y-99307404D01*
X157244794Y-103524624D02*
X160702964Y-103524624D01*
X135137294Y-100031674D02*
X135539144Y-99629814D01*
X173532794Y-76492424D02*
X174751994Y-76492424D01*
X145791554Y-106078974D02*
X146113624Y-106401054D01*
X136817974Y-98833524D02*
X137291854Y-99307404D01*
X139712694Y-103275074D02*
X140431004Y-103993384D01*
X144503464Y-106266164D02*
X144690654Y-106078974D01*
X171566324Y-87958494D02*
X172084994Y-87439824D01*
X141765634Y-106266164D02*
X144503464Y-106266164D01*
X146113624Y-106401054D02*
X154368364Y-106401054D01*
X136488144Y-98833524D02*
X136817974Y-98833524D01*
X139454914Y-102079134D02*
X139572994Y-102197224D01*
X140431004Y-104931544D02*
X140431004Y-103993384D01*
X135539144Y-99629814D02*
X136017974Y-99629814D01*
X172084994Y-87439824D02*
X172084994Y-77940224D01*
X138654914Y-101007304D02*
X138654914Y-100670464D01*
X154368364Y-106401054D02*
X157244794Y-103524624D01*
X172084994Y-77940224D02*
X173532794Y-76492424D01*
X162535974Y-103303264D02*
X164310544Y-101528694D01*
X144690654Y-106078974D02*
X145791554Y-106078974D01*
X171566324Y-98917344D02*
X171566324Y-87958494D01*
X138881124Y-101233524D02*
X139217974Y-101233524D01*
%TO.N,/Sheet3/PS-DDR-BA1*%
X148194094Y-86855904D02*
X148361504Y-86688494D01*
X153049024Y-86688494D02*
X153216434Y-86855904D01*
X147636054Y-88245614D02*
X147803464Y-88413024D01*
X151374904Y-87490454D02*
X151542324Y-87323044D01*
X152658394Y-88245614D02*
X152658394Y-86855904D01*
X153941884Y-86804824D02*
X154914594Y-86804824D01*
X143053044Y-88506374D02*
X144502034Y-87057384D01*
X152658394Y-86855904D02*
X152825804Y-86688494D01*
X148584714Y-86688494D02*
X148752134Y-86855904D01*
X152100354Y-88245614D02*
X152267774Y-88413024D01*
X145262594Y-86804824D02*
X147468644Y-86804824D01*
X153774474Y-87345784D02*
X153774474Y-86972234D01*
X158056184Y-89944084D02*
X158142654Y-89857624D01*
X151542324Y-86855904D02*
X151709734Y-86688494D01*
X150035614Y-88213764D02*
X150258834Y-88213764D01*
X153216434Y-87345784D02*
X153216434Y-86855904D01*
X150984284Y-87323044D02*
X150984284Y-86855904D01*
X150258834Y-88213764D02*
X150426244Y-88046354D01*
X151709734Y-86688494D02*
X151932944Y-86688494D01*
X155092394Y-89725824D02*
X155308804Y-89942224D01*
X155092394Y-89725824D02*
X155092394Y-86982624D01*
X152100354Y-88245614D02*
X152100354Y-86855904D01*
X144502034Y-87057384D02*
X145010034Y-87057384D01*
X150426244Y-86855904D02*
X150593654Y-86688494D01*
X147468644Y-86804824D02*
X147636054Y-86972234D01*
X149477584Y-86688494D02*
X149700794Y-86688494D01*
X158142654Y-89857624D02*
X158142654Y-89436434D01*
X149310164Y-88245614D02*
X149310164Y-86855904D01*
X145010034Y-87057384D02*
X145262594Y-86804824D01*
X149310164Y-86855904D02*
X149477584Y-86688494D01*
X155964454Y-89944084D02*
X158056184Y-89944084D01*
X151542324Y-87323044D02*
X151542324Y-86855904D01*
X158076444Y-89370224D02*
X158142654Y-89436434D01*
X154914594Y-86804824D02*
X155092394Y-86982624D01*
X153607064Y-87513194D02*
X153774474Y-87345784D01*
X148919544Y-88413024D02*
X149142754Y-88413024D01*
X150984284Y-87323044D02*
X151151694Y-87490454D01*
X148361504Y-86688494D02*
X148584714Y-86688494D01*
X151932944Y-86688494D02*
X152100354Y-86855904D01*
X147636054Y-88245614D02*
X147636054Y-86972234D01*
X147803464Y-88413024D02*
X148026684Y-88413024D01*
X150816874Y-86688494D02*
X150984284Y-86855904D01*
X157007094Y-89542234D02*
X157179104Y-89370224D01*
X149700794Y-86688494D02*
X149868204Y-86855904D01*
X152267774Y-88413024D02*
X152490984Y-88413024D01*
X153774474Y-86972234D02*
X153941884Y-86804824D01*
X149868204Y-88046354D02*
X149868204Y-86855904D01*
X148752134Y-88245614D02*
X148919544Y-88413024D01*
X152490984Y-88413024D02*
X152658394Y-88245614D01*
X150426244Y-88046354D02*
X150426244Y-86855904D01*
X143053044Y-89631694D02*
X143053044Y-88506374D01*
X151151694Y-87490454D02*
X151374904Y-87490454D01*
X157179104Y-89370224D02*
X158076444Y-89370224D01*
X153383844Y-87513194D02*
X153607064Y-87513194D01*
X148752134Y-88245614D02*
X148752134Y-86855904D01*
X156940804Y-89542234D02*
X157007094Y-89542234D01*
X153216434Y-87345784D02*
X153383844Y-87513194D01*
X149142754Y-88413024D02*
X149310164Y-88245614D01*
X148026684Y-88413024D02*
X148194094Y-88245614D01*
X150593654Y-86688494D02*
X150816874Y-86688494D01*
X155308804Y-89942224D02*
X155964454Y-89942224D01*
X148194094Y-88245614D02*
X148194094Y-86855904D01*
X152825804Y-86688494D02*
X153049024Y-86688494D01*
X149868204Y-88046354D02*
X150035614Y-88213764D01*
%TO.N,/Sheet3/PS-DDR-CAS*%
X145287994Y-89116224D02*
X145389594Y-89014624D01*
X144172544Y-88153174D02*
X144297394Y-88278024D01*
X151536394Y-88786024D02*
X153314394Y-88786024D01*
X144729194Y-87349654D02*
X144795404Y-87283444D01*
X146481794Y-89497224D02*
X146481794Y-87466244D01*
X160515194Y-91516624D02*
X160940794Y-91942224D01*
X143388694Y-90029834D02*
X143454904Y-89963624D01*
X144043394Y-89217824D02*
X144231184Y-89217824D01*
X144576794Y-89725824D02*
X144729194Y-89573424D01*
X144231184Y-89217824D02*
X144297394Y-89151614D01*
X143957204Y-89725824D02*
X144576794Y-89725824D01*
X145851184Y-88862224D02*
X145851184Y-87418814D01*
X147167594Y-88735224D02*
X150444194Y-88735224D01*
X143890994Y-89659614D02*
X143890994Y-89370224D01*
X142253054Y-90431694D02*
X142335804Y-90431694D01*
X143454904Y-88587114D02*
X143888844Y-88153174D01*
X144729194Y-89573424D02*
X144729194Y-87349654D01*
X143890994Y-89659614D02*
X143957204Y-89725824D01*
X158375884Y-89944084D02*
X160314454Y-89944084D01*
X144297394Y-89151614D02*
X144297394Y-88278024D01*
X145287994Y-89471824D02*
X145414994Y-89598824D01*
X143454904Y-89963624D02*
X143454904Y-88587114D01*
X155120054Y-90744084D02*
X157575884Y-90744084D01*
X160515194Y-91516624D02*
X160515194Y-90144824D01*
X150444194Y-88735224D02*
X150698194Y-88481224D01*
X154457394Y-88455824D02*
X154736794Y-88735224D01*
X143890994Y-89370224D02*
X144043394Y-89217824D01*
X147015194Y-88582824D02*
X147167594Y-88735224D01*
X145715814Y-87283444D02*
X145851184Y-87418814D01*
X145414994Y-89598824D02*
X146380194Y-89598824D01*
X154736794Y-90360824D02*
X154736794Y-88735224D01*
X142737664Y-90029834D02*
X143388694Y-90029834D01*
X146380194Y-89598824D02*
X146481794Y-89497224D01*
X145287994Y-89471824D02*
X145287994Y-89116224D01*
X157575884Y-90744084D02*
X158375884Y-89944084D01*
X154736794Y-90360824D02*
X155120054Y-90744084D01*
X145698784Y-89014624D02*
X145851184Y-88862224D01*
X151231594Y-88481224D02*
X151536394Y-88786024D01*
X147015194Y-88582824D02*
X147015194Y-87566824D01*
X144795404Y-87283444D02*
X145715814Y-87283444D01*
X146481794Y-87466244D02*
X146559014Y-87389024D01*
X142335804Y-90431694D02*
X142737664Y-90029834D01*
X160314454Y-89944084D02*
X160515194Y-90144824D01*
X150698194Y-88481224D02*
X151231594Y-88481224D01*
X153314394Y-88786024D02*
X153644594Y-88455824D01*
X146837394Y-87389024D02*
X147015194Y-87566824D01*
X153644594Y-88455824D02*
X154457394Y-88455824D01*
X146559014Y-87389024D02*
X146837394Y-87389024D01*
X145389594Y-89014624D02*
X145698784Y-89014624D01*
X143888844Y-88153174D02*
X144172544Y-88153174D01*
%TO.N,/Sheet3/PS-DDR-RAS*%
X160289134Y-92675594D02*
X160289134Y-90502964D01*
X154863794Y-91544084D02*
X157362984Y-91544084D01*
X153519704Y-91544084D02*
X153999174Y-91544084D01*
X154584394Y-90843424D02*
X154736794Y-90995824D01*
X153415994Y-91440374D02*
X153415994Y-89219934D01*
X149453594Y-89090824D02*
X149783794Y-89421024D01*
X159029394Y-91391684D02*
X159029394Y-90310024D01*
X157530794Y-92799224D02*
X157987994Y-92799224D01*
X158089594Y-92697624D02*
X158089594Y-91671084D01*
X159867594Y-90477834D02*
X159933804Y-90411624D01*
X146529674Y-90033544D02*
X147472394Y-89090824D01*
X151587194Y-89116224D02*
X153312284Y-89116224D01*
X159130994Y-90208424D02*
X159384994Y-90208424D01*
X159933804Y-90411624D02*
X160197794Y-90411624D01*
X154076394Y-91466854D02*
X154076394Y-90995824D01*
X159801384Y-92914314D02*
X159867594Y-92848094D01*
X143053044Y-90431694D02*
X143388324Y-90431694D01*
X160289134Y-92675594D02*
X160355344Y-92741804D01*
X159029394Y-90310024D02*
X159130994Y-90208424D01*
X150952194Y-89751224D02*
X151587194Y-89116224D01*
X154736794Y-91417084D02*
X154736794Y-90995824D01*
X157987994Y-92799224D02*
X158089594Y-92697624D01*
X154076394Y-90995824D02*
X154228794Y-90843424D01*
X158876994Y-91544084D02*
X159029394Y-91391684D01*
X158216594Y-91544084D02*
X158876994Y-91544084D01*
X149783794Y-90538624D02*
X149910794Y-90665624D01*
X149910794Y-90665624D02*
X150848484Y-90665624D01*
X147472394Y-89090824D02*
X149453594Y-89090824D01*
X143786474Y-90033544D02*
X146529674Y-90033544D01*
X159384994Y-90208424D02*
X159461194Y-90284624D01*
X160940374Y-92741804D02*
X160940794Y-92742224D01*
X160197794Y-90411624D02*
X160289134Y-90502964D01*
X159095604Y-92914314D02*
X159801384Y-92914314D01*
X154736794Y-91417084D02*
X154863794Y-91544084D01*
X153415994Y-91440374D02*
X153519704Y-91544084D01*
X150952194Y-90561914D02*
X150952194Y-89751224D01*
X153312284Y-89116224D02*
X153415994Y-89219934D01*
X159461194Y-92037224D02*
X159461194Y-90284624D01*
X143388324Y-90431694D02*
X143786474Y-90033544D01*
X149783794Y-90538624D02*
X149783794Y-89421024D01*
X157429194Y-92697624D02*
X157530794Y-92799224D01*
X159029394Y-92848094D02*
X159095604Y-92914314D01*
X157362984Y-91544084D02*
X157429194Y-91610294D01*
X160355344Y-92741804D02*
X160940374Y-92741804D01*
X158089594Y-91671084D02*
X158216594Y-91544084D01*
X159867594Y-92848094D02*
X159867594Y-90477834D01*
X159095604Y-92164224D02*
X159334194Y-92164224D01*
X153999174Y-91544084D02*
X154076394Y-91466854D01*
X154228794Y-90843424D02*
X154584394Y-90843424D01*
X150848484Y-90665624D02*
X150952194Y-90561914D01*
X159029394Y-92230434D02*
X159095604Y-92164224D01*
X159334194Y-92164224D02*
X159461194Y-92037224D01*
X159029394Y-92848094D02*
X159029394Y-92230434D01*
X157429194Y-92697624D02*
X157429194Y-91610294D01*
%TO.N,/Sheet3/PS-DDR-ODT*%
X141854904Y-90750784D02*
X141854904Y-90266774D01*
X142652474Y-88373544D02*
X144195794Y-86830224D01*
X163256564Y-91942224D02*
X163340794Y-91942224D01*
X145287994Y-86398424D02*
X155193994Y-86398424D01*
X144856194Y-86830224D02*
X145287994Y-86398424D01*
X141854904Y-90266774D02*
X142090684Y-90030994D01*
X162081654Y-92046154D02*
X162375874Y-92340374D01*
X142090684Y-90030994D02*
X142416804Y-90030994D01*
X141854904Y-90750784D02*
X142253054Y-91148934D01*
X142652474Y-89795324D02*
X142652474Y-88373544D01*
X142416804Y-90030994D02*
X142652474Y-89795324D01*
X155524194Y-88864684D02*
X155524194Y-86728624D01*
X161493194Y-87114844D02*
X161559404Y-87048634D01*
X162081654Y-92046154D02*
X162081654Y-87114844D01*
X161315394Y-89144084D02*
X161493194Y-88966284D01*
X155193994Y-86398424D02*
X155524194Y-86728624D01*
X155524194Y-88864684D02*
X155803594Y-89144084D01*
X161559404Y-87048634D02*
X162015444Y-87048634D01*
X144195794Y-86830224D02*
X144856194Y-86830224D01*
X161493194Y-88966284D02*
X161493194Y-87114844D01*
X142253054Y-91231684D02*
X142253054Y-91148934D01*
X162858424Y-92340374D02*
X163256564Y-91942224D01*
X162375874Y-92340374D02*
X162858424Y-92340374D01*
X155803594Y-89144084D02*
X161315394Y-89144084D01*
X162015444Y-87048634D02*
X162081654Y-87114844D01*
%TO.N,/Sheet3/PS-DDR-CKE*%
X155174894Y-92060974D02*
X155278244Y-91957614D01*
X148646044Y-92194104D02*
X148813454Y-92026694D01*
X148422824Y-92194104D02*
X148646044Y-92194104D01*
X151887934Y-92062344D02*
X152055344Y-92229754D01*
X143865594Y-90284624D02*
X144180384Y-90284624D01*
X154845534Y-92060974D02*
X155174894Y-92060974D01*
X143525404Y-91222324D02*
X143843684Y-91222324D01*
X146632544Y-92060974D02*
X147529964Y-92060974D01*
X153004014Y-92576794D02*
X153171424Y-92744204D01*
X148813454Y-92026694D02*
X148813454Y-89612334D01*
X153729454Y-91834154D02*
X153952674Y-91834154D01*
X144180384Y-90284624D02*
X144246594Y-90350834D01*
X152445974Y-92062344D02*
X152445974Y-90005504D01*
X154510714Y-92744204D02*
X154678124Y-92576794D01*
X144246594Y-90741824D02*
X144338314Y-90833544D01*
X147697374Y-91893564D02*
X147697374Y-91390184D01*
X151329894Y-90515864D02*
X151497304Y-90348454D01*
X155278244Y-91957614D02*
X156125414Y-91957614D01*
X154678124Y-92228384D02*
X154845534Y-92060974D01*
X147529964Y-92060974D02*
X147697374Y-91893564D01*
X148088004Y-91222774D02*
X148255414Y-91390184D01*
X151497304Y-90348454D02*
X151720524Y-90348454D01*
X149538904Y-92060974D02*
X151162484Y-92060974D01*
X143459194Y-90691024D02*
X143865594Y-90284624D01*
X144246594Y-90741824D02*
X144246594Y-90350834D01*
X152055344Y-92229754D02*
X152278564Y-92229754D01*
X151720524Y-90348454D02*
X151887934Y-90515864D01*
X146126194Y-91554624D02*
X146632544Y-92060974D01*
X152613384Y-89838094D02*
X152836594Y-89838094D01*
X145338794Y-90437024D02*
X147114684Y-90437024D01*
X151329894Y-91893564D02*
X151329894Y-90515864D01*
X154678124Y-92576794D02*
X154678124Y-92228384D01*
X149371494Y-91893564D02*
X149371494Y-89612334D01*
X151887934Y-92062344D02*
X151887934Y-90515864D01*
X153562044Y-92576794D02*
X153562044Y-92001564D01*
X147114684Y-90437024D02*
X147218394Y-90540734D01*
X147697374Y-91390184D02*
X147864784Y-91222774D01*
X147114684Y-91173624D02*
X147218394Y-91069914D01*
X143843684Y-91222324D02*
X143853044Y-91231684D01*
X148980864Y-89444924D02*
X149204074Y-89444924D01*
X148813454Y-89612334D02*
X148980864Y-89444924D01*
X148255414Y-92026694D02*
X148422824Y-92194104D01*
X154120084Y-92576794D02*
X154120084Y-92001564D01*
X147218394Y-91069914D02*
X147218394Y-90540734D01*
X151162484Y-92060974D02*
X151329894Y-91893564D01*
X152836594Y-89838094D02*
X153004014Y-90005504D01*
X143459194Y-91156114D02*
X143525404Y-91222324D01*
X149204074Y-89444924D02*
X149371494Y-89612334D01*
X146126194Y-91554624D02*
X146126194Y-91277334D01*
X147864784Y-91222774D02*
X148088004Y-91222774D01*
X153394634Y-92744204D02*
X153562044Y-92576794D01*
X156125414Y-91957614D02*
X156140804Y-91942224D01*
X144942274Y-90833544D02*
X145338794Y-90437024D01*
X146126194Y-91277334D02*
X146229904Y-91173624D01*
X144338314Y-90833544D02*
X144942274Y-90833544D01*
X154287494Y-92744204D02*
X154510714Y-92744204D01*
X143459194Y-91156114D02*
X143459194Y-90691024D01*
X152445974Y-90005504D02*
X152613384Y-89838094D01*
X153171424Y-92744204D02*
X153394634Y-92744204D01*
X154120084Y-92576794D02*
X154287494Y-92744204D01*
X146229904Y-91173624D02*
X147114684Y-91173624D01*
X153952674Y-91834154D02*
X154120084Y-92001564D01*
X148255414Y-92026694D02*
X148255414Y-91390184D01*
X149371494Y-91893564D02*
X149538904Y-92060974D01*
X153562044Y-92001564D02*
X153729454Y-91834154D01*
X152278564Y-92229754D02*
X152445974Y-92062344D01*
X153004014Y-92576794D02*
X153004014Y-90005504D01*
%TO.N,/Sheet3/PS-DDR-WE*%
X165404794Y-94068204D02*
X165404794Y-91124934D01*
X161366194Y-93739024D02*
X163525194Y-93739024D01*
X161338944Y-92519824D02*
X161338944Y-91540374D01*
X146656874Y-92519824D02*
X152055344Y-92519824D01*
X162050144Y-93231024D02*
X163779194Y-93231024D01*
X160940794Y-91142234D02*
X161338944Y-91540374D01*
X142651194Y-91633544D02*
X145770594Y-91633544D01*
X142253054Y-92031684D02*
X142651194Y-91633544D01*
X163906194Y-93104024D02*
X163906194Y-91173624D01*
X145770594Y-91633544D02*
X146656874Y-92519824D01*
X165098974Y-94374024D02*
X165404794Y-94068204D01*
X163779194Y-93231024D02*
X163906194Y-93104024D01*
X163906194Y-91173624D02*
X164058594Y-91021224D01*
X152055344Y-92519824D02*
X152675894Y-93140374D01*
X163525194Y-93739024D02*
X164160194Y-94374024D01*
X164058594Y-91021224D02*
X165301084Y-91021224D01*
X152675894Y-93140374D02*
X160767544Y-93140374D01*
X165301084Y-91021224D02*
X165404794Y-91124934D01*
X160767544Y-93140374D02*
X161366194Y-93739024D01*
X161338944Y-92519824D02*
X162050144Y-93231024D01*
X164160194Y-94374024D02*
X165098974Y-94374024D01*
%TO.N,/Sheet3/PS-DDR-BA0*%
X163880794Y-89548024D02*
X164337994Y-89090824D01*
X163729844Y-90740374D02*
X163880794Y-90589424D01*
X161529334Y-94740364D02*
X165775054Y-94740364D01*
X152349234Y-93430434D02*
X159419314Y-93430434D01*
X165775054Y-94740364D02*
X166065194Y-94450224D01*
X162938934Y-90740374D02*
X163729844Y-90740374D01*
X161188394Y-94399424D02*
X161529334Y-94740364D01*
X163880794Y-90589424D02*
X163880794Y-89548024D01*
X159419314Y-93430434D02*
X160388294Y-94399424D01*
X145821394Y-92433544D02*
X146306964Y-92919114D01*
X146306964Y-92919114D02*
X151837904Y-92919114D01*
X160388294Y-94399424D02*
X161188394Y-94399424D01*
X166065194Y-94450224D02*
X166065194Y-89395624D01*
X162540794Y-90342234D02*
X162938934Y-90740374D01*
X151837904Y-92919114D02*
X152349234Y-93430434D01*
X142253054Y-92831684D02*
X142651194Y-92433544D01*
X142651194Y-92433544D02*
X145821394Y-92433544D01*
X165760394Y-89090824D02*
X166065194Y-89395624D01*
X164337994Y-89090824D02*
X165760394Y-89090824D01*
%TO.N,/Sheet3/DDR-DQ12*%
X159359594Y-95948824D02*
X159511174Y-95797244D01*
X158800794Y-95544074D02*
X158938944Y-95682224D01*
X159486594Y-99657224D02*
X159486594Y-98184024D01*
X159005154Y-96304424D02*
X159293384Y-96304424D01*
X155856044Y-95544074D02*
X158800794Y-95544074D01*
X158540804Y-99942214D02*
X159201604Y-99942214D01*
X159242934Y-97940364D02*
X159486594Y-98184024D01*
X160070794Y-96583824D02*
X160070794Y-96050424D01*
X143853044Y-95231684D02*
X143853044Y-95147454D01*
X151818584Y-94503814D02*
X154815784Y-94503814D01*
X154815784Y-94503814D02*
X155856044Y-95544074D01*
X144424394Y-93891424D02*
X151206194Y-93891424D01*
X143853044Y-95147454D02*
X144251194Y-94749304D01*
X158049134Y-97940364D02*
X159242934Y-97940364D01*
X158069364Y-97140364D02*
X159514254Y-97140364D01*
X159359594Y-96238214D02*
X159359594Y-95948824D01*
X157860994Y-97752224D02*
X157860994Y-97348734D01*
X144251194Y-94749304D02*
X144251194Y-94064624D01*
X144251194Y-94064624D02*
X144424394Y-93891424D01*
X151206194Y-93891424D02*
X151818584Y-94503814D01*
X157860994Y-97752224D02*
X158049134Y-97940364D01*
X159201604Y-99942214D02*
X159486594Y-99657224D01*
X159293384Y-96304424D02*
X159359594Y-96238214D01*
X158938944Y-96238214D02*
X158938944Y-95682224D01*
X159511174Y-95797244D02*
X159817624Y-95797244D01*
X157860994Y-97348734D02*
X158069364Y-97140364D01*
X159514254Y-97140364D02*
X160070794Y-96583824D01*
X159817624Y-95797244D02*
X160070794Y-96050424D01*
X158938944Y-96238214D02*
X159005154Y-96304424D01*
%TO.N,/Sheet3/DDR-DQ15*%
X143688134Y-95629824D02*
X144017964Y-95629824D01*
X160940794Y-99942214D02*
X161005004Y-99942214D01*
X155818044Y-94744074D02*
X159179594Y-94744074D01*
X143916394Y-93586624D02*
X151460194Y-93586624D01*
X161005004Y-99942214D02*
X161005004Y-99878004D01*
X144970674Y-94833534D02*
X145368814Y-95231684D01*
X143454904Y-94048114D02*
X143916394Y-93586624D01*
X144017964Y-95629824D02*
X144254904Y-95392884D01*
X155244794Y-94170824D02*
X155818044Y-94744074D01*
X160775884Y-96340364D02*
X161148134Y-96340364D01*
X143454904Y-95396594D02*
X143688134Y-95629824D01*
X161148134Y-96340364D02*
X161594794Y-96787024D01*
X143454904Y-95396594D02*
X143454904Y-94048114D01*
X161594794Y-99288214D02*
X161594794Y-96787024D01*
X145368814Y-95231684D02*
X145453044Y-95231684D01*
X151460194Y-93586624D02*
X152044394Y-94170824D01*
X161005004Y-99878004D02*
X161594794Y-99288214D01*
X152044394Y-94170824D02*
X155244794Y-94170824D01*
X144254904Y-95066764D02*
X144488134Y-94833534D01*
X144254904Y-95392884D02*
X144254904Y-95066764D01*
X144488134Y-94833534D02*
X144970674Y-94833534D01*
X159179594Y-94744074D02*
X160775884Y-96340364D01*
%TO.N,/Sheet3/DDR-DQ11*%
X142654904Y-93933714D02*
X143357594Y-93231024D01*
X143368434Y-95629824D02*
X143770284Y-96031674D01*
X159145644Y-93789824D02*
X160096194Y-94740364D01*
X152298394Y-93789824D02*
X159145644Y-93789824D01*
X142654904Y-95396594D02*
X142654904Y-93933714D01*
X143770284Y-96031674D02*
X143853044Y-96031674D01*
X161122944Y-94740364D02*
X162026594Y-95644024D01*
X142888134Y-95629824D02*
X143368434Y-95629824D01*
X151739594Y-93231024D02*
X152298394Y-93789824D01*
X162026594Y-97828014D02*
X162540794Y-98342214D01*
X142654904Y-95396594D02*
X142888134Y-95629824D01*
X143357594Y-93231024D02*
X151739594Y-93231024D01*
X160096194Y-94740364D02*
X161122944Y-94740364D01*
X162026594Y-97828014D02*
X162026594Y-95644024D01*
%TO.N,/Sheet3/DDR-DQ13*%
X145054894Y-101913324D02*
X145922994Y-102781424D01*
X159598434Y-102030854D02*
X161687074Y-99942214D01*
X144653044Y-96124814D02*
X144653044Y-96031674D01*
X143454904Y-98596584D02*
X143689984Y-98831674D01*
X155944564Y-102030854D02*
X159598434Y-102030854D01*
X143454904Y-98596584D02*
X143454904Y-98259344D01*
X143454904Y-98259344D02*
X143684424Y-98029824D01*
X155193994Y-102781424D02*
X155944564Y-102030854D01*
X144016104Y-98831674D02*
X144254904Y-99070464D01*
X143689984Y-98831674D02*
X144016104Y-98831674D01*
X144017964Y-98029824D02*
X144254904Y-97792884D01*
X144491844Y-99633524D02*
X144817964Y-99633524D01*
X144254904Y-97792884D02*
X144254904Y-96666764D01*
X144254904Y-96666764D02*
X144477254Y-96444414D01*
X144477254Y-96300604D02*
X144653044Y-96124814D01*
X161687074Y-99942214D02*
X162540794Y-99942214D01*
X144254904Y-99396584D02*
X144491844Y-99633524D01*
X144817964Y-99633524D02*
X145054894Y-99870464D01*
X143684424Y-98029824D02*
X144017964Y-98029824D01*
X145922994Y-102781424D02*
X155193994Y-102781424D01*
X144254904Y-99396584D02*
X144254904Y-99070464D01*
X144477254Y-96444414D02*
X144477254Y-96300604D01*
X145054894Y-101913324D02*
X145054894Y-99870464D01*
%TO.N,/Sheet3/DDR-DQ14*%
X153985404Y-97013824D02*
X154208624Y-97013824D01*
X149911734Y-96846414D02*
X149911734Y-95391494D01*
X152701924Y-96742164D02*
X152869334Y-96909574D01*
X152534504Y-95820204D02*
X152701924Y-95987614D01*
X154025594Y-98082424D02*
X155316774Y-98082424D01*
X151195214Y-95820204D02*
X151418434Y-95820204D01*
X145453044Y-96031674D02*
X145506644Y-95978074D01*
X154543444Y-96177424D02*
X155092394Y-96177424D01*
X145506644Y-95978074D02*
X145944544Y-95978074D01*
X151976474Y-96909574D02*
X152143884Y-96742164D01*
X146380194Y-95542424D02*
X148259794Y-95542424D01*
X150302354Y-95224084D02*
X150469764Y-95391494D01*
X151585844Y-96742164D02*
X151753254Y-96909574D01*
X153092544Y-96909574D02*
X153259954Y-96742164D01*
X151753254Y-96909574D02*
X151976474Y-96909574D01*
X152143884Y-95987614D02*
X152311294Y-95820204D01*
X148259794Y-95542424D02*
X148894794Y-96177424D01*
X151585844Y-96742164D02*
X151585844Y-95987614D01*
X153427364Y-95820204D02*
X153650584Y-95820204D01*
X150469764Y-96672064D02*
X150469764Y-95391494D01*
X156538954Y-98740364D02*
X156940804Y-99142214D01*
X151027804Y-95987614D02*
X151195214Y-95820204D01*
X155316774Y-98082424D02*
X155420484Y-97978714D01*
X153817994Y-96846414D02*
X153985404Y-97013824D01*
X149911734Y-95391494D02*
X150079144Y-95224084D01*
X145944544Y-95978074D02*
X146380194Y-95542424D01*
X152143884Y-96742164D02*
X152143884Y-95987614D01*
X149744314Y-97013824D02*
X149911734Y-96846414D01*
X154376034Y-96846414D02*
X154376034Y-96344834D01*
X148894794Y-96177424D02*
X149186284Y-96177424D01*
X149521104Y-97013824D02*
X149744314Y-97013824D01*
X155420484Y-97978714D02*
X155420484Y-96505514D01*
X149353694Y-96846414D02*
X149353694Y-96344834D01*
X150860394Y-96839474D02*
X151027804Y-96672064D01*
X151418434Y-95820204D02*
X151585844Y-95987614D01*
X149186284Y-96177424D02*
X149353694Y-96344834D01*
X152311294Y-95820204D02*
X152534504Y-95820204D01*
X153650584Y-95820204D02*
X153817994Y-95987614D01*
X153873194Y-98539624D02*
X153873194Y-98234824D01*
X150079144Y-95224084D02*
X150302354Y-95224084D01*
X154073934Y-98740364D02*
X156538954Y-98740364D01*
X154376034Y-96344834D02*
X154543444Y-96177424D01*
X153259954Y-95987614D02*
X153427364Y-95820204D01*
X152701924Y-96742164D02*
X152701924Y-95987614D01*
X150469764Y-96672064D02*
X150637174Y-96839474D01*
X153817994Y-96846414D02*
X153817994Y-95987614D01*
X153259954Y-96742164D02*
X153259954Y-95987614D01*
X149353694Y-96846414D02*
X149521104Y-97013824D01*
X152869334Y-96909574D02*
X153092544Y-96909574D01*
X153873194Y-98234824D02*
X154025594Y-98082424D01*
X153873194Y-98539624D02*
X154073934Y-98740364D01*
X155092394Y-96177424D02*
X155420484Y-96505514D01*
X150637174Y-96839474D02*
X150860394Y-96839474D01*
X154208624Y-97013824D02*
X154376034Y-96846414D01*
X151027804Y-96672064D02*
X151027804Y-95987614D01*
%TO.N,/Sheet3/PS-DDR-A11*%
X142968824Y-96831674D02*
X143053044Y-96831674D01*
X152272654Y-85342014D02*
X152440064Y-85509424D01*
X141617044Y-95632604D02*
X141853054Y-95868614D01*
X151882024Y-84192874D02*
X152105244Y-84192874D01*
X152440064Y-85509424D02*
X157429194Y-85509424D01*
X151714614Y-84360284D02*
X151882024Y-84192874D01*
X157835594Y-87237034D02*
X157835594Y-85915824D01*
X141051194Y-95392884D02*
X141290914Y-95632604D01*
X150431124Y-85509424D02*
X150598534Y-85342014D01*
X143412264Y-85509424D02*
X150431124Y-85509424D01*
X150598534Y-84360284D02*
X150765954Y-84192874D01*
X151156574Y-85451754D02*
X151156574Y-84360284D01*
X150765954Y-84192874D02*
X150989164Y-84192874D01*
X141290914Y-95632604D02*
X141617044Y-95632604D01*
X140816114Y-90740344D02*
X140816114Y-90031694D01*
X157429194Y-85509424D02*
X157835594Y-85915824D01*
X151714614Y-85451754D02*
X151714614Y-84360284D01*
X141853054Y-96194734D02*
X141853054Y-95868614D01*
X140816114Y-90031694D02*
X141052124Y-89795674D01*
X152105244Y-84192874D02*
X152272654Y-84360284D01*
X150598534Y-85342014D02*
X150598534Y-84360284D01*
X157835594Y-87237034D02*
X158540804Y-87942234D01*
X140816114Y-90740344D02*
X141051194Y-90975424D01*
X141853054Y-96194734D02*
X142091844Y-96433534D01*
X141052124Y-89795674D02*
X141052124Y-87869554D01*
X152272654Y-85342014D02*
X152272654Y-84360284D01*
X151323984Y-85619164D02*
X151547204Y-85619164D01*
X151547204Y-85619164D02*
X151714614Y-85451754D01*
X142570674Y-96433534D02*
X142968824Y-96831674D01*
X141051194Y-95392884D02*
X141051194Y-90975424D01*
X150989164Y-84192874D02*
X151156574Y-84360284D01*
X142091844Y-96433534D02*
X142570674Y-96433534D01*
X151156574Y-85451754D02*
X151323984Y-85619164D01*
X141052124Y-87869554D02*
X143412264Y-85509424D01*
%TO.N,/Sheet3/DDR-DQ10*%
X152627934Y-94793884D02*
X152851144Y-94793884D01*
X157239814Y-98641224D02*
X157540784Y-98641224D01*
X149972424Y-94934014D02*
X150488164Y-94934014D01*
X143853044Y-96831674D02*
X143853044Y-96748914D01*
X151344444Y-94961294D02*
X151511854Y-94793884D01*
X157987994Y-95821824D02*
X158142654Y-95976484D01*
X148010444Y-94311994D02*
X149315374Y-94311994D01*
X156677534Y-97940364D02*
X157540784Y-97940364D01*
X156542654Y-97805484D02*
X156542654Y-97267164D01*
X155625794Y-96101224D02*
X155625794Y-95796424D01*
X153018554Y-95362724D02*
X153018554Y-94961294D01*
X151902484Y-95362724D02*
X152069894Y-95530134D01*
X144251194Y-96350774D02*
X144251194Y-95870474D01*
X144488134Y-95633534D02*
X145614254Y-95633534D01*
X151902484Y-95362724D02*
X151902484Y-94961294D01*
X157540784Y-98641224D02*
X157606994Y-98575014D01*
X153576594Y-95362724D02*
X153576594Y-95100234D01*
X153744004Y-94932824D02*
X154762194Y-94932824D01*
X152460514Y-95362724D02*
X152460514Y-94961294D01*
X151177034Y-95530134D02*
X151344444Y-95362724D01*
X150786404Y-95362724D02*
X150953814Y-95530134D01*
X149315374Y-94311994D02*
X149937394Y-94934014D01*
X147906734Y-94415704D02*
X148010444Y-94311994D01*
X145999194Y-94221624D02*
X146734774Y-94221624D01*
X145897594Y-95350184D02*
X145897594Y-94323224D01*
X151344444Y-95362724D02*
X151344444Y-94961294D01*
X156542654Y-97805484D02*
X156677534Y-97940364D01*
X150488164Y-94934014D02*
X150489354Y-94932824D01*
X153185964Y-95530134D02*
X153409184Y-95530134D01*
X158142654Y-96733964D02*
X158142654Y-95976484D01*
X155625794Y-96101224D02*
X155864934Y-96340364D01*
X154762194Y-94932824D02*
X155625794Y-95796424D01*
X157606994Y-98575014D02*
X157606994Y-98006574D01*
X156542654Y-97267164D02*
X156669454Y-97140364D01*
X144251194Y-95870474D02*
X144488134Y-95633534D01*
X146913594Y-94882024D02*
X147777194Y-94882024D01*
X156669454Y-97140364D02*
X157736254Y-97140364D01*
X153018554Y-95362724D02*
X153185964Y-95530134D01*
X147777194Y-94882024D02*
X147906734Y-94752484D01*
X152293104Y-95530134D02*
X152460514Y-95362724D01*
X146811994Y-94780424D02*
X146913594Y-94882024D01*
X150953814Y-95530134D02*
X151177034Y-95530134D01*
X156940804Y-98342214D02*
X157239814Y-98641224D01*
X150786404Y-95362724D02*
X150786404Y-95100234D01*
X155864934Y-96340364D02*
X157113854Y-96340364D01*
X152460514Y-94961294D02*
X152627934Y-94793884D01*
X145614254Y-95633534D02*
X145897594Y-95350184D01*
X153576594Y-95100234D02*
X153744004Y-94932824D01*
X150618994Y-94932824D02*
X150786404Y-95100234D01*
X145897594Y-94323224D02*
X145999194Y-94221624D01*
X152851144Y-94793884D02*
X153018554Y-94961294D01*
X152069894Y-95530134D02*
X152293104Y-95530134D01*
X143853044Y-96748914D02*
X144251194Y-96350774D01*
X151511854Y-94793884D02*
X151735064Y-94793884D01*
X149937394Y-94934014D02*
X149972424Y-94934014D01*
X147906734Y-94752484D02*
X147906734Y-94415704D01*
X153409184Y-95530134D02*
X153576594Y-95362724D01*
X146734774Y-94221624D02*
X146811994Y-94298844D01*
X157113854Y-96340364D02*
X157632394Y-95821824D01*
X157736254Y-97140364D02*
X158142654Y-96733964D01*
X157540784Y-97940364D02*
X157606994Y-98006574D01*
X157632394Y-95821824D02*
X157987994Y-95821824D01*
X146811994Y-94780424D02*
X146811994Y-94298844D01*
X150489354Y-94932824D02*
X150618994Y-94932824D01*
X151735064Y-94793884D02*
X151902484Y-94961294D01*
%TO.N,/Sheet3/PS-DDR-A14*%
X147878794Y-85128424D02*
X150113994Y-82893224D01*
X140254904Y-88332714D02*
X143459194Y-85128424D01*
X150113994Y-82893224D02*
X157200594Y-82893224D01*
X141288144Y-96429824D02*
X141614264Y-96429824D01*
X158540804Y-87142234D02*
X158540804Y-84233434D01*
X142976234Y-97631674D02*
X143053044Y-97631674D01*
X140488144Y-95629824D02*
X140814264Y-95629824D01*
X142088134Y-97229824D02*
X142574384Y-97229824D01*
X141851204Y-96992884D02*
X142088134Y-97229824D01*
X141051204Y-96192884D02*
X141288144Y-96429824D01*
X141851204Y-96992884D02*
X141851204Y-96666764D01*
X140814264Y-95629824D02*
X141051204Y-95866764D01*
X140254904Y-95396594D02*
X140488144Y-95629824D01*
X143459194Y-85128424D02*
X147878794Y-85128424D01*
X141614264Y-96429824D02*
X141851204Y-96666764D01*
X142574384Y-97229824D02*
X142976234Y-97631674D01*
X157200594Y-82893224D02*
X158540804Y-84233434D01*
X140254904Y-95396594D02*
X140254904Y-88332714D01*
X141051204Y-96192884D02*
X141051204Y-95866764D01*
%TO.N,/Sheet3/DDR-UDM*%
X150037794Y-100927224D02*
X150406864Y-101296284D01*
X148005794Y-101383404D02*
X148005794Y-99022224D01*
X159816794Y-97879224D02*
X160153804Y-97542214D01*
X148794214Y-98717424D02*
X149885394Y-98717424D01*
X146615244Y-97631674D02*
X148005794Y-99022224D01*
X150406864Y-101296284D02*
X155020754Y-101296284D01*
X148083014Y-101460624D02*
X148639774Y-101460624D01*
X158487484Y-101138934D02*
X159816794Y-99809624D01*
X155178114Y-101138934D02*
X158487484Y-101138934D01*
X150037794Y-100927224D02*
X150037794Y-98869824D01*
X159816794Y-99809624D02*
X159816794Y-97879224D01*
X148716994Y-101383404D02*
X148716994Y-98794644D01*
X160153804Y-97542214D02*
X160940794Y-97542214D01*
X148716994Y-98794644D02*
X148794214Y-98717424D01*
X148005794Y-101383404D02*
X148083014Y-101460624D01*
X149885394Y-98717424D02*
X150037794Y-98869824D01*
X145453044Y-97631674D02*
X146615244Y-97631674D01*
X155020754Y-101296284D02*
X155178114Y-101138934D01*
X148639774Y-101460624D02*
X148716994Y-101383404D01*
%TO.N,/Sheet3/DDR-DQ9*%
X146304824Y-101533544D02*
X147180014Y-101533544D01*
X146175504Y-100973194D02*
X146304824Y-101102504D01*
X155586934Y-101740784D02*
X158980584Y-101740784D01*
X147180014Y-101102504D02*
X147309324Y-101231814D01*
X146175504Y-100973194D02*
X146175504Y-100800774D01*
X147180014Y-101533544D02*
X147309324Y-101404224D01*
X147218394Y-102248024D02*
X147218394Y-102093884D01*
X154876494Y-102451224D02*
X155586934Y-101740784D01*
X147089084Y-101964574D02*
X147218394Y-102093884D01*
X160352944Y-100368424D02*
X160352944Y-98416684D01*
X147091394Y-99403224D02*
X147218394Y-99530224D01*
X146175504Y-100800774D02*
X146304824Y-100671464D01*
X147218394Y-100542154D02*
X147218394Y-99530224D01*
X147218394Y-102248024D02*
X147421594Y-102451224D01*
X160427414Y-98342214D02*
X160940794Y-98342214D01*
X147309324Y-101404224D02*
X147309324Y-101231814D01*
X146175504Y-101835264D02*
X146304824Y-101964574D01*
X146175504Y-101662854D02*
X146304824Y-101533544D01*
X146278594Y-99403224D02*
X147091394Y-99403224D01*
X147089084Y-100671464D02*
X147218394Y-100542154D01*
X144333954Y-98829814D02*
X145705194Y-98829814D01*
X146304824Y-101102504D02*
X147180014Y-101102504D01*
X146304824Y-100671464D02*
X147089084Y-100671464D01*
X146304824Y-101964574D02*
X147089084Y-101964574D01*
X143853044Y-98431674D02*
X143935804Y-98431674D01*
X146175504Y-101835264D02*
X146175504Y-101662854D01*
X147421594Y-102451224D02*
X154876494Y-102451224D01*
X143935804Y-98431674D02*
X144333954Y-98829814D01*
X160352944Y-98416684D02*
X160427414Y-98342214D01*
X145705194Y-98829814D02*
X146126194Y-99250824D01*
X158980584Y-101740784D02*
X160352944Y-100368424D01*
X146126194Y-99250824D02*
X146278594Y-99403224D01*
%TO.N,/Sheet3/DDR-DQ8*%
X158540804Y-97542214D02*
X159569604Y-97542214D01*
X161105714Y-97144074D02*
X161338944Y-97377304D01*
X160096194Y-98057024D02*
X160209144Y-97944074D01*
X161102004Y-97944074D02*
X161338944Y-97707134D01*
X160209144Y-97944074D02*
X161102004Y-97944074D01*
X154635194Y-102095624D02*
X155143194Y-101587624D01*
X159569604Y-97542214D02*
X159967744Y-97144074D01*
X146534504Y-98033524D02*
X147599394Y-99098424D01*
X147599394Y-101460614D02*
X147599394Y-99098424D01*
X155143194Y-101584064D02*
X155276544Y-101450714D01*
X155276544Y-101450714D02*
X158656994Y-101450714D01*
X145051194Y-98033524D02*
X146534504Y-98033524D01*
X144653044Y-98431674D02*
X145051194Y-98033524D01*
X147599394Y-101460614D02*
X148234404Y-102095624D01*
X158656994Y-101450714D02*
X160094884Y-100012824D01*
X148234404Y-102095624D02*
X154635194Y-102095624D01*
X161338944Y-97707134D02*
X161338944Y-97377304D01*
X160096194Y-100012824D02*
X160096194Y-98057024D01*
X159967744Y-97144074D02*
X161105714Y-97144074D01*
%TO.N,/Sheet3/PS-DDR-A13*%
X156454724Y-86033554D02*
X157479994Y-87058824D01*
X141854904Y-95396594D02*
X141854904Y-91870484D01*
X141616114Y-90831684D02*
X141851194Y-91066774D01*
X141617964Y-90029834D02*
X141854904Y-89792894D01*
X142089994Y-95631684D02*
X142416114Y-95631684D01*
X141054904Y-90596604D02*
X141289994Y-90831684D01*
X142654904Y-98266754D02*
X142889994Y-98031674D01*
X143392264Y-86033554D02*
X156454724Y-86033554D01*
X141291844Y-90029834D02*
X141617964Y-90029834D01*
X141851194Y-91866774D02*
X141854904Y-91870484D01*
X157479994Y-87781584D02*
X158038794Y-88340384D01*
X142891844Y-96433534D02*
X143275504Y-96433534D01*
X143216114Y-98031674D02*
X143451194Y-97796594D01*
X141289994Y-90831684D02*
X141616114Y-90831684D01*
X141054904Y-90596604D02*
X141054904Y-90266774D01*
X141054904Y-90266774D02*
X141291844Y-90029834D01*
X141854904Y-95396594D02*
X142089994Y-95631684D01*
X159742654Y-88340384D02*
X160940794Y-87142234D01*
X142654904Y-96196594D02*
X142891844Y-96433534D01*
X157479994Y-87781584D02*
X157479994Y-87058824D01*
X158038794Y-88340384D02*
X159742654Y-88340384D01*
X142889994Y-98031674D02*
X143216114Y-98031674D01*
X143451194Y-97796594D02*
X143451194Y-96609224D01*
X143053044Y-99231674D02*
X143053044Y-99147444D01*
X142654904Y-98749304D02*
X142654904Y-98266754D01*
X141851194Y-91866774D02*
X141851194Y-91066774D01*
X141854904Y-87570914D02*
X143392264Y-86033554D01*
X141854904Y-89792894D02*
X141854904Y-87570914D01*
X142654904Y-96196594D02*
X142654904Y-95870474D01*
X142654904Y-98749304D02*
X143053044Y-99147444D01*
X143275504Y-96433534D02*
X143451194Y-96609224D01*
X142416114Y-95631684D02*
X142654904Y-95870474D01*
%TO.N,/Sheet3/DDR-UDQS_N*%
X144653044Y-97631674D02*
X145051194Y-97233534D01*
X149527934Y-97705484D02*
X150529714Y-98707264D01*
X155157404Y-99661284D02*
X155240734Y-99744614D01*
X153023804Y-99489584D02*
X153107134Y-99406254D01*
X158475544Y-99142214D02*
X158540804Y-99142214D01*
X157966654Y-100522684D02*
X157966654Y-99182174D01*
X151165554Y-100580584D02*
X151165554Y-99775264D01*
X150529714Y-98707264D02*
X151748554Y-98707264D01*
X155240734Y-100497284D02*
X155240734Y-99744614D01*
X152183604Y-97527684D02*
X152971994Y-97527684D01*
X151165554Y-100580584D02*
X151451234Y-100866264D01*
X151748554Y-98707264D02*
X152034234Y-98421584D01*
X153107134Y-99406254D02*
X153107134Y-97662824D01*
X145634904Y-97233534D02*
X145874144Y-96994284D01*
X154548834Y-100580584D02*
X154548834Y-99744614D01*
X154548834Y-99744614D02*
X154632164Y-99661284D01*
X145874144Y-96994284D02*
X146937134Y-96994284D01*
X146937134Y-96994284D02*
X147648334Y-97705484D01*
X147648334Y-97705484D02*
X149527934Y-97705484D01*
X154632164Y-99661284D02*
X155157404Y-99661284D01*
X157623084Y-100866264D02*
X157966654Y-100522684D01*
X155609714Y-100866264D02*
X157623084Y-100866264D01*
X151165554Y-99775264D02*
X151451234Y-99489584D01*
X151451234Y-99489584D02*
X153023804Y-99489584D01*
X155240734Y-100497284D02*
X155609714Y-100866264D01*
X157966654Y-99182174D02*
X158182164Y-98966664D01*
X152971994Y-97527684D02*
X153107134Y-97662824D01*
X158299994Y-98966664D02*
X158475544Y-99142214D01*
X154263154Y-100866264D02*
X154548834Y-100580584D01*
X145051194Y-97233534D02*
X145634904Y-97233534D01*
X151451234Y-100866264D02*
X154263154Y-100866264D01*
X158182164Y-98966664D02*
X158299994Y-98966664D01*
X152034234Y-98421584D02*
X152034234Y-97677054D01*
X152034234Y-97677054D02*
X152183604Y-97527684D01*
%TO.N,/Sheet3/DDR-UDQS_P*%
X145833094Y-96648844D02*
X145833094Y-96648674D01*
X157479994Y-100520824D02*
X157621214Y-100379604D01*
X158527274Y-98342214D02*
X158540804Y-98342214D01*
X151688794Y-98278494D02*
X151688794Y-97533964D01*
X154120074Y-100520824D02*
X154203394Y-100437494D01*
X151688794Y-97533964D02*
X152040514Y-97182244D01*
X153452574Y-99549344D02*
X153452574Y-97519744D01*
X151594324Y-100520824D02*
X154120074Y-100520824D01*
X153166894Y-99835024D02*
X153452574Y-99549344D01*
X145051194Y-96433534D02*
X145617954Y-96433534D01*
X158248264Y-98621224D02*
X158527274Y-98342214D01*
X151510994Y-99918344D02*
X151594324Y-99835024D01*
X155300494Y-99315844D02*
X155586174Y-99601524D01*
X155586174Y-100354194D02*
X155586174Y-99601524D01*
X145833094Y-96648844D02*
X147080214Y-96648844D01*
X158039074Y-98621224D02*
X158248264Y-98621224D01*
X155752794Y-100520824D02*
X157479994Y-100520824D01*
X153115074Y-97182244D02*
X153452574Y-97519744D01*
X152040514Y-97182244D02*
X153115074Y-97182244D01*
X154203394Y-99601524D02*
X154489074Y-99315844D01*
X145617954Y-96433534D02*
X145833094Y-96648674D01*
X155586174Y-100354194D02*
X155752794Y-100520824D01*
X154203394Y-100437494D02*
X154203394Y-99601524D01*
X150672794Y-98361824D02*
X151605474Y-98361824D01*
X147080214Y-96648844D02*
X147791414Y-97360044D01*
X144653044Y-96831674D02*
X145051194Y-96433534D01*
X157621214Y-99039094D02*
X158039074Y-98621224D01*
X151594324Y-99835024D02*
X153166894Y-99835024D01*
X151605474Y-98361824D02*
X151688794Y-98278494D01*
X149671024Y-97360044D02*
X150672794Y-98361824D01*
X151510994Y-100437494D02*
X151510994Y-99918344D01*
X157621214Y-100379604D02*
X157621214Y-99039094D01*
X147791414Y-97360044D02*
X149671024Y-97360044D01*
X154489074Y-99315844D02*
X155300494Y-99315844D01*
X151510994Y-100437494D02*
X151594324Y-100520824D01*
%TO.N,Net-(U14H-PS_MIO7_500)*%
X141614264Y-100429814D02*
X141851204Y-100666754D01*
X140101884Y-99404684D02*
X140263004Y-99404684D01*
X142654904Y-102053334D02*
X142654904Y-101470464D01*
X141051204Y-100192884D02*
X141288144Y-100429814D01*
X142088134Y-101229814D02*
X142414254Y-101229814D01*
X141851204Y-100992874D02*
X141851204Y-100666754D01*
X140488134Y-99629814D02*
X140814264Y-99629814D01*
X141851204Y-100992874D02*
X142088134Y-101229814D01*
X139853054Y-99231674D02*
X139928864Y-99231674D01*
X140263004Y-99404684D02*
X140488134Y-99629814D01*
X143255994Y-104559424D02*
X143255994Y-102654424D01*
X141051204Y-100192884D02*
X141051204Y-99866754D01*
X142654904Y-102053334D02*
X143255994Y-102654424D01*
X142414254Y-101229814D02*
X142654904Y-101470464D01*
X139928864Y-99231674D02*
X140101884Y-99404684D01*
X140814264Y-99629814D02*
X141051204Y-99866754D01*
X141288144Y-100429814D02*
X141614264Y-100429814D01*
D25*
%TO.N,CAM1*%
X132035906Y-110890704D02*
X133334094Y-112188892D01*
X133334094Y-112188892D02*
X133334094Y-117751107D01*
X131870000Y-101640000D02*
X132035906Y-101805906D01*
X133321706Y-117763495D02*
X133321706Y-126921706D01*
X132035906Y-101805906D02*
X132035906Y-110890704D01*
X133334094Y-117751107D02*
X133321706Y-117763495D01*
X133321706Y-126921706D02*
X133480000Y-127080000D01*
%TO.N,CAM2*%
X132680000Y-101620000D02*
X134100000Y-103040000D01*
X136020000Y-127080000D02*
X136020000Y-125633475D01*
X136020000Y-125633475D02*
X134460000Y-124073475D01*
X134460000Y-103430000D02*
X134460000Y-124073475D01*
X134100000Y-103040000D02*
X134100000Y-103070000D01*
X134100000Y-103070000D02*
X134460000Y-103430000D01*
%TO.N,CAM5*%
X131110000Y-100780000D02*
X131480000Y-101150000D01*
X131480000Y-102060000D02*
X131640000Y-102220000D01*
X133040000Y-126073475D02*
X132457153Y-126656322D01*
X132457153Y-126656322D02*
X132457153Y-128597153D01*
X131640000Y-110840000D02*
X133040000Y-112240000D01*
X133040000Y-112240000D02*
X133040000Y-126073475D01*
X131480000Y-101150000D02*
X131480000Y-102060000D01*
X131640000Y-102220000D02*
X131640000Y-110840000D01*
X132457153Y-128597153D02*
X133480000Y-129620000D01*
%TO.N,CAM7*%
X139562400Y-112382400D02*
X139562400Y-128617600D01*
X133860000Y-102130000D02*
X134980000Y-103250000D01*
X135090000Y-100830000D02*
X134690000Y-101230000D01*
X134980000Y-103250000D02*
X134980000Y-107800000D01*
X134030000Y-101230000D02*
X133860000Y-101400000D01*
X133860000Y-101400000D02*
X133860000Y-102130000D01*
X134690000Y-101230000D02*
X134030000Y-101230000D01*
X139562400Y-128617600D02*
X138560000Y-129620000D01*
X134980000Y-107800000D02*
X139562400Y-112382400D01*
%TO.N,CAM0*%
X132795906Y-112451107D02*
X132795906Y-125224093D01*
X130610000Y-110265201D02*
X132795906Y-112451107D01*
X130060000Y-101780000D02*
X130610000Y-102330000D01*
X130610000Y-102330000D02*
X130610000Y-110265201D01*
X132795906Y-125224093D02*
X130939999Y-127080000D01*
%TO.N,CAM3*%
X133460000Y-101610000D02*
X133460000Y-102054798D01*
X134704094Y-103298892D02*
X134704094Y-123972367D01*
X137811727Y-127080000D02*
X137286941Y-126555214D01*
X134704094Y-123972367D02*
X137286941Y-126555214D01*
X133460000Y-102054798D02*
X134704094Y-103298892D01*
X138560000Y-127080000D02*
X137811727Y-127080000D01*
%TO.N,CAM6*%
X132280000Y-102000000D02*
X132280000Y-101239652D01*
X134215906Y-124495906D02*
X134215906Y-103935906D01*
X134997153Y-125277153D02*
X134215906Y-124495906D01*
X134215906Y-103935906D02*
X132280000Y-102000000D01*
X134997153Y-128597153D02*
X134997153Y-125277153D01*
X132280000Y-101239652D02*
X131837035Y-100796687D01*
X136020000Y-129620000D02*
X134997153Y-128597153D01*
%TD*%
%TA.AperFunction,Conductor*%
%TO.N,Net-(C14-Pad1)*%
G36*
X180862580Y-85396990D02*
G01*
X181214408Y-85748818D01*
X181228994Y-85784032D01*
X181228994Y-96176776D01*
X181214408Y-96211990D01*
X181158318Y-96268079D01*
X181150066Y-96284275D01*
X181121082Y-96309028D01*
X181083084Y-96306037D01*
X181070483Y-96296881D01*
X181021920Y-96248318D01*
X181021919Y-96248317D01*
X180921411Y-96197106D01*
X180810000Y-96179461D01*
X180698588Y-96197106D01*
X180598080Y-96248317D01*
X180515547Y-96330851D01*
X180513951Y-96329255D01*
X180487773Y-96345285D01*
X180450714Y-96336374D01*
X180444822Y-96330482D01*
X180444453Y-96330851D01*
X180361919Y-96248317D01*
X180361920Y-96248317D01*
X180261411Y-96197106D01*
X180150000Y-96179461D01*
X180038588Y-96197106D01*
X179938080Y-96248317D01*
X179858317Y-96328080D01*
X179807106Y-96428588D01*
X179789461Y-96540000D01*
X179807106Y-96651411D01*
X179819999Y-96676716D01*
X179858318Y-96751920D01*
X179938080Y-96831682D01*
X180038587Y-96882893D01*
X180150000Y-96900539D01*
X180261413Y-96882893D01*
X180361920Y-96831682D01*
X180365090Y-96829379D01*
X180366333Y-96831090D01*
X180395001Y-96819191D01*
X180430226Y-96833751D01*
X180444838Y-96868954D01*
X180444225Y-96876781D01*
X180429461Y-96969999D01*
X180447106Y-97081411D01*
X180447106Y-97081412D01*
X180447107Y-97081413D01*
X180498318Y-97181920D01*
X180578080Y-97261682D01*
X180678587Y-97312893D01*
X180790000Y-97330539D01*
X180901413Y-97312893D01*
X181001920Y-97261682D01*
X181081682Y-97181920D01*
X181132893Y-97081413D01*
X181132893Y-97081412D01*
X181134672Y-97077921D01*
X181136716Y-97078962D01*
X181156575Y-97055701D01*
X181194573Y-97052702D01*
X181223561Y-97077449D01*
X181228994Y-97100068D01*
X181228994Y-97426776D01*
X181214408Y-97461990D01*
X180608580Y-98067818D01*
X180573366Y-98082404D01*
X177947622Y-98082404D01*
X177912408Y-98067818D01*
X177704001Y-97859411D01*
X177689415Y-97824197D01*
X177689415Y-93006610D01*
X177704000Y-92971397D01*
X178688994Y-91986404D01*
X178688994Y-90805094D01*
X178703580Y-90769880D01*
X178716183Y-90760723D01*
X178738229Y-90749491D01*
X178823681Y-90664039D01*
X178878544Y-90556363D01*
X178897449Y-90437004D01*
X178878544Y-90317645D01*
X178823681Y-90209969D01*
X178738229Y-90124517D01*
X178716184Y-90113284D01*
X178691431Y-90084300D01*
X178688994Y-90068912D01*
X178688994Y-89624204D01*
X178886939Y-89624204D01*
X178905843Y-89743561D01*
X178905844Y-89743564D01*
X178960705Y-89851236D01*
X178960707Y-89851239D01*
X179046159Y-89936691D01*
X179153835Y-89991554D01*
X179273194Y-90010459D01*
X179392553Y-89991554D01*
X179500229Y-89936691D01*
X179585681Y-89851239D01*
X179640544Y-89743563D01*
X179659449Y-89624204D01*
X179640544Y-89504845D01*
X179585681Y-89397169D01*
X179585677Y-89397165D01*
X179585415Y-89396804D01*
X179585343Y-89396505D01*
X179583902Y-89393677D01*
X179584580Y-89393331D01*
X179576509Y-89359744D01*
X179596418Y-89327241D01*
X179617907Y-89318337D01*
X179697353Y-89305754D01*
X179805029Y-89250891D01*
X179890481Y-89165439D01*
X179945344Y-89057763D01*
X179964249Y-88938404D01*
X179945344Y-88819045D01*
X179890481Y-88711369D01*
X179805029Y-88625917D01*
X179805026Y-88625915D01*
X179697354Y-88571054D01*
X179697351Y-88571053D01*
X179577994Y-88552149D01*
X179458636Y-88571053D01*
X179458633Y-88571054D01*
X179350961Y-88625915D01*
X179265505Y-88711371D01*
X179210644Y-88819043D01*
X179210643Y-88819046D01*
X179191739Y-88938404D01*
X179210643Y-89057761D01*
X179210644Y-89057764D01*
X179265506Y-89165437D01*
X179265773Y-89165805D01*
X179265844Y-89166101D01*
X179267286Y-89168931D01*
X179266607Y-89169276D01*
X179274677Y-89202866D01*
X179254767Y-89235367D01*
X179233280Y-89244270D01*
X179153835Y-89256853D01*
X179153833Y-89256854D01*
X179046161Y-89311715D01*
X178960705Y-89397171D01*
X178905844Y-89504843D01*
X178905843Y-89504846D01*
X178886939Y-89624204D01*
X178688994Y-89624204D01*
X178688994Y-87173377D01*
X178703580Y-87138163D01*
X178716177Y-87129010D01*
X178789029Y-87091891D01*
X178874481Y-87006439D01*
X178929344Y-86898763D01*
X178948249Y-86779404D01*
X178929344Y-86660045D01*
X178874481Y-86552369D01*
X178789029Y-86466917D01*
X178789026Y-86466915D01*
X178726077Y-86434841D01*
X178701323Y-86405858D01*
X178704314Y-86367860D01*
X178726078Y-86346097D01*
X178797059Y-86309931D01*
X178882511Y-86224479D01*
X178937374Y-86116803D01*
X178956279Y-85997444D01*
X178937374Y-85878085D01*
X178882511Y-85770409D01*
X178817463Y-85705361D01*
X178802877Y-85670147D01*
X178817461Y-85634936D01*
X179055408Y-85396990D01*
X179090622Y-85382404D01*
X180827366Y-85382404D01*
X180862580Y-85396990D01*
G37*
%TD.AperFunction*%
%TD*%
M02*
