%TF.GenerationSoftware,KiCad,Pcbnew,8.0.6*%
%TF.CreationDate,2025-01-14T20:30:26-08:00*%
%TF.ProjectId,IO_SDR_1.1,494f5f53-4452-45f3-912e-312e6b696361,rev?*%
%TF.SameCoordinates,Original*%
%TF.FileFunction,Paste,Bot*%
%TF.FilePolarity,Positive*%
%FSLAX46Y46*%
G04 Gerber Fmt 4.6, Leading zero omitted, Abs format (unit mm)*
G04 Created by KiCad (PCBNEW 8.0.6) date 2025-01-14 20:30:26*
%MOMM*%
%LPD*%
G01*
G04 APERTURE LIST*
G04 Aperture macros list*
%AMRoundRect*
0 Rectangle with rounded corners*
0 $1 Rounding radius*
0 $2 $3 $4 $5 $6 $7 $8 $9 X,Y pos of 4 corners*
0 Add a 4 corners polygon primitive as box body*
4,1,4,$2,$3,$4,$5,$6,$7,$8,$9,$2,$3,0*
0 Add four circle primitives for the rounded corners*
1,1,$1+$1,$2,$3*
1,1,$1+$1,$4,$5*
1,1,$1+$1,$6,$7*
1,1,$1+$1,$8,$9*
0 Add four rect primitives between the rounded corners*
20,1,$1+$1,$2,$3,$4,$5,0*
20,1,$1+$1,$4,$5,$6,$7,0*
20,1,$1+$1,$6,$7,$8,$9,0*
20,1,$1+$1,$8,$9,$2,$3,0*%
G04 Aperture macros list end*
%ADD10C,0.000000*%
%ADD11RoundRect,0.155000X0.212500X0.155000X-0.212500X0.155000X-0.212500X-0.155000X0.212500X-0.155000X0*%
%ADD12RoundRect,0.155000X0.155000X-0.212500X0.155000X0.212500X-0.155000X0.212500X-0.155000X-0.212500X0*%
%ADD13RoundRect,0.160000X-0.197500X-0.160000X0.197500X-0.160000X0.197500X0.160000X-0.197500X0.160000X0*%
%ADD14RoundRect,0.155000X-0.155000X0.212500X-0.155000X-0.212500X0.155000X-0.212500X0.155000X0.212500X0*%
%ADD15RoundRect,0.160000X0.197500X0.160000X-0.197500X0.160000X-0.197500X-0.160000X0.197500X-0.160000X0*%
%ADD16RoundRect,0.150000X0.587500X0.150000X-0.587500X0.150000X-0.587500X-0.150000X0.587500X-0.150000X0*%
%ADD17RoundRect,0.237500X0.300000X0.237500X-0.300000X0.237500X-0.300000X-0.237500X0.300000X-0.237500X0*%
%ADD18RoundRect,0.250000X0.412500X0.650000X-0.412500X0.650000X-0.412500X-0.650000X0.412500X-0.650000X0*%
%ADD19RoundRect,0.237500X-0.237500X0.300000X-0.237500X-0.300000X0.237500X-0.300000X0.237500X0.300000X0*%
%ADD20RoundRect,0.160000X0.160000X-0.197500X0.160000X0.197500X-0.160000X0.197500X-0.160000X-0.197500X0*%
%ADD21RoundRect,0.040600X-0.249400X0.564400X-0.249400X-0.564400X0.249400X-0.564400X0.249400X0.564400X0*%
%ADD22RoundRect,0.250000X-0.275000X-0.350000X0.275000X-0.350000X0.275000X0.350000X-0.275000X0.350000X0*%
%ADD23RoundRect,0.237500X-0.300000X-0.237500X0.300000X-0.237500X0.300000X0.237500X-0.300000X0.237500X0*%
%ADD24RoundRect,0.160000X-0.160000X0.197500X-0.160000X-0.197500X0.160000X-0.197500X0.160000X0.197500X0*%
%ADD25O,0.599999X0.299999*%
%ADD26RoundRect,0.250000X0.337500X0.475000X-0.337500X0.475000X-0.337500X-0.475000X0.337500X-0.475000X0*%
%ADD27RoundRect,0.155000X-0.212500X-0.155000X0.212500X-0.155000X0.212500X0.155000X-0.212500X0.155000X0*%
%ADD28RoundRect,0.237500X0.237500X-0.287500X0.237500X0.287500X-0.237500X0.287500X-0.237500X-0.287500X0*%
%ADD29RoundRect,0.040600X0.564400X0.249400X-0.564400X0.249400X-0.564400X-0.249400X0.564400X-0.249400X0*%
%ADD30RoundRect,0.237500X-0.237500X0.287500X-0.237500X-0.287500X0.237500X-0.287500X0.237500X0.287500X0*%
%ADD31RoundRect,0.250000X-0.650000X0.412500X-0.650000X-0.412500X0.650000X-0.412500X0.650000X0.412500X0*%
%ADD32RoundRect,0.250000X0.275000X0.350000X-0.275000X0.350000X-0.275000X-0.350000X0.275000X-0.350000X0*%
%ADD33RoundRect,0.237500X-0.287500X-0.237500X0.287500X-0.237500X0.287500X0.237500X-0.287500X0.237500X0*%
%ADD34RoundRect,0.237500X0.237500X-0.300000X0.237500X0.300000X-0.237500X0.300000X-0.237500X-0.300000X0*%
%ADD35RoundRect,0.250000X-0.412500X-0.650000X0.412500X-0.650000X0.412500X0.650000X-0.412500X0.650000X0*%
G04 APERTURE END LIST*
D10*
%TO.C,U6*%
G36*
X149918656Y-80245554D02*
G01*
X148535657Y-80245554D01*
X148535657Y-78660554D01*
X149918656Y-78660554D01*
X149918656Y-80245554D01*
G37*
%TO.C,U5*%
G36*
X163892915Y-80976558D02*
G01*
X162509916Y-80976558D01*
X162509916Y-79391558D01*
X163892915Y-79391558D01*
X163892915Y-80976558D01*
G37*
%TD*%
D11*
%TO.C,C60*%
X111921104Y-92062614D03*
X110786104Y-92062614D03*
%TD*%
D12*
%TO.C,C137*%
X164134800Y-89696100D03*
X164134800Y-88561100D03*
%TD*%
D13*
%TO.C,R42*%
X138392500Y-93620000D03*
X139587500Y-93620000D03*
%TD*%
D11*
%TO.C,C94*%
X134146084Y-95288404D03*
X133011084Y-95288404D03*
%TD*%
D14*
%TO.C,C123*%
X144490000Y-102482500D03*
X144490000Y-103617500D03*
%TD*%
D13*
%TO.C,R8*%
X158653913Y-78849059D03*
X159848913Y-78849059D03*
%TD*%
D11*
%TO.C,C95*%
X134167500Y-92690000D03*
X133032500Y-92690000D03*
%TD*%
D13*
%TO.C,R10*%
X144677153Y-78623053D03*
X145872153Y-78623053D03*
%TD*%
D11*
%TO.C,C96*%
X140597674Y-91986424D03*
X139462674Y-91986424D03*
%TD*%
D15*
%TO.C,R3*%
X175840154Y-97132854D03*
X174645154Y-97132854D03*
%TD*%
D12*
%TO.C,C132*%
X155321000Y-88070500D03*
X155321000Y-86935500D03*
%TD*%
D14*
%TO.C,C130*%
X155143204Y-94492304D03*
X155143204Y-95627304D03*
%TD*%
D13*
%TO.C,R37*%
X146722484Y-95618594D03*
X147917484Y-95618594D03*
%TD*%
D16*
%TO.C,Q1*%
X174570154Y-92952854D03*
X174570154Y-94852854D03*
X172695154Y-93902854D03*
%TD*%
D17*
%TO.C,C19*%
X185081654Y-96353246D03*
X183356654Y-96353246D03*
%TD*%
D14*
%TO.C,CA1*%
X184870000Y-99145000D03*
X184870000Y-100280000D03*
%TD*%
D18*
%TO.C,C26*%
X146079654Y-82848055D03*
X142954654Y-82848055D03*
%TD*%
D19*
%TO.C,CA10*%
X180086000Y-79376100D03*
X180086000Y-81101100D03*
%TD*%
D11*
%TO.C,C70*%
X110524114Y-96482184D03*
X109389114Y-96482184D03*
%TD*%
D20*
%TO.C,R47*%
X155321000Y-91478700D03*
X155321000Y-90283700D03*
%TD*%
D21*
%TO.C,U4*%
X179302654Y-90690746D03*
X180252654Y-90690746D03*
X181202654Y-90690746D03*
X181202654Y-93200746D03*
X180252654Y-93200746D03*
X179302654Y-93200746D03*
%TD*%
D22*
%TO.C,L5*%
X183373954Y-91684454D03*
X185673954Y-91684454D03*
%TD*%
D11*
%TO.C,C93*%
X139632514Y-88023994D03*
X138497514Y-88023994D03*
%TD*%
%TO.C,C129*%
X144026704Y-93662804D03*
X142891704Y-93662804D03*
%TD*%
D17*
%TO.C,CA2*%
X185081654Y-94883246D03*
X183356654Y-94883246D03*
%TD*%
%TO.C,C11*%
X172822500Y-78700000D03*
X171097500Y-78700000D03*
%TD*%
D23*
%TO.C,C16*%
X183356654Y-88643246D03*
X185081654Y-88643246D03*
%TD*%
D24*
%TO.C,R40*%
X137515604Y-90423734D03*
X137515604Y-91618734D03*
%TD*%
D12*
%TO.C,C14*%
X179422654Y-95950746D03*
X179422654Y-94815746D03*
%TD*%
D11*
%TO.C,C112*%
X137220574Y-85631674D03*
X136085574Y-85631674D03*
%TD*%
D13*
%TO.C,R46*%
X162267300Y-86360000D03*
X163462300Y-86360000D03*
%TD*%
D20*
%TO.C,R48*%
X159410000Y-92927500D03*
X159410000Y-91732500D03*
%TD*%
D14*
%TO.C,C17*%
X186390000Y-99175000D03*
X186390000Y-100310000D03*
%TD*%
D12*
%TO.C,C136*%
X161798000Y-94014100D03*
X161798000Y-92879100D03*
%TD*%
%TO.C,C103*%
X137494524Y-89154654D03*
X137494524Y-88019654D03*
%TD*%
D15*
%TO.C,R9*%
X159846412Y-77904057D03*
X158651412Y-77904057D03*
%TD*%
D16*
%TO.C,Q2*%
X170730154Y-92952854D03*
X170730154Y-94852854D03*
X168855154Y-93902854D03*
%TD*%
D25*
%TO.C,U6*%
X147827154Y-80428056D03*
X147827154Y-79778055D03*
X147827154Y-79128056D03*
X147827154Y-78478055D03*
X150627154Y-78478055D03*
X150627154Y-79128056D03*
X150627154Y-79778055D03*
X150627154Y-80428056D03*
%TD*%
D12*
%TO.C,C66*%
X111175804Y-89836084D03*
X111175804Y-88701084D03*
%TD*%
D11*
%TO.C,C24*%
X164796412Y-83194057D03*
X163661412Y-83194057D03*
%TD*%
D26*
%TO.C,C9*%
X173190154Y-97132854D03*
X171115154Y-97132854D03*
%TD*%
D18*
%TO.C,C27*%
X160013913Y-83079059D03*
X156888913Y-83079059D03*
%TD*%
D12*
%TO.C,C117*%
X143814794Y-87346884D03*
X143814794Y-86211884D03*
%TD*%
D11*
%TO.C,C128*%
X155151900Y-96723200D03*
X154016900Y-96723200D03*
%TD*%
D23*
%TO.C,C15*%
X183356654Y-90103246D03*
X185081654Y-90103246D03*
%TD*%
D11*
%TO.C,C124*%
X157006100Y-100761800D03*
X155871100Y-100761800D03*
%TD*%
%TO.C,C126*%
X155126500Y-98323400D03*
X153991500Y-98323400D03*
%TD*%
D15*
%TO.C,R41*%
X141821474Y-93637404D03*
X140626474Y-93637404D03*
%TD*%
D24*
%TO.C,RA20*%
X143306794Y-102437914D03*
X143306794Y-103632914D03*
%TD*%
D27*
%TO.C,C135*%
X147311300Y-100761800D03*
X148446300Y-100761800D03*
%TD*%
D13*
%TO.C,R4*%
X164185313Y-75893658D03*
X165380313Y-75893658D03*
%TD*%
D12*
%TO.C,C98*%
X137440000Y-97457500D03*
X137440000Y-96322500D03*
%TD*%
%TO.C,C68*%
X113715794Y-89353484D03*
X113715794Y-88218484D03*
%TD*%
%TO.C,C97*%
X137350000Y-95267500D03*
X137350000Y-94132500D03*
%TD*%
D15*
%TO.C,RA9*%
X178527500Y-78370000D03*
X177332500Y-78370000D03*
%TD*%
D28*
%TO.C,L4*%
X181272754Y-88876454D03*
X181272754Y-87126454D03*
%TD*%
D27*
%TO.C,C75*%
X120277024Y-98158594D03*
X121412024Y-98158594D03*
%TD*%
D29*
%TO.C,U3*%
X169335000Y-75090000D03*
X169335000Y-76040000D03*
X169335000Y-76990000D03*
X166825000Y-76990000D03*
X166825000Y-76040000D03*
X166825000Y-75090000D03*
%TD*%
D23*
%TO.C,C18*%
X183356654Y-87137854D03*
X185081654Y-87137854D03*
%TD*%
D11*
%TO.C,C78*%
X110607500Y-94260000D03*
X109472500Y-94260000D03*
%TD*%
D14*
%TO.C,C113*%
X161772600Y-99076700D03*
X161772600Y-100211700D03*
%TD*%
D27*
%TO.C,C104*%
X135881314Y-92799204D03*
X137016314Y-92799204D03*
%TD*%
D13*
%TO.C,R1*%
X167845300Y-90251400D03*
X169040300Y-90251400D03*
%TD*%
D11*
%TO.C,C62*%
X112937104Y-94856584D03*
X111802104Y-94856584D03*
%TD*%
D25*
%TO.C,U5*%
X161801413Y-81159060D03*
X161801413Y-80509059D03*
X161801413Y-79859060D03*
X161801413Y-79209059D03*
X164601413Y-79209059D03*
X164601413Y-79859060D03*
X164601413Y-80509059D03*
X164601413Y-81159060D03*
%TD*%
D11*
%TO.C,C69*%
X119617294Y-89319384D03*
X118482294Y-89319384D03*
%TD*%
D20*
%TO.C,R6*%
X178482654Y-95980746D03*
X178482654Y-94785746D03*
%TD*%
D15*
%TO.C,R11*%
X145882154Y-77668051D03*
X144687154Y-77668051D03*
%TD*%
D11*
%TO.C,C107*%
X134867500Y-93730000D03*
X133732500Y-93730000D03*
%TD*%
D12*
%TO.C,C54*%
X122631174Y-88997904D03*
X122631174Y-87862904D03*
%TD*%
D27*
%TO.C,C133*%
X147336700Y-98882200D03*
X148471700Y-98882200D03*
%TD*%
D13*
%TO.C,R2*%
X167855300Y-91211400D03*
X169050300Y-91211400D03*
%TD*%
D27*
%TO.C,C10*%
X164205313Y-76853658D03*
X165340313Y-76853658D03*
%TD*%
D11*
%TO.C,C61*%
X113777500Y-95820000D03*
X112642500Y-95820000D03*
%TD*%
D15*
%TO.C,R5*%
X165400313Y-74933658D03*
X164205313Y-74933658D03*
%TD*%
D30*
%TO.C,L2*%
X167480400Y-80157801D03*
X167480400Y-81907801D03*
%TD*%
D27*
%TO.C,C114*%
X147336700Y-99822000D03*
X148471700Y-99822000D03*
%TD*%
D15*
%TO.C,RA8*%
X113348114Y-98412614D03*
X112153114Y-98412614D03*
%TD*%
D12*
%TO.C,C127*%
X145414994Y-87219884D03*
X145414994Y-86084884D03*
%TD*%
D11*
%TO.C,C102*%
X134222284Y-96710804D03*
X133087284Y-96710804D03*
%TD*%
D12*
%TO.C,C118*%
X161772600Y-97697100D03*
X161772600Y-96562100D03*
%TD*%
%TO.C,C56*%
X120116614Y-87778704D03*
X120116614Y-86643704D03*
%TD*%
D18*
%TO.C,C23*%
X160063913Y-80749059D03*
X156938913Y-80749059D03*
%TD*%
D31*
%TO.C,C8*%
X181372654Y-95113246D03*
X181372654Y-98238246D03*
%TD*%
D14*
%TO.C,C20*%
X183380000Y-99145000D03*
X183380000Y-100280000D03*
%TD*%
D32*
%TO.C,L3*%
X172770600Y-81845601D03*
X170470600Y-81845601D03*
%TD*%
D17*
%TO.C,C12*%
X172825000Y-80194601D03*
X171100000Y-80194601D03*
%TD*%
D14*
%TO.C,C121*%
X146253194Y-90682294D03*
X146253194Y-91817294D03*
%TD*%
D18*
%TO.C,C21*%
X146059654Y-80518055D03*
X142934654Y-80518055D03*
%TD*%
D13*
%TO.C,R32*%
X109462500Y-93320200D03*
X110657500Y-93320200D03*
%TD*%
D24*
%TO.C,R43*%
X139039604Y-95198894D03*
X139039604Y-96393894D03*
%TD*%
D14*
%TO.C,C74*%
X119253004Y-98175294D03*
X119253004Y-99310294D03*
%TD*%
D12*
%TO.C,C125*%
X144653004Y-89709094D03*
X144653004Y-88574094D03*
%TD*%
D13*
%TO.C,R38*%
X146290684Y-97168014D03*
X147485684Y-97168014D03*
%TD*%
D11*
%TO.C,C92*%
X134095314Y-91224394D03*
X132960314Y-91224394D03*
%TD*%
D12*
%TO.C,C140*%
X130479814Y-107692284D03*
X130479814Y-106557284D03*
%TD*%
%TO.C,C122*%
X164160200Y-100084700D03*
X164160200Y-98949700D03*
%TD*%
D17*
%TO.C,C25*%
X185081654Y-93403246D03*
X183356654Y-93403246D03*
%TD*%
D12*
%TO.C,C22*%
X151934654Y-78845551D03*
X151934654Y-77710551D03*
%TD*%
D33*
%TO.C,L1*%
X171075800Y-77222801D03*
X172825800Y-77222801D03*
%TD*%
D11*
%TO.C,C64*%
X111921104Y-90970414D03*
X110786104Y-90970414D03*
%TD*%
D34*
%TO.C,C13*%
X168953600Y-81895301D03*
X168953600Y-80170301D03*
%TD*%
D11*
%TO.C,C79*%
X110607500Y-95199800D03*
X109472500Y-95199800D03*
%TD*%
D24*
%TO.C,R7*%
X177542654Y-94795746D03*
X177542654Y-95990746D03*
%TD*%
D35*
%TO.C,C7*%
X170570154Y-90822854D03*
X173695154Y-90822854D03*
%TD*%
D12*
%TO.C,C101*%
X140659124Y-88731114D03*
X140659124Y-87596114D03*
%TD*%
%TO.C,C131*%
X142239994Y-88820094D03*
X142239994Y-87685094D03*
%TD*%
%TO.C,C134*%
X164084000Y-96096900D03*
X164084000Y-94961900D03*
%TD*%
D13*
%TO.C,RA22*%
X147332104Y-101943214D03*
X148527104Y-101943214D03*
%TD*%
D17*
%TO.C,C6*%
X169120000Y-73530000D03*
X167395000Y-73530000D03*
%TD*%
M02*
