M48
; DRILL file {KiCad 8.0.6} date 2025-01-14T20:30:28-0800
; FORMAT={-:-/ absolute / inch / decimal}
; #@! TF.CreationDate,2025-01-14T20:30:28-08:00
; #@! TF.GenerationSoftware,Kicad,Pcbnew,8.0.6
; #@! TF.FileFunction,Plated,1,6,PTH
FMAT,2
INCH
; #@! TA.AperFunction,Plated,PTH,ViaDrill
T1C0.0079
; #@! TA.AperFunction,Plated,PTH,ViaDrill
T2C0.0080
; #@! TA.AperFunction,Plated,PTH,ViaDrill
T3C0.0098
; #@! TA.AperFunction,Plated,PTH,ViaDrill
T4C0.0118
; #@! TA.AperFunction,Plated,PTH,ComponentDrill
T5C0.0197
; #@! TA.AperFunction,Plated,PTH,ComponentDrill
T6C0.0394
; #@! TA.AperFunction,Plated,PTH,ComponentDrill
T7C0.0591
; #@! TA.AperFunction,Plated,PTH,ComponentDrill
T8C0.0669
; #@! TA.AperFunction,Plated,PTH,ComponentDrill
T9C0.0984
%
G90
G05
T1
X4.7205Y-3.2358
X4.8531Y-4.1209
X5.0697Y-2.7642
X7.2059Y-4.0118
T2
X3.9555Y-4.1129
X3.9555Y-4.147
X3.9559Y-4.0746
X3.9559Y-4.2182
X3.9563Y-4.3599
X3.957Y-4.1826
X3.9571Y-4.3259
X3.9575Y-4.3928
X3.97Y-4.2923
X3.9758Y-4.2499
X3.9965Y-4.0669
X3.9968Y-4.0996
X3.9972Y-4.1319
X3.9974Y-4.163
X3.9982Y-4.1962
X4.0005Y-4.3545
X4.0005Y-4.3932
X4.0036Y-4.3216
X4.0067Y-4.2628
X4.0139Y-4.2218
X4.0298Y-4.3028
X4.0371Y-3.5195
X4.0371Y-3.5646
X4.0443Y-3.1021
X4.0449Y-3.0646
X4.0486Y-4.2643
X4.0496Y-4.2268
X4.0692Y-3.5642
X4.0697Y-3.5195
X4.0839Y-4.2268
X4.0846Y-3.0646
X4.0853Y-4.2643
X4.0854Y-3.1027
X4.1028Y-3.565
X4.1036Y-3.52
X4.1059Y-4.3024
X4.1144Y-4.2268
X4.1159Y-4.2647
X4.1201Y-3.1023
X4.1224Y-3.0634
X4.1336Y-4.3022
X4.1367Y-3.5189
X4.138Y-3.5654
X4.1491Y-4.2264
X4.1511Y-4.2639
X4.1514Y-3.1036
X4.1528Y-3.0642
X4.1669Y-4.3024
X4.1693Y-3.5111
X4.1755Y-3.2542
X4.1767Y-3.2913
X4.1771Y-3.4749
X4.1772Y-3.3292
X4.1772Y-3.3656
X4.1772Y-3.402
X4.1783Y-3.4372
X4.1791Y-3.5623
X4.18Y-4.2643
X4.1818Y-4.2267
X4.1835Y-3.1035
X4.1839Y-3.0638
X4.1921Y-3.2138
X4.1984Y-4.3024
X4.2065Y-3.5427
X4.2106Y-3.1965
X4.2162Y-3.3269
X4.2166Y-3.364
X4.217Y-3.2881
X4.2177Y-3.4371
X4.2177Y-4.2268
X4.2178Y-3.2498
X4.2178Y-3.4028
X4.2178Y-3.4751
X4.2189Y-3.0634
X4.2191Y-4.2651
X4.2194Y-3.5118
X4.2197Y-3.1036
X4.2307Y-4.302
X4.2329Y-3.0113
X4.237Y-3.1854
X4.2417Y-3.2354
X4.25Y-4.2643
X4.2508Y-4.2268
X4.2524Y-3.1036
X4.2528Y-3.063
X4.2613Y-2.7538
X4.2622Y-3.1866
X4.2653Y-4.3027
X4.2717Y-4.2197
X4.2841Y-4.2647
X4.2848Y-3.1033
X4.2858Y-3.0622
X4.2982Y-4.3027
X4.306Y-3.8275
X4.3094Y-4.2465
X4.3114Y-4.2197
X4.3128Y-3.0113
X4.3171Y-3.104
X4.3177Y-4.3587
X4.3193Y-3.0634
X4.322Y-4.2639
X4.3319Y-4.3031
X4.3425Y-3.4091
X4.3491Y-3.0623
X4.3497Y-3.1051
X4.352Y-3.8265
X4.36Y-4.2663
X4.3617Y-3.5815
X4.3657Y-3.4201
X4.3717Y-4.3024
X4.3804Y-3.0626
X4.381Y-3.1054
X4.381Y-3.8745
X4.383Y-3.7725
X4.383Y-4.5005
X4.3843Y-4.4638
X4.3878Y-4.2646
X4.39Y-3.6885
X4.405Y-3.6555
X4.4059Y-4.3019
X4.413Y-4.2646
X4.4133Y-3.4533
X4.4133Y-3.4848
X4.4133Y-3.5163
X4.4133Y-3.7052
X4.4133Y-3.7997
X4.4133Y-3.8312
X4.4159Y-3.0629
X4.4165Y-3.1056
X4.4301Y-2.9699
X4.4348Y-4.3019
X4.4374Y-4.265
X4.4409Y-4.0367
X4.4448Y-3.4533
X4.4448Y-3.4848
X4.4448Y-3.5163
X4.4448Y-3.5478
X4.4448Y-3.5793
X4.4448Y-3.6108
X4.4448Y-3.6423
X4.4448Y-3.6737
X4.4448Y-3.7052
X4.4448Y-3.7997
X4.4448Y-3.8312
X4.4511Y-3.0626
X4.4517Y-3.1054
X4.4601Y-2.7561
X4.461Y-4.3028
X4.4614Y-4.2665
X4.4634Y-4.0367
X4.4763Y-3.5478
X4.4763Y-3.5793
X4.4763Y-3.6108
X4.4763Y-3.6737
X4.4763Y-3.7052
X4.4763Y-3.7367
X4.4763Y-3.7997
X4.4764Y-4.3587
X4.4815Y-4.3028
X4.4845Y-3.0623
X4.485Y-3.1051
X4.4854Y-4.2654
X4.4866Y-3.3303
X4.505Y-3.2185
X4.5078Y-3.4533
X4.5078Y-3.5163
X4.5078Y-3.5478
X4.5078Y-3.5793
X4.5078Y-3.7052
X4.5078Y-3.7367
X4.5078Y-3.7682
X4.5078Y-3.7997
X4.5078Y-3.8312
X4.5095Y-4.0367
X4.5095Y-4.1565
X4.5101Y-3.0136
X4.5165Y-3.0626
X4.5171Y-3.1054
X4.535Y-4.4975
X4.5393Y-3.4533
X4.5393Y-3.5163
X4.5393Y-3.5478
X4.5393Y-3.6737
X4.5393Y-3.7052
X4.5393Y-3.7367
X4.5393Y-3.7682
X4.5393Y-3.8312
X4.5443Y-3.2185
X4.5495Y-4.1565
X4.5516Y-3.0651
X4.5583Y-3.9717
X4.5707Y-3.4533
X4.5707Y-3.5163
X4.5707Y-3.5478
X4.5707Y-3.6737
X4.5707Y-3.7052
X4.5707Y-3.7367
X4.5707Y-3.7682
X4.5707Y-3.7997
X4.5707Y-3.8312
X4.5898Y-3.3315
X4.5941Y-4.1909
X4.5988Y-4.0365
X4.6024Y-4.2776
X4.6122Y-3.3315
X4.6212Y-4.0365
X4.6232Y-3.9886
X4.6337Y-3.4533
X4.6337Y-3.5163
X4.6337Y-3.5478
X4.6337Y-3.5793
X4.6337Y-3.6108
X4.6337Y-3.7052
X4.6337Y-3.7367
X4.6337Y-3.7682
X4.6337Y-3.7997
X4.6337Y-3.8312
X4.639Y-3.3675
X4.658Y-3.2084
X4.6652Y-3.4533
X4.6652Y-3.4848
X4.6652Y-3.5478
X4.6652Y-3.5793
X4.6652Y-3.6108
X4.6652Y-3.6737
X4.6652Y-3.7052
X4.6652Y-3.7367
X4.6652Y-3.7682
X4.6652Y-3.7997
X4.6652Y-3.8312
X4.6695Y-4.1565
X4.6705Y-4.6539
X4.6967Y-3.4533
X4.6967Y-3.4848
X4.6967Y-3.5478
X4.6967Y-3.5793
X4.6967Y-3.6108
X4.6967Y-3.6737
X4.6967Y-3.7052
X4.6967Y-3.7367
X4.6967Y-3.7682
X4.6967Y-3.7997
X4.6967Y-3.8312
X4.7024Y-4.4933
X4.7095Y-4.0367
X4.7095Y-4.1563
X4.715Y-3.3325
X4.7282Y-3.4848
X4.7282Y-3.5478
X4.7282Y-3.5793
X4.7282Y-3.6108
X4.7282Y-3.6737
X4.7282Y-3.7052
X4.7282Y-3.7367
X4.7282Y-3.7682
X4.7282Y-3.7997
X4.7282Y-3.8312
X4.7319Y-3.972
X4.7445Y-4.1988
X4.7445Y-4.2189
X4.7524Y-2.8878
X4.7597Y-3.4533
X4.7597Y-3.4848
X4.7597Y-3.5163
X4.7597Y-3.5478
X4.7597Y-3.5793
X4.7597Y-3.6108
X4.7597Y-3.6737
X4.7597Y-3.7367
X4.7597Y-3.7682
X4.7597Y-3.7997
X4.765Y-3.972
X4.773Y-3.4105
X4.7912Y-3.4533
X4.7912Y-3.4848
X4.7912Y-3.5163
X4.7912Y-3.5478
X4.7912Y-3.5793
X4.7912Y-3.6108
X4.7912Y-3.6737
X4.7912Y-3.7367
X4.7912Y-3.7682
X4.7912Y-3.7997
X4.8098Y-4.6886
X4.828Y-3.5478
X4.831Y-3.8655
X4.8374Y-3.3828
X4.8425Y-4.6677
X4.8513Y-3.3971
X4.8532Y-4.65
X4.8591Y-3.2299
X4.8614Y-4.8567
X4.876Y-4.3799
X4.913Y-3.7835
X4.913Y-3.8115
X4.9154Y-4.6555
X4.9172Y-3.7277
X4.9178Y-3.6532
X4.9181Y-3.6905
X4.921Y-4.5988
X4.924Y-4.4445
X4.9268Y-4.685
X4.9413Y-4.5008
X4.9441Y-4.8594
X4.9448Y-3.8192
X4.9665Y-3.8717
X4.9669Y-4.4429
X4.9677Y-3.9067
X4.9835Y-4.1382
X4.9976Y-4.7051
X5.002Y-4.6228
X5.0114Y-3.25
X5.0178Y-4.0633
X5.0191Y-4.2734
X5.021Y-4.2357
X5.0219Y-4.1985
X5.0268Y-4.7614
X5.0339Y-4.8441
X5.035Y-3.8215
X5.0413Y-4.3949
X5.0437Y-3.202
X5.05Y-3.1295
X5.059Y-4.236
X5.0602Y-4.2747
X5.0612Y-4.1979
X5.0654Y-3.7334
X5.0693Y-4.8642
X5.0744Y-3.855
X5.0874Y-2.8567
X5.0882Y-4.3968
X5.0941Y-3.841
X5.0957Y-4.5497
X5.0965Y-4.0012
X5.0966Y-3.3713
X5.0966Y-3.4028
X5.0966Y-3.4343
X5.0966Y-3.4658
X5.0966Y-3.4973
X5.0966Y-3.5288
X5.0966Y-3.6233
X5.0966Y-3.6548
X5.0966Y-3.7178
X5.0966Y-3.8753
X5.0966Y-3.9383
X5.0966Y-3.9697
X5.0969Y-3.907
X5.0977Y-4.2719
X5.098Y-4.6118
X5.098Y-4.1979
X5.0984Y-4.4838
X5.0986Y-4.2357
X5.12Y-4.0785
X5.1205Y-4.0071
X5.1216Y-2.9563
X5.123Y-4.7225
X5.1281Y-3.3713
X5.1281Y-3.4343
X5.1281Y-3.4658
X5.1281Y-3.5918
X5.1281Y-3.6233
X5.1281Y-3.7808
X5.1281Y-3.8438
X5.1281Y-3.8753
X5.1281Y-3.9068
X5.1281Y-3.9383
X5.1281Y-3.9697
X5.14Y-3.2665
X5.1504Y-4.5492
X5.1514Y-4.6141
X5.1537Y-4.4838
X5.1596Y-3.3713
X5.1596Y-3.4658
X5.1596Y-3.4973
X5.1596Y-3.5288
X5.1596Y-3.5603
X5.1596Y-3.6548
X5.1596Y-3.8438
X5.1596Y-3.8753
X5.1596Y-3.9068
X5.1596Y-3.9383
X5.1596Y-4.0012
X5.1618Y-3.9677
X5.165Y-4.1385
X5.1669Y-4.2473
X5.1904Y-3.9684
X5.1911Y-3.3713
X5.1911Y-3.4028
X5.1911Y-3.4658
X5.1911Y-3.4973
X5.1911Y-3.5288
X5.1911Y-3.5603
X5.1911Y-3.5918
X5.1911Y-3.7493
X5.1911Y-3.8753
X5.1911Y-3.9068
X5.1911Y-3.9383
X5.1917Y-4.0016
X5.2029Y-4.4834
X5.2034Y-4.6141
X5.2048Y-4.5506
X5.21Y-3.2665
X5.2226Y-3.3713
X5.2226Y-3.4028
X5.2226Y-3.4343
X5.2226Y-3.4658
X5.2226Y-3.4973
X5.2226Y-3.5288
X5.2226Y-3.5603
X5.2226Y-3.6233
X5.2226Y-3.8438
X5.2226Y-3.8753
X5.2226Y-3.9068
X5.2226Y-3.9383
X5.2226Y-3.9697
X5.2236Y-4.0008
X5.25Y-4.1045
X5.251Y-4.1415
X5.2541Y-3.3713
X5.2541Y-3.4028
X5.2541Y-3.4343
X5.2541Y-3.4658
X5.2541Y-3.4973
X5.2541Y-3.5288
X5.2541Y-3.5603
X5.2541Y-3.7178
X5.2541Y-3.8753
X5.2541Y-3.9068
X5.2541Y-3.9383
X5.2541Y-3.9697
X5.2543Y-4.0004
X5.2551Y-3.7799
X5.2618Y-4.2445
X5.2618Y-4.2833
X5.262Y-4.2274
X5.2647Y-4.7005
X5.2673Y-4.8803
X5.2846Y-3.7181
X5.2856Y-3.3713
X5.2856Y-3.4028
X5.2856Y-3.4343
X5.2856Y-3.4658
X5.2856Y-3.4973
X5.2856Y-3.5288
X5.2856Y-3.5603
X5.2856Y-3.6233
X5.2856Y-3.7808
X5.2856Y-3.9068
X5.2856Y-3.9383
X5.2856Y-3.9697
X5.2856Y-4.0012
X5.3134Y-4.0429
X5.317Y-3.4028
X5.317Y-3.4343
X5.317Y-3.4658
X5.317Y-3.4973
X5.317Y-3.5288
X5.317Y-3.5603
X5.317Y-3.5918
X5.317Y-3.6233
X5.317Y-3.6548
X5.317Y-3.7178
X5.317Y-3.7493
X5.317Y-3.7808
X5.317Y-3.8123
X5.317Y-3.8438
X5.317Y-3.8753
X5.317Y-3.9383
X5.317Y-4.0012
X5.3182Y-3.9076
X5.3185Y-3.9697
X5.3191Y-4.574
X5.3307Y-4.1
X5.3335Y-4.0709
X5.3339Y-4.4402
X5.339Y-4.8563
X5.3409Y-4.715
X5.3485Y-3.4028
X5.3485Y-3.4343
X5.3485Y-3.4658
X5.3485Y-3.4973
X5.3485Y-3.5288
X5.3485Y-3.5603
X5.3485Y-3.6233
X5.3485Y-3.7178
X5.3485Y-3.7493
X5.3485Y-3.7808
X5.3485Y-3.8123
X5.3485Y-3.8438
X5.3485Y-3.8753
X5.3485Y-3.9068
X5.3485Y-3.9383
X5.3485Y-3.9697
X5.3485Y-4.0012
X5.364Y-4.1225
X5.369Y-3.3095
X5.38Y-3.4658
X5.38Y-3.4973
X5.38Y-3.5288
X5.38Y-3.5603
X5.38Y-3.5918
X5.38Y-3.6233
X5.38Y-3.6863
X5.38Y-3.7178
X5.38Y-3.7493
X5.38Y-3.7808
X5.38Y-3.8123
X5.38Y-3.8438
X5.38Y-3.8753
X5.38Y-3.9697
X5.38Y-4.0012
X5.3803Y-2.7917
X5.4088Y-4.4721
X5.4103Y-4.5213
X5.4115Y-4.5709
X5.4127Y-4.6189
X5.422Y-4.7035
X5.4232Y-4.2898
X5.424Y-4.8815
X5.4429Y-4.0709
X5.443Y-3.3713
X5.443Y-3.4973
X5.443Y-3.5288
X5.443Y-3.5603
X5.443Y-3.5918
X5.443Y-3.6233
X5.443Y-3.6548
X5.443Y-3.7178
X5.443Y-3.7493
X5.443Y-3.7808
X5.443Y-3.8123
X5.443Y-3.8753
X5.443Y-3.9383
X5.443Y-3.9697
X5.443Y-4.0012
X5.4745Y-3.4343
X5.4745Y-3.5288
X5.4745Y-3.5603
X5.4745Y-3.5918
X5.4745Y-3.6548
X5.4745Y-3.7178
X5.4745Y-3.8438
X5.4745Y-3.9068
X5.4745Y-3.9383
X5.4957Y-4.3047
X5.4965Y-4.1157
X5.5059Y-3.9378
X5.506Y-3.4973
X5.506Y-3.5288
X5.506Y-3.5603
X5.506Y-3.5918
X5.506Y-3.6548
X5.506Y-3.7178
X5.506Y-3.7493
X5.506Y-3.7808
X5.506Y-3.8123
X5.506Y-3.8438
X5.506Y-3.8753
X5.506Y-3.9068
X5.506Y-4.0012
X5.518Y-3.1255
X5.52Y-3.1795
X5.52Y-3.2385
X5.536Y-4.2739
X5.5375Y-3.4028
X5.5375Y-3.5918
X5.5375Y-3.6548
X5.5375Y-3.7178
X5.5375Y-3.7493
X5.5375Y-3.7808
X5.5375Y-3.8123
X5.5375Y-3.8438
X5.5375Y-3.8753
X5.5375Y-3.9068
X5.5375Y-3.9383
X5.5378Y-3.5286
X5.5408Y-4.8474
X5.555Y-4.0395
X5.569Y-3.4658
X5.569Y-3.4973
X5.569Y-3.5288
X5.569Y-3.5603
X5.569Y-3.5918
X5.569Y-3.6233
X5.569Y-3.6548
X5.569Y-3.7178
X5.569Y-3.7493
X5.569Y-3.8123
X5.569Y-3.8438
X5.569Y-3.8753
X5.569Y-3.9383
X5.569Y-3.9697
X5.575Y-3.2795
X5.576Y-3.3165
X5.5953Y-4.2217
X5.596Y-4.0405
X5.6005Y-3.3713
X5.6005Y-3.5288
X5.6005Y-3.5603
X5.6005Y-3.5918
X5.6005Y-3.6233
X5.6005Y-3.6548
X5.6005Y-3.7178
X5.6005Y-3.7493
X5.6005Y-3.7808
X5.6005Y-3.8123
X5.6005Y-3.8438
X5.6005Y-3.8753
X5.6005Y-3.9068
X5.6005Y-3.9383
X5.6005Y-3.9697
X5.6043Y-4.1323
X5.632Y-3.4343
X5.632Y-3.5288
X5.632Y-3.5603
X5.632Y-3.5918
X5.632Y-3.6233
X5.632Y-3.6548
X5.632Y-3.7178
X5.632Y-3.7493
X5.632Y-3.7808
X5.632Y-3.8123
X5.632Y-3.8438
X5.632Y-3.8753
X5.632Y-3.9068
X5.632Y-3.9383
X5.632Y-3.9697
X5.632Y-4.0012
X5.635Y-3.3175
X5.64Y-4.1165
X5.651Y-3.0745
X5.6635Y-3.4973
X5.6635Y-3.5918
X5.6635Y-3.6233
X5.6635Y-3.6548
X5.6635Y-3.7178
X5.6635Y-3.7493
X5.6635Y-3.7808
X5.6635Y-3.8123
X5.6635Y-3.8438
X5.6635Y-3.8753
X5.6635Y-3.9068
X5.6635Y-3.9383
X5.6635Y-3.9697
X5.6635Y-4.0012
X5.664Y-4.2815
X5.666Y-3.0175
X5.666Y-4.1325
X5.687Y-3.3175
X5.695Y-3.4028
X5.695Y-3.5603
X5.695Y-3.5918
X5.695Y-3.6233
X5.695Y-3.6548
X5.695Y-3.7178
X5.695Y-3.7493
X5.695Y-3.7808
X5.695Y-3.8123
X5.695Y-3.8438
X5.695Y-3.8753
X5.695Y-3.9068
X5.695Y-3.9383
X5.695Y-3.9697
X5.695Y-4.0012
X5.7019Y-4.1251
X5.7091Y-4.2067
X5.7139Y-4.2811
X5.722Y-4.0693
X5.7265Y-3.4658
X5.7265Y-3.5918
X5.7265Y-3.6233
X5.7265Y-3.6548
X5.7265Y-3.7178
X5.7265Y-3.7493
X5.7265Y-3.7808
X5.7265Y-3.8123
X5.7265Y-3.8438
X5.7265Y-3.8753
X5.7265Y-3.9068
X5.7265Y-3.9383
X5.7265Y-3.9697
X5.7265Y-4.0012
X5.742Y-3.3225
X5.7532Y-4.2757
X5.766Y-3.8915
X5.766Y-3.9375
X5.801Y-3.7175
X5.81Y-3.3225
X5.8117Y-2.3583
X5.812Y-3.2725
X5.8166Y-4.2845
X5.8195Y-2.257
X5.823Y-3.8685
X5.826Y-3.7975
X5.827Y-3.5645
X5.841Y-3.2275
X5.8463Y-2.2811
X5.8516Y-4.0744
X5.8551Y-4.1551
X5.8561Y-3.1493
X5.8577Y-3.1048
X5.8751Y-3.1281
X5.8782Y-2.3797
X5.882Y-3.765
X5.882Y-3.9383
X5.8937Y-3.1048
X5.8939Y-3.1502
X5.8972Y-2.3517
X5.8973Y-3.9974
X5.9169Y-3.7186
X5.917Y-3.6055
X5.921Y-3.5455
X5.9307Y-4.1587
X5.94Y-3.8315
X5.94Y-3.9076
X5.944Y-3.4634
X5.944Y-3.5036
X5.95Y-3.0715
X5.961Y-2.9825
X5.965Y-3.1555
X5.977Y-3.0195
X6.002Y-3.2385
X6.0106Y-4.277
X6.011Y-4.1555
X6.012Y-3.1985
X6.051Y-3.0995
X6.0543Y-3.3012
X6.0637Y-3.8402
X6.064Y-3.4623
X6.064Y-3.5024
X6.0644Y-3.5449
X6.0846Y-5.3532
X6.108Y-4.1245
X6.1217Y-3.2945
X6.135Y-3.0045
X6.1473Y-3.4308
X6.1473Y-3.4623
X6.1473Y-3.4938
X6.1473Y-3.5253
X6.1473Y-3.5568
X6.1473Y-3.6198
X6.1473Y-3.7143
X6.1473Y-3.7458
X6.1473Y-3.7773
X6.1473Y-3.8087
X6.1473Y-3.8402
X6.1473Y-3.8717
X6.1473Y-3.9032
X6.1473Y-3.9347
X6.1591Y-3.0996
X6.1764Y-3.3276
X6.1788Y-3.4308
X6.1788Y-3.4623
X6.1788Y-3.4938
X6.1788Y-3.5253
X6.1788Y-3.5568
X6.1788Y-3.5883
X6.1788Y-3.6198
X6.1788Y-3.6513
X6.1788Y-3.7143
X6.1788Y-3.7458
X6.1788Y-3.7773
X6.1788Y-3.8087
X6.1788Y-3.8402
X6.1788Y-3.8717
X6.1788Y-3.9032
X6.1788Y-3.9347
X6.2418Y-3.4308
X6.2418Y-3.4623
X6.2418Y-3.4938
X6.2418Y-3.5253
X6.2418Y-3.5883
X6.2418Y-3.6198
X6.2418Y-3.6513
X6.2418Y-3.7143
X6.2418Y-3.7458
X6.2418Y-3.7773
X6.2418Y-3.8402
X6.2418Y-3.8717
X6.2418Y-3.9032
X6.2418Y-3.9347
X6.2433Y-3.8079
X6.2457Y-3.0378
X6.277Y-3.3355
X6.295Y-3.3625
X6.313Y-3.3355
X6.328Y-3.6985
X6.3363Y-3.4308
X6.3363Y-3.4623
X6.3363Y-3.4938
X6.3363Y-3.5253
X6.3363Y-3.5568
X6.3363Y-3.5883
X6.3363Y-3.6198
X6.3363Y-3.6513
X6.3363Y-3.7458
X6.3363Y-3.7773
X6.3363Y-3.8087
X6.3363Y-3.8402
X6.3363Y-3.8717
X6.3363Y-3.9032
X6.3363Y-3.9347
X6.354Y-3.2305
X6.369Y-3.9795
X6.3992Y-3.4308
X6.3992Y-3.4623
X6.3992Y-3.4938
X6.3992Y-3.5253
X6.3992Y-3.5568
X6.3992Y-3.5883
X6.3992Y-3.6198
X6.3992Y-3.6513
X6.3992Y-3.7143
X6.3992Y-3.7458
X6.3992Y-3.7773
X6.3992Y-3.8087
X6.3992Y-3.8402
X6.3992Y-3.8717
X6.3992Y-3.9032
X6.3992Y-3.9347
X6.4031Y-2.9531
X6.4067Y-3.179
X6.408Y-3.1344
X6.4122Y-3.2752
X6.4253Y-3.1569
X6.4307Y-3.4308
X6.4307Y-3.4623
X6.4307Y-3.4938
X6.4307Y-3.5253
X6.4307Y-3.5568
X6.4307Y-3.6198
X6.4307Y-3.7143
X6.4307Y-3.7458
X6.4307Y-3.7773
X6.4307Y-3.8087
X6.4307Y-3.8402
X6.4307Y-3.8717
X6.4307Y-3.9032
X6.4307Y-3.9347
X6.431Y-3.3335
X6.4335Y-3.061
X6.4424Y-3.1783
X6.4432Y-3.1343
X6.465Y-2.9256
X6.4667Y-3.0593
X6.486Y-3.6479
X6.486Y-3.6848
X6.498Y-3.8585
X6.5119Y-3.1521
X6.519Y-3.7549
X6.524Y-3.9135
X6.5244Y-3.274
X6.527Y-3.1185
X6.5531Y-2.8945
X6.5662Y-3.7595
X6.5679Y-3.0758
X6.573Y-3.5505
X6.573Y-3.5883
X6.6033Y-3.6473
X6.606Y-3.7445
X6.652Y-3.1125
X6.6587Y-2.852
X6.67Y-3.7375
X6.686Y-3.8235
X6.691Y-3.1605
X6.697Y-3.0985
X6.722Y-3.2875
X6.736Y-2.9595
X6.755Y-3.2875
X6.755Y-3.3355
X6.757Y-3.4325
X6.793Y-3.6215
X6.799Y-3.6575
X6.802Y-2.9085
X6.8035Y-2.9949
X6.841Y-3.2775
X6.844Y-3.1315
X6.8457Y-3.185
X6.85Y-3.2375
X6.853Y-3.0695
X6.863Y-3.3965
X6.8654Y-2.8066
X6.8768Y-3.2807
X6.8774Y-3.5985
X6.88Y-3.0115
X6.8823Y-3.898
X6.8843Y-3.5576
X6.902Y-3.0661
X6.92Y-3.7355
X6.923Y-3.8565
X6.938Y-3.5275
X6.9394Y-3.0303
X6.9459Y-3.1258
X6.9464Y-3.2257
X6.9465Y-3.1757
X6.95Y-3.7825
X6.953Y-3.7425
X6.9587Y-2.8984
X6.9618Y-3.011
X6.9661Y-2.8551
X6.9696Y-3.3075
X6.9857Y-3.0316
X6.9874Y-3.8764
X6.988Y-3.3465
X6.9969Y-3.2266
X6.9991Y-3.1766
X7.0027Y-3.125
X7.0067Y-3.0114
X7.0215Y-3.3003
X7.0227Y-3.8075
X7.025Y-3.8328
X7.0276Y-3.9171
X7.028Y-3.5605
X7.03Y-3.4165
X7.0303Y-3.3857
X7.0386Y-3.9559
X7.0468Y-3.811
X7.0497Y-3.2266
X7.05Y-3.1256
X7.0503Y-3.1745
X7.058Y-3.5285
X7.07Y-3.5015
X7.0709Y-3.9189
X7.0768Y-3.9547
X7.0768Y-3.4004
X7.0891Y-3.4207
X7.0925Y-3.8008
X7.102Y-3.4004
X7.1114Y-3.9563
X7.115Y-3.0095
X7.1177Y-3.8177
X7.1185Y-3.8008
X7.1264Y-3.1857
X7.1437Y-3.7984
X7.1504Y-3.9559
X7.1516Y-3.924
X7.1551Y-3.1854
X7.171Y-3.5875
X7.172Y-3.6215
X7.1783Y-3.2189
X7.1787Y-3.2555
X7.184Y-3.3395
X7.203Y-3.0695
X7.2087Y-3.8244
X7.2091Y-3.7799
X7.2106Y-3.8028
X7.2177Y-3.011
X7.2618Y-3.1858
X7.2636Y-3.1498
X7.328Y-3.7953
X7.335Y-3.9563
X7.355Y-3.6415
T3
X5.1606Y-3.7796
T4
X5.0366Y-3.2469
X5.57Y-5.41
X5.72Y-5.3
X5.7888Y-2.2689
X5.79Y-4.81
X5.86Y-4.84
X5.95Y-4.84
X7.02Y-4.15
X7.1252Y-3.1272
X7.13Y-4.17
X7.14Y-4.1
X7.14Y-4.34
X7.23Y-4.18
X7.23Y-4.27
T6
X4.6638Y-2.5169
X4.6638Y-2.6169
X4.7638Y-2.5169
X4.7638Y-2.6169
X4.8638Y-2.5169
X4.8638Y-2.6169
X4.9551Y-5.0031
X4.9551Y-5.1031
X4.9638Y-2.5169
X4.9638Y-2.6169
X5.0551Y-5.0031
X5.0551Y-5.1031
X5.0638Y-2.5169
X5.0638Y-2.6169
X5.1551Y-5.0031
X5.1551Y-5.1031
X5.1638Y-2.5169
X5.1638Y-2.6169
X5.2551Y-5.0031
X5.2551Y-5.1031
X5.2638Y-2.5169
X5.2638Y-2.6169
X5.3551Y-5.0031
X5.3551Y-5.1031
X5.3638Y-2.5169
X5.3638Y-2.6169
X5.4551Y-5.0031
X5.4551Y-5.1031
X5.4638Y-2.5169
X5.4638Y-2.6169
X5.5638Y-2.5169
X5.5638Y-2.6169
X5.6638Y-2.5169
X5.6638Y-2.6169
X5.7638Y-2.5169
X5.7638Y-2.6169
X5.8638Y-2.5169
X5.8638Y-2.6169
X5.9638Y-2.5169
X5.9638Y-2.6169
X6.0638Y-2.5169
X6.0638Y-2.6169
X6.1638Y-2.5169
X6.1638Y-2.6169
X6.2638Y-2.5169
X6.2638Y-2.6169
X6.2921Y-4.3622
X6.2921Y-4.4622
X6.2921Y-4.5622
X6.2921Y-4.6622
X6.2921Y-4.7622
X6.2921Y-4.8622
X6.3638Y-2.5169
X6.3638Y-2.6169
X6.3921Y-4.3622
X6.3921Y-4.4622
X6.3921Y-4.5622
X6.3921Y-4.6622
X6.3921Y-4.7622
X6.3921Y-4.8622
X6.4638Y-2.5169
X6.4638Y-2.6169
X6.5638Y-2.5169
X6.5638Y-2.6169
X6.8Y-4.29
X6.8707Y-4.3607
X6.9414Y-4.4314
T7
X3.977Y-3.084
X3.977Y-3.542
X3.9772Y-3.9996
X3.9772Y-4.4583
T8
X3.877Y-2.984
X3.877Y-3.184
X3.877Y-3.442
X3.877Y-3.642
X3.8772Y-3.8996
X3.8772Y-4.0996
X3.8772Y-4.3583
X3.8772Y-4.5583
X4.077Y-2.984
X4.077Y-3.184
X4.077Y-3.442
X4.077Y-3.642
X4.0772Y-3.8996
X4.0772Y-4.0996
X4.0772Y-4.3583
X4.0772Y-4.5583
T9
X4.8628Y-2.1045
X4.8628Y-5.434
X6.29Y-2.1045
X6.29Y-5.434
T5
G00X5.7134Y-2.0993
M15
G01X5.7134Y-2.0717
M16
G05
G00X5.9733Y-2.0993
M15
G01X5.9733Y-2.0717
M16
G05
G00X7.2195Y-4.0921
M15
G01X7.247Y-4.0921
M16
G05
G00X7.2195Y-4.352
M15
G01X7.247Y-4.352
M16
G05
M30
