%TF.GenerationSoftware,KiCad,Pcbnew,8.0.6*%
%TF.CreationDate,2025-01-14T20:30:26-08:00*%
%TF.ProjectId,IO_SDR_1.1,494f5f53-4452-45f3-912e-312e6b696361,rev?*%
%TF.SameCoordinates,Original*%
%TF.FileFunction,Profile,NP*%
%FSLAX46Y46*%
G04 Gerber Fmt 4.6, Leading zero omitted, Abs format (unit mm)*
G04 Created by KiCad (PCBNEW 8.0.6) date 2025-01-14 20:30:26*
%MOMM*%
%LPD*%
G01*
G04 APERTURE LIST*
%TA.AperFunction,Profile*%
%ADD10C,0.200000*%
%TD*%
G04 APERTURE END LIST*
D10*
X175957393Y-125983999D02*
X165830427Y-136144000D01*
X117624394Y-136144000D02*
G75*
G02*
X119624300Y-138144000I106J-1999800D01*
G01*
X119624361Y-51344000D02*
X119624361Y-53044000D01*
X161677394Y-141344000D02*
X162330428Y-141343999D01*
X162330426Y-49844000D02*
X161677393Y-49844000D01*
X117624361Y-55044000D02*
X101177394Y-71490967D01*
X165830426Y-55044000D02*
X182277394Y-71490967D01*
X187477394Y-75644000D02*
X187477394Y-115544000D01*
X95977394Y-115544000D02*
X95977394Y-116197033D01*
X187477394Y-116196900D02*
G75*
G02*
X185991471Y-117697024I-1500394J200D01*
G01*
X162330426Y-49844000D02*
G75*
G02*
X163830400Y-51344000I174J-1499800D01*
G01*
X97477374Y-117697033D02*
X99177375Y-117697034D01*
X121124494Y-141344000D02*
G75*
G02*
X119624368Y-139858077I6J1500200D01*
G01*
X187477394Y-116196900D02*
X187477394Y-115544000D01*
X121777394Y-49844000D02*
X161677393Y-49844000D01*
X163830427Y-53044000D02*
X163830427Y-51344000D01*
X163830427Y-139843999D02*
G75*
G02*
X162330428Y-141344027I-1500027J-1D01*
G01*
X163830427Y-139843999D02*
X163830427Y-138144000D01*
X182277394Y-119696999D02*
X175957393Y-125983999D01*
X95977394Y-74990968D02*
X95977394Y-75644001D01*
X185977394Y-73490967D02*
X184277393Y-73490967D01*
X101177394Y-71490967D02*
G75*
G02*
X99177394Y-73490994I-1999894J-133D01*
G01*
X95977394Y-74990968D02*
G75*
G02*
X97477395Y-73490994I1500106J-132D01*
G01*
X117624394Y-136144000D02*
X101177394Y-119702351D01*
X185977394Y-73490967D02*
G75*
G02*
X187477433Y-74990967I106J-1499933D01*
G01*
X121124494Y-141344000D02*
X121777394Y-141344000D01*
X97477374Y-117697033D02*
G75*
G02*
X95977367Y-116197033I126J1500133D01*
G01*
X184277394Y-117697033D02*
X185991471Y-117697033D01*
X95977394Y-115544000D02*
X95977394Y-75644001D01*
X119624361Y-53044000D02*
G75*
G02*
X117624361Y-55044061I-2000061J0D01*
G01*
X161677394Y-141344000D02*
X121777394Y-141344000D01*
X99177375Y-117697034D02*
G75*
G02*
X101177459Y-119702351I-75J-2000166D01*
G01*
X165830426Y-55044000D02*
G75*
G02*
X163830400Y-53044000I-26J2000000D01*
G01*
X182277394Y-119696999D02*
G75*
G02*
X184277394Y-117696994I2000006J-1D01*
G01*
X119624361Y-138144000D02*
X119624361Y-139858077D01*
X163830427Y-138144000D02*
G75*
G02*
X165830427Y-136144027I1999973J0D01*
G01*
X99177394Y-73490967D02*
X97477395Y-73490967D01*
X119624361Y-51344000D02*
G75*
G02*
X121124362Y-49843961I1500139J-100D01*
G01*
X121777394Y-49844000D02*
X121124362Y-49844000D01*
X184277393Y-73490967D02*
G75*
G02*
X182277433Y-71490967I7J1999967D01*
G01*
X187477394Y-75644000D02*
X187477394Y-74990967D01*
M02*
