%TF.GenerationSoftware,KiCad,Pcbnew,8.0.6*%
%TF.CreationDate,2025-03-23T18:04:28-07:00*%
%TF.ProjectId,ProPico,50726f50-6963-46f2-9e6b-696361645f70,rev?*%
%TF.SameCoordinates,Original*%
%TF.FileFunction,Paste,Top*%
%TF.FilePolarity,Positive*%
%FSLAX46Y46*%
G04 Gerber Fmt 4.6, Leading zero omitted, Abs format (unit mm)*
G04 Created by KiCad (PCBNEW 8.0.6) date 2025-03-23 18:04:28*
%MOMM*%
%LPD*%
G01*
G04 APERTURE LIST*
G04 Aperture macros list*
%AMRoundRect*
0 Rectangle with rounded corners*
0 $1 Rounding radius*
0 $2 $3 $4 $5 $6 $7 $8 $9 X,Y pos of 4 corners*
0 Add a 4 corners polygon primitive as box body*
4,1,4,$2,$3,$4,$5,$6,$7,$8,$9,$2,$3,0*
0 Add four circle primitives for the rounded corners*
1,1,$1+$1,$2,$3*
1,1,$1+$1,$4,$5*
1,1,$1+$1,$6,$7*
1,1,$1+$1,$8,$9*
0 Add four rect primitives between the rounded corners*
20,1,$1+$1,$2,$3,$4,$5,0*
20,1,$1+$1,$4,$5,$6,$7,0*
20,1,$1+$1,$6,$7,$8,$9,0*
20,1,$1+$1,$8,$9,$2,$3,0*%
G04 Aperture macros list end*
%ADD10C,0.010000*%
%ADD11RoundRect,0.160000X0.160000X-0.197500X0.160000X0.197500X-0.160000X0.197500X-0.160000X-0.197500X0*%
%ADD12RoundRect,0.160000X0.197500X0.160000X-0.197500X0.160000X-0.197500X-0.160000X0.197500X-0.160000X0*%
%ADD13R,1.700000X0.900000*%
%ADD14RoundRect,0.140000X0.170000X-0.140000X0.170000X0.140000X-0.170000X0.140000X-0.170000X-0.140000X0*%
%ADD15RoundRect,0.237500X0.300000X0.237500X-0.300000X0.237500X-0.300000X-0.237500X0.300000X-0.237500X0*%
%ADD16RoundRect,0.135000X-0.135000X-0.185000X0.135000X-0.185000X0.135000X0.185000X-0.135000X0.185000X0*%
%ADD17RoundRect,0.140000X-0.140000X-0.170000X0.140000X-0.170000X0.140000X0.170000X-0.140000X0.170000X0*%
%ADD18RoundRect,0.140000X-0.170000X0.140000X-0.170000X-0.140000X0.170000X-0.140000X0.170000X0.140000X0*%
%ADD19RoundRect,0.250000X-0.292217X-0.292217X0.292217X-0.292217X0.292217X0.292217X-0.292217X0.292217X0*%
%ADD20RoundRect,0.050000X-0.387500X-0.050000X0.387500X-0.050000X0.387500X0.050000X-0.387500X0.050000X0*%
%ADD21RoundRect,0.050000X-0.050000X-0.387500X0.050000X-0.387500X0.050000X0.387500X-0.050000X0.387500X0*%
%ADD22R,2.000000X1.500000*%
%ADD23R,2.000000X3.800000*%
%ADD24RoundRect,0.155000X-0.212500X-0.155000X0.212500X-0.155000X0.212500X0.155000X-0.212500X0.155000X0*%
%ADD25RoundRect,0.135000X-0.185000X0.135000X-0.185000X-0.135000X0.185000X-0.135000X0.185000X0.135000X0*%
%ADD26R,0.950000X0.550000*%
%ADD27RoundRect,0.237500X-0.300000X-0.237500X0.300000X-0.237500X0.300000X0.237500X-0.300000X0.237500X0*%
%ADD28RoundRect,0.225000X0.375000X-0.225000X0.375000X0.225000X-0.375000X0.225000X-0.375000X-0.225000X0*%
%ADD29R,1.150000X1.000000*%
%ADD30RoundRect,0.250000X0.450000X-0.350000X0.450000X0.350000X-0.450000X0.350000X-0.450000X-0.350000X0*%
%ADD31RoundRect,0.050000X-0.225000X-0.050000X0.225000X-0.050000X0.225000X0.050000X-0.225000X0.050000X0*%
%ADD32RoundRect,0.050000X0.050000X-0.225000X0.050000X0.225000X-0.050000X0.225000X-0.050000X-0.225000X0*%
%ADD33R,0.600000X1.160000*%
%ADD34R,0.300000X1.160000*%
%ADD35RoundRect,0.135000X0.185000X-0.135000X0.185000X0.135000X-0.185000X0.135000X-0.185000X-0.135000X0*%
%ADD36RoundRect,0.135000X0.135000X0.185000X-0.135000X0.185000X-0.135000X-0.185000X0.135000X-0.185000X0*%
%ADD37RoundRect,0.160000X-0.197500X-0.160000X0.197500X-0.160000X0.197500X0.160000X-0.197500X0.160000X0*%
%ADD38RoundRect,0.150000X-0.150000X0.587500X-0.150000X-0.587500X0.150000X-0.587500X0.150000X0.587500X0*%
%ADD39RoundRect,0.250000X-0.475000X0.337500X-0.475000X-0.337500X0.475000X-0.337500X0.475000X0.337500X0*%
%ADD40RoundRect,0.237500X-0.237500X0.250000X-0.237500X-0.250000X0.237500X-0.250000X0.237500X0.250000X0*%
%ADD41RoundRect,0.140000X0.219203X0.021213X0.021213X0.219203X-0.219203X-0.021213X-0.021213X-0.219203X0*%
%ADD42RoundRect,0.237500X-0.237500X0.287500X-0.237500X-0.287500X0.237500X-0.287500X0.237500X0.287500X0*%
%ADD43RoundRect,0.155000X0.155000X-0.212500X0.155000X0.212500X-0.155000X0.212500X-0.155000X-0.212500X0*%
G04 APERTURE END LIST*
D10*
%TO.C,U2*%
X96759000Y-61698000D02*
X96559000Y-61698000D01*
X96559000Y-61148000D01*
X96759000Y-61148000D01*
X96759000Y-61698000D01*
G36*
X96759000Y-61698000D02*
G01*
X96559000Y-61698000D01*
X96559000Y-61148000D01*
X96759000Y-61148000D01*
X96759000Y-61698000D01*
G37*
X96759000Y-64448000D02*
X96559000Y-64448000D01*
X96559000Y-63898000D01*
X96759000Y-63898000D01*
X96759000Y-64448000D01*
G36*
X96759000Y-64448000D02*
G01*
X96559000Y-64448000D01*
X96559000Y-63898000D01*
X96759000Y-63898000D01*
X96759000Y-64448000D01*
G37*
X97309000Y-62898000D02*
X96809000Y-62898000D01*
X96809000Y-62698000D01*
X97309000Y-62698000D01*
X97309000Y-62898000D01*
G36*
X97309000Y-62898000D02*
G01*
X96809000Y-62898000D01*
X96809000Y-62698000D01*
X97309000Y-62698000D01*
X97309000Y-62898000D01*
G37*
X97259000Y-61698000D02*
X97059000Y-61698000D01*
X97059000Y-61148000D01*
X97259000Y-61148000D01*
X97259000Y-61698000D01*
G36*
X97259000Y-61698000D02*
G01*
X97059000Y-61698000D01*
X97059000Y-61148000D01*
X97259000Y-61148000D01*
X97259000Y-61698000D01*
G37*
X97259000Y-64448000D02*
X97059000Y-64448000D01*
X97059000Y-63898000D01*
X97259000Y-63898000D01*
X97259000Y-64448000D01*
G36*
X97259000Y-64448000D02*
G01*
X97059000Y-64448000D01*
X97059000Y-63898000D01*
X97259000Y-63898000D01*
X97259000Y-64448000D01*
G37*
X98009000Y-62898000D02*
X97509000Y-62898000D01*
X97509000Y-62698000D01*
X98009000Y-62698000D01*
X98009000Y-62898000D01*
G36*
X98009000Y-62898000D02*
G01*
X97509000Y-62898000D01*
X97509000Y-62698000D01*
X98009000Y-62698000D01*
X98009000Y-62898000D01*
G37*
X97759000Y-61698000D02*
X97559000Y-61698000D01*
X97559000Y-61148000D01*
X97759000Y-61148000D01*
X97759000Y-61698000D01*
G36*
X97759000Y-61698000D02*
G01*
X97559000Y-61698000D01*
X97559000Y-61148000D01*
X97759000Y-61148000D01*
X97759000Y-61698000D01*
G37*
X97759000Y-64448000D02*
X97559000Y-64448000D01*
X97559000Y-63898000D01*
X97759000Y-63898000D01*
X97759000Y-64448000D01*
G36*
X97759000Y-64448000D02*
G01*
X97559000Y-64448000D01*
X97559000Y-63898000D01*
X97759000Y-63898000D01*
X97759000Y-64448000D01*
G37*
X98259000Y-61698000D02*
X98059000Y-61698000D01*
X98059000Y-61148000D01*
X98259000Y-61148000D01*
X98259000Y-61698000D01*
G36*
X98259000Y-61698000D02*
G01*
X98059000Y-61698000D01*
X98059000Y-61148000D01*
X98259000Y-61148000D01*
X98259000Y-61698000D01*
G37*
X98259000Y-64448000D02*
X98059000Y-64448000D01*
X98059000Y-63898000D01*
X98259000Y-63898000D01*
X98259000Y-64448000D01*
G36*
X98259000Y-64448000D02*
G01*
X98059000Y-64448000D01*
X98059000Y-63898000D01*
X98259000Y-63898000D01*
X98259000Y-64448000D01*
G37*
%TD*%
D11*
%TO.C,R12*%
X96647000Y-45234500D03*
X96647000Y-44039500D03*
%TD*%
D12*
%TO.C,R5*%
X102197500Y-75879000D03*
X101002500Y-75879000D03*
%TD*%
D13*
%TO.C,SW1*%
X98171000Y-56497000D03*
X98171000Y-53097000D03*
%TD*%
D14*
%TO.C,C12*%
X107797600Y-62744600D03*
X107797600Y-61784600D03*
%TD*%
D15*
%TO.C,C4*%
X109447500Y-51495000D03*
X107722500Y-51495000D03*
%TD*%
D16*
%TO.C,R15*%
X91570000Y-64910000D03*
X92590000Y-64910000D03*
%TD*%
D17*
%TO.C,C17*%
X96780000Y-77370000D03*
X97740000Y-77370000D03*
%TD*%
D18*
%TO.C,C2*%
X98298000Y-80098000D03*
X98298000Y-81058000D03*
%TD*%
D19*
%TO.C,U5*%
X102389700Y-67875500D03*
X102389700Y-69150500D03*
X103664700Y-67875500D03*
X103664700Y-69150500D03*
D20*
X99589700Y-65913000D03*
X99589700Y-66313000D03*
X99589700Y-66713000D03*
X99589700Y-67113000D03*
X99589700Y-67513000D03*
X99589700Y-67913000D03*
X99589700Y-68313000D03*
X99589700Y-68713000D03*
X99589700Y-69113000D03*
X99589700Y-69513000D03*
X99589700Y-69913000D03*
X99589700Y-70313000D03*
X99589700Y-70713000D03*
X99589700Y-71113000D03*
D21*
X100427200Y-71950500D03*
X100827200Y-71950500D03*
X101227200Y-71950500D03*
X101627200Y-71950500D03*
X102027200Y-71950500D03*
X102427200Y-71950500D03*
X102827200Y-71950500D03*
X103227200Y-71950500D03*
X103627200Y-71950500D03*
X104027200Y-71950500D03*
X104427200Y-71950500D03*
X104827200Y-71950500D03*
X105227200Y-71950500D03*
X105627200Y-71950500D03*
D20*
X106464700Y-71113000D03*
X106464700Y-70713000D03*
X106464700Y-70313000D03*
X106464700Y-69913000D03*
X106464700Y-69513000D03*
X106464700Y-69113000D03*
X106464700Y-68713000D03*
X106464700Y-68313000D03*
X106464700Y-67913000D03*
X106464700Y-67513000D03*
X106464700Y-67113000D03*
X106464700Y-66713000D03*
X106464700Y-66313000D03*
X106464700Y-65913000D03*
D21*
X105627200Y-65075500D03*
X105227200Y-65075500D03*
X104827200Y-65075500D03*
X104427200Y-65075500D03*
X104027200Y-65075500D03*
X103627200Y-65075500D03*
X103227200Y-65075500D03*
X102827200Y-65075500D03*
X102427200Y-65075500D03*
X102027200Y-65075500D03*
X101627200Y-65075500D03*
X101227200Y-65075500D03*
X100827200Y-65075500D03*
X100427200Y-65075500D03*
%TD*%
D14*
%TO.C,C13*%
X103759000Y-63278000D03*
X103759000Y-62318000D03*
%TD*%
D12*
%TO.C,R3*%
X100673500Y-51749000D03*
X99478500Y-51749000D03*
%TD*%
D17*
%TO.C,C14*%
X107810000Y-65600000D03*
X108770000Y-65600000D03*
%TD*%
D18*
%TO.C,C3*%
X102235000Y-76923000D03*
X102235000Y-77883000D03*
%TD*%
D22*
%TO.C,U3*%
X107544000Y-58480000D03*
X107544000Y-56180000D03*
D23*
X101244000Y-56180000D03*
D22*
X107544000Y-53880000D03*
%TD*%
D24*
%TO.C,C1*%
X94302500Y-73390000D03*
X95437500Y-73390000D03*
%TD*%
D25*
%TO.C,R11*%
X94110000Y-62940001D03*
X94110000Y-63959999D03*
%TD*%
D26*
%TO.C,U7*%
X113087500Y-70947500D03*
X113087500Y-72197500D03*
X113087500Y-73447500D03*
X113087500Y-74697500D03*
X115237500Y-74697500D03*
X115237500Y-73447500D03*
X115237500Y-72197500D03*
X115237500Y-70947500D03*
%TD*%
D18*
%TO.C,C18*%
X103124000Y-74256000D03*
X103124000Y-75216000D03*
%TD*%
D27*
%TO.C,C7*%
X108611500Y-63941000D03*
X110336500Y-63941000D03*
%TD*%
D25*
%TO.C,R9*%
X105765600Y-61754600D03*
X105765600Y-62774600D03*
%TD*%
D17*
%TO.C,C11*%
X107950000Y-69510000D03*
X108910000Y-69510000D03*
%TD*%
D28*
%TO.C,D1*%
X109601000Y-49716000D03*
X109601000Y-46416000D03*
%TD*%
D29*
%TO.C,Y1*%
X100824000Y-77338000D03*
X99074000Y-77338000D03*
X99074000Y-78738000D03*
X100824000Y-78738000D03*
%TD*%
D30*
%TO.C,R6*%
X109829600Y-58235400D03*
X109829600Y-56235400D03*
%TD*%
D31*
%TO.C,U1*%
X92460000Y-67990000D03*
X92460000Y-68390000D03*
X92460000Y-68790000D03*
X92460000Y-69190000D03*
X92460000Y-69590000D03*
X92460000Y-69990000D03*
D32*
X92960000Y-70490000D03*
X93360000Y-70490000D03*
X93760000Y-70490000D03*
X94160000Y-70490000D03*
X94560000Y-70490000D03*
X94960000Y-70490000D03*
D31*
X95460000Y-69990000D03*
X95460000Y-69590000D03*
X95460000Y-69190000D03*
X95460000Y-68790000D03*
X95460000Y-68390000D03*
X95460000Y-67990000D03*
D32*
X94960000Y-67490000D03*
X94560000Y-67490000D03*
X94160000Y-67490000D03*
X93760000Y-67490000D03*
X93360000Y-67490000D03*
X92960000Y-67490000D03*
%TD*%
D16*
%TO.C,R16*%
X94820000Y-72110000D03*
X95840000Y-72110000D03*
%TD*%
D11*
%TO.C,R1*%
X95631000Y-62252500D03*
X95631000Y-61057500D03*
%TD*%
D33*
%TO.C,J1*%
X106222400Y-49380000D03*
X105422400Y-49380000D03*
D34*
X104272400Y-49380000D03*
X103272400Y-49380000D03*
X102772400Y-49380000D03*
X101772400Y-49380000D03*
D33*
X100622400Y-49380000D03*
X99822400Y-49380000D03*
X99822400Y-49380000D03*
X100622400Y-49380000D03*
D34*
X101272400Y-49380000D03*
X102272400Y-49380000D03*
X103772400Y-49380000D03*
X104772400Y-49380000D03*
D33*
X105422400Y-49380000D03*
X106222400Y-49380000D03*
%TD*%
D35*
%TO.C,R19*%
X116750000Y-73229999D03*
X116750000Y-72210001D03*
%TD*%
D36*
%TO.C,R20*%
X115699999Y-76270000D03*
X114680001Y-76270000D03*
%TD*%
D14*
%TO.C,C16*%
X95631000Y-64294000D03*
X95631000Y-63334000D03*
%TD*%
D37*
%TO.C,R4*%
X104812500Y-51749000D03*
X106007500Y-51749000D03*
%TD*%
D38*
%TO.C,U4*%
X108213400Y-78117450D03*
X106313400Y-78117450D03*
X107263400Y-79992450D03*
%TD*%
D37*
%TO.C,R2*%
X97827500Y-59242000D03*
X99022500Y-59242000D03*
%TD*%
D13*
%TO.C,SW2*%
X112440000Y-77029999D03*
X112440000Y-80430001D03*
%TD*%
D36*
%TO.C,R17*%
X93029999Y-72640000D03*
X92010001Y-72640000D03*
%TD*%
D18*
%TO.C,C9*%
X104140000Y-74256000D03*
X104140000Y-75216000D03*
%TD*%
D39*
%TO.C,C6*%
X109829600Y-60007900D03*
X109829600Y-62082900D03*
%TD*%
D40*
%TO.C,R7*%
X109930400Y-78269450D03*
X109930400Y-80094450D03*
%TD*%
D25*
%TO.C,R8*%
X104749600Y-61754600D03*
X104749600Y-62774600D03*
%TD*%
D16*
%TO.C,R10*%
X91100000Y-66040000D03*
X92120000Y-66040000D03*
%TD*%
D41*
%TO.C,C15*%
X102729411Y-61609411D03*
X102050589Y-60930589D03*
%TD*%
D14*
%TO.C,C10*%
X106781600Y-62744600D03*
X106781600Y-61784600D03*
%TD*%
D41*
%TO.C,C8*%
X102009000Y-62286000D03*
X101330178Y-61607178D03*
%TD*%
D25*
%TO.C,R18*%
X116690000Y-74520000D03*
X116690000Y-75539998D03*
%TD*%
D42*
%TO.C,D2*%
X96647000Y-46556000D03*
X96647000Y-48306000D03*
%TD*%
D43*
%TO.C,C5*%
X96647000Y-60190500D03*
X96647000Y-59055500D03*
%TD*%
M02*
