M48
; DRILL file {KiCad 8.0.6} date 2025-03-23T18:04:31-0700
; FORMAT={-:-/ absolute / inch / decimal}
; #@! TF.CreationDate,2025-03-23T18:04:31-07:00
; #@! TF.GenerationSoftware,Kicad,Pcbnew,8.0.6
; #@! TF.FileFunction,Plated,1,2,PTH
FMAT,2
INCH
; #@! TA.AperFunction,Plated,PTH,ViaDrill
T1C0.0118
; #@! TA.AperFunction,Plated,PTH,ViaDrill
T2C0.0157
; #@! TA.AperFunction,Plated,PTH,ComponentDrill
T3C0.0236
; #@! TA.AperFunction,Plated,PTH,ComponentDrill
T4C0.0394
; #@! TA.AperFunction,Plated,PTH,ComponentDrill
T5C0.0984
%
G90
G05
T1
X3.6236Y-2.8602
X3.6453Y-2.5559
X3.661Y-2.8173
X3.7051Y-2.5181
X3.7083Y-2.6185
X3.7366Y-2.5894
X3.7614Y-2.8836
X3.765Y-2.6575
X3.765Y-2.4509
X3.775Y-1.9874
X3.776Y-2.7677
X3.778Y-2.8398
X3.805Y-1.9018
X3.805Y-2.3697
X3.8102Y-3.0461
X3.8256Y-2.674
X3.8465Y-2.62
X3.865Y-2.2243
X3.87Y-3.1913
X3.8768Y-2.7984
X3.8772Y-2.7626
X3.88Y-2.62
X3.8866Y-2.5202
X3.89Y-2.1869
X3.8976Y-2.3331
X3.9006Y-3.0488
X3.965Y-2.3624
X3.9669Y-3.0996
X3.968Y-2.6094
X3.9696Y-2.4078
X3.998Y-1.8634
X4.01Y-2.6524
X4.01Y-2.7424
X4.025Y-3.0663
X4.0338Y-2.4736
X4.0613Y-2.9973
X4.072Y-2.5274
X4.085Y-2.4074
X4.1Y-2.6524
X4.1Y-2.7424
X4.1074Y-2.9824
X4.114Y-1.8624
X4.14Y-1.9924
X4.146Y-2.7894
X4.15Y-2.6034
X4.18Y-1.9924
X4.1846Y-3.0764
X4.22Y-1.9924
X4.22Y-2.3974
X4.26Y-1.9924
X4.2607Y-2.9208
X4.276Y-2.5472
X4.279Y-2.3178
X4.2878Y-2.7343
X4.3044Y-2.5685
X4.322Y-2.7287
X4.4248Y-3.165
X4.4547Y-2.8937
T2
X3.7325Y-2.4263
X3.7331Y-2.3583
X4.0205Y-2.1283
X4.2319Y-2.2094
X4.328Y-3.1533
T4
X3.3606Y-2.5917
X3.3606Y-2.6917
X3.3606Y-2.7917
X3.3606Y-2.8917
X3.3736Y-2.0752
X3.3736Y-2.1752
X3.3736Y-2.2752
X3.4606Y-2.5917
X3.4606Y-2.6917
X3.4606Y-2.7917
X3.4606Y-2.8917
X3.622Y-1.8677
X3.622Y-1.9677
X3.622Y-2.0677
X3.622Y-2.1677
X3.622Y-2.2677
X3.622Y-2.3677
X4.4996Y-1.9268
X4.4996Y-2.0268
X4.4996Y-2.1268
X4.4996Y-2.2268
X4.4996Y-2.3268
X4.4996Y-2.4268
X4.7051Y-2.0394
X4.7051Y-2.1394
X4.7051Y-2.2894
X4.7051Y-2.3894
X4.7059Y-2.5441
X4.7059Y-2.6441
X4.7063Y-2.7972
X4.7063Y-2.8972
T5
X3.4213Y-1.8484
X3.4252Y-3.1012
X4.6669Y-1.8411
X4.6807Y-3.0933
T3
G00X3.8859Y-1.7413
M15
G01X3.8859Y-1.7728
M16
G05
G00X3.8859Y-1.8996
M15
G01X3.8859Y-1.9429
M16
G05
G00X4.2261Y-1.7413
M15
G01X4.2261Y-1.7728
M16
G05
G00X4.2261Y-1.8996
M15
G01X4.2261Y-1.9429
M16
G05
M30
